{"glyphs":{"0":{"ha":493,"x_min":53,"x_max":693,"o":"m 642 646 q 681 633 669 646 q 693 589 693 621 q 662 485 693 546 q 578 356 631 424 q 461 224 525 289 q 331 106 397 158 q 204 21 264 53 q 101 -11 144 -11 q 64 5 75 -11 q 53 61 53 21 q 81 181 53 117 q 156 311 108 246 q 263 437 203 376 q 390 544 324 497 q 521 619 456 592 q 642 646 586 646 m 682 589 q 646 633 682 633 q 548 602 606 633 q 426 518 490 571 q 300 400 363 465 q 186 267 238 335 q 104 138 135 200 q 72 32 74 76 q 79 6 72 14 q 104 -1 86 -1 q 202 31 144 -1 q 325 115 260 63 q 453 233 390 168 q 568 364 517 297 q 651 490 619 431 q 682 589 682 549 z "},"1":{"ha":453,"x_min":-35,"x_max":706,"o":"m -35 82 l -22 107 q 103 179 35 135 q 242 276 171 224 q 382 383 314 329 q 506 483 450 436 q 598 564 561 531 q 644 607 635 597 l 656 600 q 609 556 647 589 q 513 474 571 522 q 386 372 456 426 q 242 263 317 317 q 96 161 167 208 q -35 82 25 114 m 682 643 l 706 643 l 168 0 l 67 0 q 155 76 115 40 q 235 152 194 111 q 331 251 276 193 q 460 395 385 310 q 644 607 536 481 l 682 643 z "},"2":{"ha":519,"x_min":-53,"x_max":678,"o":"m 678 547 q 635 431 678 485 q 522 332 592 378 q 369 245 453 286 q 204 166 286 204 q 56 90 122 128 q -46 11 -10 51 l -46 14 q -21 37 -33 28 q 17 46 -8 46 q 90 35 50 46 q 168 15 129 25 q 240 4 207 4 q 330 25 289 4 q 415 100 371 46 l 421 92 q 338 15 385 36 q 239 -7 290 -7 q 166 3 206 -7 q 88 24 126 14 q 14 35 49 35 q -28 24 -14 35 q -53 0 -42 14 l -53 11 q 32 84 -28 44 q 169 169 92 124 q 328 263 247 214 q 478 364 408 311 q 590 473 547 417 q 633 588 633 529 q 564 646 633 646 q 472 619 521 646 q 376 547 424 593 q 290 443 329 501 q 228 321 251 385 l 217 321 q 278 448 239 388 q 367 556 318 508 q 467 630 417 603 q 564 657 518 657 q 648 628 618 657 q 678 547 678 600 z "},"3":{"ha":510,"x_min":-103,"x_max":672,"o":"m 363 417 q 453 375 421 417 q 483 260 486 333 q 438 126 482 193 q 324 2 394 58 q 171 -88 254 -54 q 7 -122 88 -122 q -74 -99 -44 -122 q -101 -36 -103 -76 q -77 33 -101 -4 q -15 106 -53 71 q 68 168 24 142 q 156 204 113 194 l 157 197 q 72 160 115 186 q -8 99 29 133 q -67 29 -44 65 q -90 -36 -90 -7 q 1 -112 -90 -112 q 115 -85 54 -112 q 235 -10 175 -57 q 343 94 294 38 q 422 210 392 151 q 453 321 451 269 q 363 407 457 407 q 323 398 336 407 q 317 380 310 389 q 354 371 324 371 q 444 392 396 371 q 535 447 492 414 q 605 518 578 481 q 632 589 632 556 q 576 646 632 646 q 478 613 533 646 q 381 531 424 581 l 389 551 q 445 603 411 579 q 517 642 479 628 q 583 657 554 657 q 647 631 621 657 q 669 564 672 604 q 640 492 669 528 q 565 426 611 456 q 462 378 518 396 q 350 360 406 360 q 306 374 314 360 q 313 403 297 389 q 363 417 328 417 z "},"4":{"ha":522,"x_min":-64,"x_max":818,"o":"m 806 724 l 818 724 l 139 -101 l 38 -101 q 169 22 99 -50 q 331 192 240 93 q 539 422 422 290 q 806 724 656 553 m -37 65 q -28 67 -36 67 l 365 67 l 363 56 l -36 56 q -60 53 -46 56 l -64 61 q 8 114 -39 75 q 112 208 54 153 q 231 327 169 264 q 348 453 292 390 q 448 569 404 515 q 513 657 492 622 l 533 657 q 454 553 507 615 q 335 420 401 492 q 200 280 269 349 q 69 154 131 211 q -37 65 7 97 z "},"5":{"ha":510,"x_min":-101,"x_max":674,"o":"m 474 615 l 488 651 q 533 636 503 642 q 594 631 563 631 q 642 635 619 631 q 674 649 664 640 l 672 642 q 615 615 653 625 q 538 606 578 606 q 474 615 493 606 m 381 451 q 504 313 504 451 q 472 190 501 251 q 390 72 442 128 q 276 -27 339 17 q 143 -97 213 -71 q 7 -122 74 -122 q -72 -101 -43 -122 q -101 -40 -101 -79 q -78 29 -101 -8 q -16 103 -54 67 q 67 167 22 140 q 156 204 113 194 l 157 197 q 71 160 114 186 q -9 99 28 133 q -68 28 -46 64 q -90 -36 -90 -7 q 1 -112 -90 -112 q 120 -82 57 -112 q 244 0 183 -51 q 356 114 306 51 q 438 241 407 176 q 471 363 469 306 q 381 443 471 443 q 352 440 363 443 q 331 426 342 436 l 325 433 q 376 482 349 451 q 426 546 403 513 q 463 608 449 579 q 476 651 478 638 l 488 651 q 472 602 489 635 q 424 528 454 569 q 354 446 393 488 q 381 451 364 451 z "},"6":{"ha":554,"x_min":19,"x_max":910,"o":"m 904 813 l 910 806 q 739 757 832 799 q 549 651 646 715 q 364 508 453 586 q 204 349 275 431 q 92 190 133 267 q 50 53 50 114 q 121 -12 50 -12 q 220 15 165 -12 q 330 88 275 43 q 431 188 385 133 q 506 295 478 242 q 533 392 533 349 q 479 446 533 446 q 393 421 440 446 q 302 356 346 396 q 226 267 258 315 q 186 175 194 219 l 175 175 q 219 273 186 224 q 299 364 253 322 q 393 431 344 406 q 483 457 442 457 q 565 357 565 457 q 538 253 565 307 q 465 151 511 200 q 362 62 419 101 q 242 -1 304 22 q 121 -24 179 -24 q 19 86 19 -24 q 58 231 19 154 q 163 386 96 308 q 318 536 231 464 q 505 667 406 608 q 706 764 604 725 q 904 813 808 803 z "},"7":{"ha":440,"x_min":-96,"x_max":735,"o":"m 728 650 l 735 650 q 519 453 639 575 q 267 176 400 332 q -6 -158 133 21 l -96 -158 q 347 302 142 97 q 706 638 553 507 l 728 650 m 722 650 l 729 650 q 712 633 724 642 q 668 624 700 624 q 613 628 647 624 q 546 638 579 633 q 489 642 513 642 q 288 494 374 642 l 283 504 q 374 610 318 569 q 492 651 431 651 q 547 647 514 651 q 613 637 579 642 q 669 632 647 632 q 722 650 706 632 z "},"8":{"ha":513,"x_min":10,"x_max":722,"o":"m 131 -14 q 261 30 207 -14 q 350 142 315 74 q 401 285 385 211 q 424 424 415 346 q 438 569 433 501 q 473 720 444 656 q 546 822 501 785 q 643 858 590 858 q 703 835 683 858 q 722 776 722 813 q 694 692 722 733 q 624 613 667 650 q 538 547 582 576 q 461 500 494 518 l 458 507 q 542 558 499 528 q 624 625 586 589 q 687 700 663 661 q 711 778 711 739 q 695 828 711 810 q 642 847 679 847 q 546 808 586 847 q 484 709 506 768 q 461 590 463 650 q 465 472 460 528 q 469 363 469 417 q 445 219 469 289 q 376 95 421 150 q 272 8 332 40 q 139 -25 211 -25 q 49 1 88 -25 q 10 94 10 28 q 40 192 10 143 q 121 286 71 240 q 230 373 171 332 q 347 447 289 414 q 451 501 406 479 l 457 497 q 351 440 410 474 q 235 364 293 406 q 128 276 176 322 q 49 183 79 231 q 19 92 19 136 q 48 14 19 42 q 131 -14 76 -14 z "},"9":{"ha":554,"x_min":-211,"x_max":679,"o":"m -206 -179 l -211 -172 q -40 -123 -133 -164 q 149 -17 53 -82 q 335 126 246 47 q 495 286 425 204 q 607 444 565 368 q 649 582 649 521 q 578 646 649 646 q 478 618 533 646 q 369 545 424 590 q 268 446 314 500 q 194 338 222 392 q 167 242 167 285 q 221 188 167 188 q 306 213 260 188 q 397 278 353 238 q 472 366 440 318 q 513 458 504 414 l 524 458 q 479 361 513 411 q 400 269 446 311 q 306 202 354 228 q 215 176 257 176 q 133 276 133 176 q 160 380 133 326 q 233 483 188 433 q 338 572 279 532 q 458 634 396 611 q 578 657 519 657 q 654 631 629 657 q 679 547 679 604 q 641 402 679 479 q 535 247 603 325 q 381 97 468 169 q 194 -33 293 25 q -8 -130 94 -92 q -206 -179 -110 -168 z "},"A":{"ha":1949,"x_min":-69,"x_max":2672,"o":"m 1844 -376 q 1733 -342 1782 -376 q 1658 -247 1685 -308 q 1631 -108 1631 -186 q 1655 54 1631 -31 q 1718 224 1679 139 q 1802 387 1757 308 q 1891 531 1847 465 q 1968 640 1935 596 q 2085 788 2019 711 q 2228 933 2151 865 q 2389 1044 2304 1001 q 2563 1086 2474 1086 q 2644 1075 2617 1086 q 2672 1040 2672 1064 q 2649 1014 2672 1024 q 2589 1004 2626 1004 q 2387 1035 2490 1004 q 2172 1113 2283 1067 q 1939 1204 2060 1158 q 1685 1281 1818 1250 q 1407 1313 1553 1313 q 1128 1276 1251 1313 q 920 1177 1006 1239 q 790 1040 835 1115 q 746 889 746 965 q 796 733 746 807 q 947 613 846 658 q 1201 567 1049 567 q 1406 608 1324 567 q 1531 710 1489 649 q 1574 835 1574 772 q 1548 925 1574 883 q 1469 992 1522 967 q 1333 1018 1415 1018 q 1209 1001 1267 1018 q 1113 956 1151 985 l 1101 965 q 1204 1015 1143 997 q 1333 1032 1265 1032 q 1476 1004 1419 1032 q 1560 933 1532 976 q 1588 838 1588 889 q 1544 705 1588 771 q 1414 596 1500 639 q 1200 553 1328 553 q 937 602 1042 553 q 780 730 832 651 q 728 896 728 808 q 772 1053 728 975 q 903 1194 817 1131 q 1113 1297 989 1258 q 1396 1335 1238 1335 q 1673 1303 1540 1335 q 1928 1224 1806 1271 q 2165 1131 2051 1178 q 2383 1053 2278 1085 q 2585 1021 2488 1021 q 2631 1027 2617 1021 q 2646 1044 2646 1033 q 2626 1063 2646 1056 q 2572 1071 2607 1071 q 2388 1026 2476 1071 q 2222 908 2300 981 q 2076 747 2144 835 q 1951 574 2008 660 q 1817 344 1879 465 q 1717 103 1756 222 q 1679 -118 1679 -15 q 1697 -240 1679 -183 q 1752 -330 1715 -296 q 1844 -364 1789 -364 q 1895 -354 1874 -364 q 1935 -326 1917 -344 l 1938 -339 q 1897 -367 1919 -357 q 1844 -376 1875 -376 m 688 -331 q 385 -283 524 -331 q 145 -150 247 -236 q -13 52 43 -64 q -69 306 -69 168 q -10 571 -69 449 q 158 783 50 693 q 413 924 267 874 q 732 974 560 974 q 1047 915 910 974 q 1256 750 1183 857 l 1246 740 q 1042 903 1175 846 q 732 960 910 960 q 419 911 563 960 q 169 774 275 863 q 3 567 63 686 q -56 306 -56 447 q 0 57 -56 171 q 156 -140 56 -57 q 391 -270 256 -224 q 688 -317 526 -317 q 950 -283 829 -317 q 1160 -187 1071 -249 q 1300 -44 1250 -126 q 1350 136 1350 39 q 1282 313 1350 236 q 1094 435 1214 390 q 822 479 975 479 q 611 440 692 479 q 531 338 531 400 q 717 226 531 226 q 867 247 793 226 q 1001 303 942 267 q 1097 390 1061 340 q 1133 503 1133 440 q 1098 607 1133 564 q 1007 676 1063 650 q 889 715 951 703 q 772 726 826 726 q 547 693 647 726 q 374 602 446 660 q 264 471 303 544 q 225 317 225 397 q 277 147 225 219 q 423 33 329 74 q 643 -7 517 -7 q 840 17 746 -7 q 1028 90 935 42 q 1218 209 1121 138 q 1423 376 1315 281 q 1655 590 1531 471 q 1926 850 1779 708 q 2006 915 1953 875 q 2131 993 2058 954 q 2286 1053 2203 1032 l 2322 1046 q 2157 988 2233 1028 q 2024 907 2081 949 q 1935 838 1967 865 q 1780 676 1856 767 q 1628 490 1704 586 q 1473 304 1553 394 q 1306 143 1393 214 q 1131 33 1229 82 q 920 -46 1032 -17 q 690 -75 808 -75 q 420 -22 526 -75 q 263 121 314 32 q 211 317 211 210 q 250 476 211 400 q 363 612 289 553 q 540 706 436 671 q 774 740 644 740 q 888 728 824 740 q 1011 689 951 717 q 1109 615 1071 661 q 1147 500 1147 568 q 1110 382 1147 435 q 1009 292 1072 329 q 870 234 946 254 q 717 213 794 214 q 517 338 517 213 q 601 450 517 407 q 822 493 686 493 q 1101 447 979 493 q 1294 321 1224 401 q 1364 136 1364 240 q 1313 -49 1364 36 q 1171 -197 1263 -133 q 956 -295 1079 -260 q 688 -331 832 -331 m 1351 367 l 1360 382 l 1988 382 l 1988 367 l 1351 367 z "},"Á":{"ha":1949,"x_min":-69,"x_max":2672,"o":"m 1844 -376 q 1733 -342 1782 -376 q 1658 -247 1685 -308 q 1631 -108 1631 -186 q 1655 54 1631 -31 q 1718 224 1679 139 q 1802 387 1757 308 q 1891 531 1847 465 q 1968 640 1935 596 q 2085 788 2019 711 q 2228 933 2151 865 q 2389 1044 2304 1001 q 2563 1086 2474 1086 q 2644 1075 2617 1086 q 2672 1040 2672 1064 q 2649 1014 2672 1024 q 2589 1004 2626 1004 q 2387 1035 2490 1004 q 2172 1113 2283 1067 q 1939 1204 2060 1158 q 1685 1281 1818 1250 q 1407 1313 1553 1313 q 1128 1276 1251 1313 q 920 1177 1006 1239 q 790 1040 835 1115 q 746 889 746 965 q 796 733 746 807 q 947 613 846 658 q 1201 567 1049 567 q 1406 608 1324 567 q 1531 710 1489 649 q 1574 835 1574 772 q 1548 925 1574 883 q 1469 992 1522 967 q 1333 1018 1415 1018 q 1209 1001 1267 1018 q 1113 956 1151 985 l 1101 965 q 1204 1015 1143 997 q 1333 1032 1265 1032 q 1476 1004 1419 1032 q 1560 933 1532 976 q 1588 838 1588 889 q 1544 705 1588 771 q 1414 596 1500 639 q 1200 553 1328 553 q 937 602 1042 553 q 780 730 832 651 q 728 896 728 808 q 772 1053 728 975 q 903 1194 817 1131 q 1113 1297 989 1258 q 1396 1335 1238 1335 q 1673 1303 1540 1335 q 1928 1224 1806 1271 q 2165 1131 2051 1178 q 2383 1053 2278 1085 q 2585 1021 2488 1021 q 2631 1027 2617 1021 q 2646 1044 2646 1033 q 2626 1063 2646 1056 q 2572 1071 2607 1071 q 2388 1026 2476 1071 q 2222 908 2300 981 q 2076 747 2144 835 q 1951 574 2008 660 q 1817 344 1879 465 q 1717 103 1756 222 q 1679 -118 1679 -15 q 1697 -240 1679 -183 q 1752 -330 1715 -296 q 1844 -364 1789 -364 q 1895 -354 1874 -364 q 1935 -326 1917 -344 l 1938 -339 q 1897 -367 1919 -357 q 1844 -376 1875 -376 m 688 -331 q 385 -283 524 -331 q 145 -150 247 -236 q -13 52 43 -64 q -69 306 -69 168 q -10 571 -69 449 q 158 783 50 693 q 413 924 267 874 q 732 974 560 974 q 1047 915 910 974 q 1256 750 1183 857 l 1246 740 q 1042 903 1175 846 q 732 960 910 960 q 419 911 563 960 q 169 774 275 863 q 3 567 63 686 q -56 306 -56 447 q 0 57 -56 171 q 156 -140 56 -57 q 391 -270 256 -224 q 688 -317 526 -317 q 950 -283 829 -317 q 1160 -187 1071 -249 q 1300 -44 1250 -126 q 1350 136 1350 39 q 1282 313 1350 236 q 1094 435 1214 390 q 822 479 975 479 q 611 440 692 479 q 531 338 531 400 q 717 226 531 226 q 867 247 793 226 q 1001 303 942 267 q 1097 390 1061 340 q 1133 503 1133 440 q 1098 607 1133 564 q 1007 676 1063 650 q 889 715 951 703 q 772 726 826 726 q 547 693 647 726 q 374 602 446 660 q 264 471 303 544 q 225 317 225 397 q 277 147 225 219 q 423 33 329 74 q 643 -7 517 -7 q 840 17 746 -7 q 1028 90 935 42 q 1218 209 1121 138 q 1423 376 1315 281 q 1655 590 1531 471 q 1926 850 1779 708 q 2006 915 1953 875 q 2131 993 2058 954 q 2286 1053 2203 1032 l 2322 1046 q 2157 988 2233 1028 q 2024 907 2081 949 q 1935 838 1967 865 q 1780 676 1856 767 q 1628 490 1704 586 q 1473 304 1553 394 q 1306 143 1393 214 q 1131 33 1229 82 q 920 -46 1032 -17 q 690 -75 808 -75 q 420 -22 526 -75 q 263 121 314 32 q 211 317 211 210 q 250 476 211 400 q 363 612 289 553 q 540 706 436 671 q 774 740 644 740 q 888 728 824 740 q 1011 689 951 717 q 1109 615 1071 661 q 1147 500 1147 568 q 1110 382 1147 435 q 1009 292 1072 329 q 870 234 946 254 q 717 213 794 214 q 517 338 517 213 q 601 450 517 407 q 822 493 686 493 q 1101 447 979 493 q 1294 321 1224 401 q 1364 136 1364 240 q 1313 -49 1364 36 q 1171 -197 1263 -133 q 956 -295 1079 -260 q 688 -331 832 -331 m 1351 367 l 1360 382 l 1988 382 l 1988 367 l 1351 367 m 2300 1267 l 2297 1272 l 2483 1397 q 2519 1408 2501 1408 q 2546 1386 2546 1408 q 2521 1357 2546 1368 l 2300 1267 z "},"Ă":{"ha":1949,"x_min":-69,"x_max":2672,"o":"m 1844 -376 q 1733 -342 1782 -376 q 1658 -247 1685 -308 q 1631 -108 1631 -186 q 1655 54 1631 -31 q 1718 224 1679 139 q 1802 387 1757 308 q 1891 531 1847 465 q 1968 640 1935 596 q 2085 788 2019 711 q 2228 933 2151 865 q 2389 1044 2304 1001 q 2563 1086 2474 1086 q 2644 1075 2617 1086 q 2672 1040 2672 1064 q 2649 1014 2672 1024 q 2589 1004 2626 1004 q 2387 1035 2490 1004 q 2172 1113 2283 1067 q 1939 1204 2060 1158 q 1685 1281 1818 1250 q 1407 1313 1553 1313 q 1128 1276 1251 1313 q 920 1177 1006 1239 q 790 1040 835 1115 q 746 889 746 965 q 796 733 746 807 q 947 613 846 658 q 1201 567 1049 567 q 1406 608 1324 567 q 1531 710 1489 649 q 1574 835 1574 772 q 1548 925 1574 883 q 1469 992 1522 967 q 1333 1018 1415 1018 q 1209 1001 1267 1018 q 1113 956 1151 985 l 1101 965 q 1204 1015 1143 997 q 1333 1032 1265 1032 q 1476 1004 1419 1032 q 1560 933 1532 976 q 1588 838 1588 889 q 1544 705 1588 771 q 1414 596 1500 639 q 1200 553 1328 553 q 937 602 1042 553 q 780 730 832 651 q 728 896 728 808 q 772 1053 728 975 q 903 1194 817 1131 q 1113 1297 989 1258 q 1396 1335 1238 1335 q 1673 1303 1540 1335 q 1928 1224 1806 1271 q 2165 1131 2051 1178 q 2383 1053 2278 1085 q 2585 1021 2488 1021 q 2631 1027 2617 1021 q 2646 1044 2646 1033 q 2626 1063 2646 1056 q 2572 1071 2607 1071 q 2388 1026 2476 1071 q 2222 908 2300 981 q 2076 747 2144 835 q 1951 574 2008 660 q 1817 344 1879 465 q 1717 103 1756 222 q 1679 -118 1679 -15 q 1697 -240 1679 -183 q 1752 -330 1715 -296 q 1844 -364 1789 -364 q 1895 -354 1874 -364 q 1935 -326 1917 -344 l 1938 -339 q 1897 -367 1919 -357 q 1844 -376 1875 -376 m 688 -331 q 385 -283 524 -331 q 145 -150 247 -236 q -13 52 43 -64 q -69 306 -69 168 q -10 571 -69 449 q 158 783 50 693 q 413 924 267 874 q 732 974 560 974 q 1047 915 910 974 q 1256 750 1183 857 l 1246 740 q 1042 903 1175 846 q 732 960 910 960 q 419 911 563 960 q 169 774 275 863 q 3 567 63 686 q -56 306 -56 447 q 0 57 -56 171 q 156 -140 56 -57 q 391 -270 256 -224 q 688 -317 526 -317 q 950 -283 829 -317 q 1160 -187 1071 -249 q 1300 -44 1250 -126 q 1350 136 1350 39 q 1282 313 1350 236 q 1094 435 1214 390 q 822 479 975 479 q 611 440 692 479 q 531 338 531 400 q 717 226 531 226 q 867 247 793 226 q 1001 303 942 267 q 1097 390 1061 340 q 1133 503 1133 440 q 1098 607 1133 564 q 1007 676 1063 650 q 889 715 951 703 q 772 726 826 726 q 547 693 647 726 q 374 602 446 660 q 264 471 303 544 q 225 317 225 397 q 277 147 225 219 q 423 33 329 74 q 643 -7 517 -7 q 840 17 746 -7 q 1028 90 935 42 q 1218 209 1121 138 q 1423 376 1315 281 q 1655 590 1531 471 q 1926 850 1779 708 q 2006 915 1953 875 q 2131 993 2058 954 q 2286 1053 2203 1032 l 2322 1046 q 2157 988 2233 1028 q 2024 907 2081 949 q 1935 838 1967 865 q 1780 676 1856 767 q 1628 490 1704 586 q 1473 304 1553 394 q 1306 143 1393 214 q 1131 33 1229 82 q 920 -46 1032 -17 q 690 -75 808 -75 q 420 -22 526 -75 q 263 121 314 32 q 211 317 211 210 q 250 476 211 400 q 363 612 289 553 q 540 706 436 671 q 774 740 644 740 q 888 728 824 740 q 1011 689 951 717 q 1109 615 1071 661 q 1147 500 1147 568 q 1110 382 1147 435 q 1009 292 1072 329 q 870 234 946 254 q 717 213 794 214 q 517 338 517 213 q 601 450 517 407 q 822 493 686 493 q 1101 447 979 493 q 1294 321 1224 401 q 1364 136 1364 240 q 1313 -49 1364 36 q 1171 -197 1263 -133 q 956 -295 1079 -260 q 688 -331 832 -331 m 1351 367 l 1360 382 l 1988 382 l 1988 367 l 1351 367 m 2524 1399 l 2581 1399 q 2529 1345 2563 1368 q 2459 1309 2496 1322 q 2392 1296 2422 1296 q 2332 1310 2353 1296 q 2311 1346 2311 1324 q 2316 1374 2311 1361 q 2328 1399 2321 1386 l 2375 1399 q 2366 1374 2369 1386 q 2363 1346 2363 1361 q 2399 1306 2363 1306 q 2467 1333 2431 1306 q 2524 1399 2503 1361 z "},"Ắ":{"ha":1949,"x_min":-69,"x_max":2672,"o":"m 1844 -376 q 1733 -342 1782 -376 q 1658 -247 1685 -308 q 1631 -108 1631 -186 q 1655 54 1631 -31 q 1718 224 1679 139 q 1802 387 1757 308 q 1891 531 1847 465 q 1968 640 1935 596 q 2085 788 2019 711 q 2228 933 2151 865 q 2389 1044 2304 1001 q 2563 1086 2474 1086 q 2644 1075 2617 1086 q 2672 1040 2672 1064 q 2649 1014 2672 1024 q 2589 1004 2626 1004 q 2387 1035 2490 1004 q 2172 1113 2283 1067 q 1939 1204 2060 1158 q 1685 1281 1818 1250 q 1407 1313 1553 1313 q 1128 1276 1251 1313 q 920 1177 1006 1239 q 790 1040 835 1115 q 746 889 746 965 q 796 733 746 807 q 947 613 846 658 q 1201 567 1049 567 q 1406 608 1324 567 q 1531 710 1489 649 q 1574 835 1574 772 q 1548 925 1574 883 q 1469 992 1522 967 q 1333 1018 1415 1018 q 1209 1001 1267 1018 q 1113 956 1151 985 l 1101 965 q 1204 1015 1143 997 q 1333 1032 1265 1032 q 1476 1004 1419 1032 q 1560 933 1532 976 q 1588 838 1588 889 q 1544 705 1588 771 q 1414 596 1500 639 q 1200 553 1328 553 q 937 602 1042 553 q 780 730 832 651 q 728 896 728 808 q 772 1053 728 975 q 903 1194 817 1131 q 1113 1297 989 1258 q 1396 1335 1238 1335 q 1673 1303 1540 1335 q 1928 1224 1806 1271 q 2165 1131 2051 1178 q 2383 1053 2278 1085 q 2585 1021 2488 1021 q 2631 1027 2617 1021 q 2646 1044 2646 1033 q 2626 1063 2646 1056 q 2572 1071 2607 1071 q 2388 1026 2476 1071 q 2222 908 2300 981 q 2076 747 2144 835 q 1951 574 2008 660 q 1817 344 1879 465 q 1717 103 1756 222 q 1679 -118 1679 -15 q 1697 -240 1679 -183 q 1752 -330 1715 -296 q 1844 -364 1789 -364 q 1895 -354 1874 -364 q 1935 -326 1917 -344 l 1938 -339 q 1897 -367 1919 -357 q 1844 -376 1875 -376 m 688 -331 q 385 -283 524 -331 q 145 -150 247 -236 q -13 52 43 -64 q -69 306 -69 168 q -10 571 -69 449 q 158 783 50 693 q 413 924 267 874 q 732 974 560 974 q 1047 915 910 974 q 1256 750 1183 857 l 1246 740 q 1042 903 1175 846 q 732 960 910 960 q 419 911 563 960 q 169 774 275 863 q 3 567 63 686 q -56 306 -56 447 q 0 57 -56 171 q 156 -140 56 -57 q 391 -270 256 -224 q 688 -317 526 -317 q 950 -283 829 -317 q 1160 -187 1071 -249 q 1300 -44 1250 -126 q 1350 136 1350 39 q 1282 313 1350 236 q 1094 435 1214 390 q 822 479 975 479 q 611 440 692 479 q 531 338 531 400 q 717 226 531 226 q 867 247 793 226 q 1001 303 942 267 q 1097 390 1061 340 q 1133 503 1133 440 q 1098 607 1133 564 q 1007 676 1063 650 q 889 715 951 703 q 772 726 826 726 q 547 693 647 726 q 374 602 446 660 q 264 471 303 544 q 225 317 225 397 q 277 147 225 219 q 423 33 329 74 q 643 -7 517 -7 q 840 17 746 -7 q 1028 90 935 42 q 1218 209 1121 138 q 1423 376 1315 281 q 1655 590 1531 471 q 1926 850 1779 708 q 2006 915 1953 875 q 2131 993 2058 954 q 2286 1053 2203 1032 l 2322 1046 q 2157 988 2233 1028 q 2024 907 2081 949 q 1935 838 1967 865 q 1780 676 1856 767 q 1628 490 1704 586 q 1473 304 1553 394 q 1306 143 1393 214 q 1131 33 1229 82 q 920 -46 1032 -17 q 690 -75 808 -75 q 420 -22 526 -75 q 263 121 314 32 q 211 317 211 210 q 250 476 211 400 q 363 612 289 553 q 540 706 436 671 q 774 740 644 740 q 888 728 824 740 q 1011 689 951 717 q 1109 615 1071 661 q 1147 500 1147 568 q 1110 382 1147 435 q 1009 292 1072 329 q 870 234 946 254 q 717 213 794 214 q 517 338 517 213 q 601 450 517 407 q 822 493 686 493 q 1101 447 979 493 q 1294 321 1224 401 q 1364 136 1364 240 q 1313 -49 1364 36 q 1171 -197 1263 -133 q 956 -295 1079 -260 q 688 -331 832 -331 m 1351 367 l 1360 382 l 1988 382 l 1988 367 l 1351 367 m 2524 1399 l 2581 1399 q 2529 1345 2563 1368 q 2459 1309 2496 1322 q 2392 1296 2422 1296 q 2332 1310 2353 1296 q 2311 1346 2311 1324 q 2316 1374 2311 1361 q 2328 1399 2321 1386 l 2375 1399 q 2366 1374 2369 1386 q 2363 1346 2363 1361 q 2399 1306 2363 1306 q 2467 1333 2431 1306 q 2524 1399 2503 1361 m 2424 1458 l 2421 1464 l 2607 1589 q 2643 1600 2625 1600 q 2669 1578 2669 1600 q 2644 1549 2669 1560 l 2424 1458 z "},"Ặ":{"ha":1949,"x_min":-69,"x_max":2672,"o":"m 1844 -376 q 1733 -342 1782 -376 q 1658 -247 1685 -308 q 1631 -108 1631 -186 q 1655 54 1631 -31 q 1718 224 1679 139 q 1802 387 1757 308 q 1891 531 1847 465 q 1968 640 1935 596 q 2085 788 2019 711 q 2228 933 2151 865 q 2389 1044 2304 1001 q 2563 1086 2474 1086 q 2644 1075 2617 1086 q 2672 1040 2672 1064 q 2649 1014 2672 1024 q 2589 1004 2626 1004 q 2387 1035 2490 1004 q 2172 1113 2283 1067 q 1939 1204 2060 1158 q 1685 1281 1818 1250 q 1407 1313 1553 1313 q 1128 1276 1251 1313 q 920 1177 1006 1239 q 790 1040 835 1115 q 746 889 746 965 q 796 733 746 807 q 947 613 846 658 q 1201 567 1049 567 q 1406 608 1324 567 q 1531 710 1489 649 q 1574 835 1574 772 q 1548 925 1574 883 q 1469 992 1522 967 q 1333 1018 1415 1018 q 1209 1001 1267 1018 q 1113 956 1151 985 l 1101 965 q 1204 1015 1143 997 q 1333 1032 1265 1032 q 1476 1004 1419 1032 q 1560 933 1532 976 q 1588 838 1588 889 q 1544 705 1588 771 q 1414 596 1500 639 q 1200 553 1328 553 q 937 602 1042 553 q 780 730 832 651 q 728 896 728 808 q 772 1053 728 975 q 903 1194 817 1131 q 1113 1297 989 1258 q 1396 1335 1238 1335 q 1673 1303 1540 1335 q 1928 1224 1806 1271 q 2165 1131 2051 1178 q 2383 1053 2278 1085 q 2585 1021 2488 1021 q 2631 1027 2617 1021 q 2646 1044 2646 1033 q 2626 1063 2646 1056 q 2572 1071 2607 1071 q 2388 1026 2476 1071 q 2222 908 2300 981 q 2076 747 2144 835 q 1951 574 2008 660 q 1817 344 1879 465 q 1717 103 1756 222 q 1679 -118 1679 -15 q 1697 -240 1679 -183 q 1752 -330 1715 -296 q 1844 -364 1789 -364 q 1895 -354 1874 -364 q 1935 -326 1917 -344 l 1938 -339 q 1897 -367 1919 -357 q 1844 -376 1875 -376 m 688 -331 q 385 -283 524 -331 q 145 -150 247 -236 q -13 52 43 -64 q -69 306 -69 168 q -10 571 -69 449 q 158 783 50 693 q 413 924 267 874 q 732 974 560 974 q 1047 915 910 974 q 1256 750 1183 857 l 1246 740 q 1042 903 1175 846 q 732 960 910 960 q 419 911 563 960 q 169 774 275 863 q 3 567 63 686 q -56 306 -56 447 q 0 57 -56 171 q 156 -140 56 -57 q 391 -270 256 -224 q 688 -317 526 -317 q 950 -283 829 -317 q 1160 -187 1071 -249 q 1300 -44 1250 -126 q 1350 136 1350 39 q 1282 313 1350 236 q 1094 435 1214 390 q 822 479 975 479 q 611 440 692 479 q 531 338 531 400 q 717 226 531 226 q 867 247 793 226 q 1001 303 942 267 q 1097 390 1061 340 q 1133 503 1133 440 q 1098 607 1133 564 q 1007 676 1063 650 q 889 715 951 703 q 772 726 826 726 q 547 693 647 726 q 374 602 446 660 q 264 471 303 544 q 225 317 225 397 q 277 147 225 219 q 423 33 329 74 q 643 -7 517 -7 q 840 17 746 -7 q 1028 90 935 42 q 1218 209 1121 138 q 1423 376 1315 281 q 1655 590 1531 471 q 1926 850 1779 708 q 2006 915 1953 875 q 2131 993 2058 954 q 2286 1053 2203 1032 l 2322 1046 q 2157 988 2233 1028 q 2024 907 2081 949 q 1935 838 1967 865 q 1780 676 1856 767 q 1628 490 1704 586 q 1473 304 1553 394 q 1306 143 1393 214 q 1131 33 1229 82 q 920 -46 1032 -17 q 690 -75 808 -75 q 420 -22 526 -75 q 263 121 314 32 q 211 317 211 210 q 250 476 211 400 q 363 612 289 553 q 540 706 436 671 q 774 740 644 740 q 888 728 824 740 q 1011 689 951 717 q 1109 615 1071 661 q 1147 500 1147 568 q 1110 382 1147 435 q 1009 292 1072 329 q 870 234 946 254 q 717 213 794 214 q 517 338 517 213 q 601 450 517 407 q 822 493 686 493 q 1101 447 979 493 q 1294 321 1224 401 q 1364 136 1364 240 q 1313 -49 1364 36 q 1171 -197 1263 -133 q 956 -295 1079 -260 q 688 -331 832 -331 m 1351 367 l 1360 382 l 1988 382 l 1988 367 l 1351 367 m 1435 -139 q 1450 -150 1450 -139 q 1427 -193 1450 -168 q 1375 -237 1404 -218 q 1324 -256 1346 -256 q 1310 -244 1310 -256 q 1333 -203 1310 -228 q 1385 -158 1356 -178 q 1435 -139 1415 -139 m 2524 1399 l 2581 1399 q 2529 1345 2563 1368 q 2459 1309 2496 1322 q 2392 1296 2422 1296 q 2332 1310 2353 1296 q 2311 1346 2311 1324 q 2316 1374 2311 1361 q 2328 1399 2321 1386 l 2375 1399 q 2366 1374 2369 1386 q 2363 1346 2363 1361 q 2399 1306 2363 1306 q 2467 1333 2431 1306 q 2524 1399 2503 1361 z "},"Ằ":{"ha":1949,"x_min":-69,"x_max":2732,"o":"m 1844 -376 q 1733 -342 1782 -376 q 1658 -247 1685 -308 q 1631 -108 1631 -186 q 1655 54 1631 -31 q 1718 224 1679 139 q 1802 387 1757 308 q 1891 531 1847 465 q 1968 640 1935 596 q 2085 788 2019 711 q 2228 933 2151 865 q 2389 1044 2304 1001 q 2563 1086 2474 1086 q 2644 1075 2617 1086 q 2672 1040 2672 1064 q 2649 1014 2672 1024 q 2589 1004 2626 1004 q 2387 1035 2490 1004 q 2172 1113 2283 1067 q 1939 1204 2060 1158 q 1685 1281 1818 1250 q 1407 1313 1553 1313 q 1128 1276 1251 1313 q 920 1177 1006 1239 q 790 1040 835 1115 q 746 889 746 965 q 796 733 746 807 q 947 613 846 658 q 1201 567 1049 567 q 1406 608 1324 567 q 1531 710 1489 649 q 1574 835 1574 772 q 1548 925 1574 883 q 1469 992 1522 967 q 1333 1018 1415 1018 q 1209 1001 1267 1018 q 1113 956 1151 985 l 1101 965 q 1204 1015 1143 997 q 1333 1032 1265 1032 q 1476 1004 1419 1032 q 1560 933 1532 976 q 1588 838 1588 889 q 1544 705 1588 771 q 1414 596 1500 639 q 1200 553 1328 553 q 937 602 1042 553 q 780 730 832 651 q 728 896 728 808 q 772 1053 728 975 q 903 1194 817 1131 q 1113 1297 989 1258 q 1396 1335 1238 1335 q 1673 1303 1540 1335 q 1928 1224 1806 1271 q 2165 1131 2051 1178 q 2383 1053 2278 1085 q 2585 1021 2488 1021 q 2631 1027 2617 1021 q 2646 1044 2646 1033 q 2626 1063 2646 1056 q 2572 1071 2607 1071 q 2388 1026 2476 1071 q 2222 908 2300 981 q 2076 747 2144 835 q 1951 574 2008 660 q 1817 344 1879 465 q 1717 103 1756 222 q 1679 -118 1679 -15 q 1697 -240 1679 -183 q 1752 -330 1715 -296 q 1844 -364 1789 -364 q 1895 -354 1874 -364 q 1935 -326 1917 -344 l 1938 -339 q 1897 -367 1919 -357 q 1844 -376 1875 -376 m 688 -331 q 385 -283 524 -331 q 145 -150 247 -236 q -13 52 43 -64 q -69 306 -69 168 q -10 571 -69 449 q 158 783 50 693 q 413 924 267 874 q 732 974 560 974 q 1047 915 910 974 q 1256 750 1183 857 l 1246 740 q 1042 903 1175 846 q 732 960 910 960 q 419 911 563 960 q 169 774 275 863 q 3 567 63 686 q -56 306 -56 447 q 0 57 -56 171 q 156 -140 56 -57 q 391 -270 256 -224 q 688 -317 526 -317 q 950 -283 829 -317 q 1160 -187 1071 -249 q 1300 -44 1250 -126 q 1350 136 1350 39 q 1282 313 1350 236 q 1094 435 1214 390 q 822 479 975 479 q 611 440 692 479 q 531 338 531 400 q 717 226 531 226 q 867 247 793 226 q 1001 303 942 267 q 1097 390 1061 340 q 1133 503 1133 440 q 1098 607 1133 564 q 1007 676 1063 650 q 889 715 951 703 q 772 726 826 726 q 547 693 647 726 q 374 602 446 660 q 264 471 303 544 q 225 317 225 397 q 277 147 225 219 q 423 33 329 74 q 643 -7 517 -7 q 840 17 746 -7 q 1028 90 935 42 q 1218 209 1121 138 q 1423 376 1315 281 q 1655 590 1531 471 q 1926 850 1779 708 q 2006 915 1953 875 q 2131 993 2058 954 q 2286 1053 2203 1032 l 2322 1046 q 2157 988 2233 1028 q 2024 907 2081 949 q 1935 838 1967 865 q 1780 676 1856 767 q 1628 490 1704 586 q 1473 304 1553 394 q 1306 143 1393 214 q 1131 33 1229 82 q 920 -46 1032 -17 q 690 -75 808 -75 q 420 -22 526 -75 q 263 121 314 32 q 211 317 211 210 q 250 476 211 400 q 363 612 289 553 q 540 706 436 671 q 774 740 644 740 q 888 728 824 740 q 1011 689 951 717 q 1109 615 1071 661 q 1147 500 1147 568 q 1110 382 1147 435 q 1009 292 1072 329 q 870 234 946 254 q 717 213 794 214 q 517 338 517 213 q 601 450 517 407 q 822 493 686 493 q 1101 447 979 493 q 1294 321 1224 401 q 1364 136 1364 240 q 1313 -49 1364 36 q 1171 -197 1263 -133 q 956 -295 1079 -260 q 688 -331 832 -331 m 1351 367 l 1360 382 l 1988 382 l 1988 367 l 1351 367 m 2524 1399 l 2581 1399 q 2529 1345 2563 1368 q 2459 1309 2496 1322 q 2392 1296 2422 1296 q 2332 1310 2353 1296 q 2311 1346 2311 1324 q 2316 1374 2311 1361 q 2328 1399 2321 1386 l 2375 1399 q 2366 1374 2369 1386 q 2363 1346 2363 1361 q 2399 1306 2363 1306 q 2467 1333 2431 1306 q 2524 1399 2503 1361 m 2728 1458 l 2508 1549 q 2483 1578 2483 1560 q 2510 1600 2483 1600 q 2526 1598 2517 1600 q 2544 1589 2535 1596 l 2732 1464 l 2728 1458 z "},"Ẳ":{"ha":1949,"x_min":-69,"x_max":2672,"o":"m 1844 -376 q 1733 -342 1782 -376 q 1658 -247 1685 -308 q 1631 -108 1631 -186 q 1655 54 1631 -31 q 1718 224 1679 139 q 1802 387 1757 308 q 1891 531 1847 465 q 1968 640 1935 596 q 2085 788 2019 711 q 2228 933 2151 865 q 2389 1044 2304 1001 q 2563 1086 2474 1086 q 2644 1075 2617 1086 q 2672 1040 2672 1064 q 2649 1014 2672 1024 q 2589 1004 2626 1004 q 2387 1035 2490 1004 q 2172 1113 2283 1067 q 1939 1204 2060 1158 q 1685 1281 1818 1250 q 1407 1313 1553 1313 q 1128 1276 1251 1313 q 920 1177 1006 1239 q 790 1040 835 1115 q 746 889 746 965 q 796 733 746 807 q 947 613 846 658 q 1201 567 1049 567 q 1406 608 1324 567 q 1531 710 1489 649 q 1574 835 1574 772 q 1548 925 1574 883 q 1469 992 1522 967 q 1333 1018 1415 1018 q 1209 1001 1267 1018 q 1113 956 1151 985 l 1101 965 q 1204 1015 1143 997 q 1333 1032 1265 1032 q 1476 1004 1419 1032 q 1560 933 1532 976 q 1588 838 1588 889 q 1544 705 1588 771 q 1414 596 1500 639 q 1200 553 1328 553 q 937 602 1042 553 q 780 730 832 651 q 728 896 728 808 q 772 1053 728 975 q 903 1194 817 1131 q 1113 1297 989 1258 q 1396 1335 1238 1335 q 1673 1303 1540 1335 q 1928 1224 1806 1271 q 2165 1131 2051 1178 q 2383 1053 2278 1085 q 2585 1021 2488 1021 q 2631 1027 2617 1021 q 2646 1044 2646 1033 q 2626 1063 2646 1056 q 2572 1071 2607 1071 q 2388 1026 2476 1071 q 2222 908 2300 981 q 2076 747 2144 835 q 1951 574 2008 660 q 1817 344 1879 465 q 1717 103 1756 222 q 1679 -118 1679 -15 q 1697 -240 1679 -183 q 1752 -330 1715 -296 q 1844 -364 1789 -364 q 1895 -354 1874 -364 q 1935 -326 1917 -344 l 1938 -339 q 1897 -367 1919 -357 q 1844 -376 1875 -376 m 688 -331 q 385 -283 524 -331 q 145 -150 247 -236 q -13 52 43 -64 q -69 306 -69 168 q -10 571 -69 449 q 158 783 50 693 q 413 924 267 874 q 732 974 560 974 q 1047 915 910 974 q 1256 750 1183 857 l 1246 740 q 1042 903 1175 846 q 732 960 910 960 q 419 911 563 960 q 169 774 275 863 q 3 567 63 686 q -56 306 -56 447 q 0 57 -56 171 q 156 -140 56 -57 q 391 -270 256 -224 q 688 -317 526 -317 q 950 -283 829 -317 q 1160 -187 1071 -249 q 1300 -44 1250 -126 q 1350 136 1350 39 q 1282 313 1350 236 q 1094 435 1214 390 q 822 479 975 479 q 611 440 692 479 q 531 338 531 400 q 717 226 531 226 q 867 247 793 226 q 1001 303 942 267 q 1097 390 1061 340 q 1133 503 1133 440 q 1098 607 1133 564 q 1007 676 1063 650 q 889 715 951 703 q 772 726 826 726 q 547 693 647 726 q 374 602 446 660 q 264 471 303 544 q 225 317 225 397 q 277 147 225 219 q 423 33 329 74 q 643 -7 517 -7 q 840 17 746 -7 q 1028 90 935 42 q 1218 209 1121 138 q 1423 376 1315 281 q 1655 590 1531 471 q 1926 850 1779 708 q 2006 915 1953 875 q 2131 993 2058 954 q 2286 1053 2203 1032 l 2322 1046 q 2157 988 2233 1028 q 2024 907 2081 949 q 1935 838 1967 865 q 1780 676 1856 767 q 1628 490 1704 586 q 1473 304 1553 394 q 1306 143 1393 214 q 1131 33 1229 82 q 920 -46 1032 -17 q 690 -75 808 -75 q 420 -22 526 -75 q 263 121 314 32 q 211 317 211 210 q 250 476 211 400 q 363 612 289 553 q 540 706 436 671 q 774 740 644 740 q 888 728 824 740 q 1011 689 951 717 q 1109 615 1071 661 q 1147 500 1147 568 q 1110 382 1147 435 q 1009 292 1072 329 q 870 234 946 254 q 717 213 794 214 q 517 338 517 213 q 601 450 517 407 q 822 493 686 493 q 1101 447 979 493 q 1294 321 1224 401 q 1364 136 1364 240 q 1313 -49 1364 36 q 1171 -197 1263 -133 q 956 -295 1079 -260 q 688 -331 832 -331 m 1351 367 l 1360 382 l 1988 382 l 1988 367 l 1351 367 m 2524 1399 l 2581 1399 q 2529 1345 2563 1368 q 2459 1309 2496 1322 q 2392 1296 2422 1296 q 2332 1310 2353 1296 q 2311 1346 2311 1324 q 2316 1374 2311 1361 q 2328 1399 2321 1386 l 2375 1399 q 2366 1374 2369 1386 q 2363 1346 2363 1361 q 2399 1306 2363 1306 q 2467 1333 2431 1306 q 2524 1399 2503 1361 m 2475 1521 l 2476 1532 q 2517 1549 2494 1543 q 2561 1556 2539 1556 q 2604 1525 2604 1556 q 2560 1447 2604 1490 q 2447 1376 2517 1404 l 2447 1381 q 2499 1418 2474 1393 q 2540 1469 2524 1443 q 2556 1514 2556 1496 q 2528 1538 2556 1538 q 2499 1533 2514 1538 q 2475 1521 2483 1528 z "},"Ẵ":{"ha":1949,"x_min":-69,"x_max":2722,"o":"m 1844 -376 q 1733 -342 1782 -376 q 1658 -247 1685 -308 q 1631 -108 1631 -186 q 1655 54 1631 -31 q 1718 224 1679 139 q 1802 387 1757 308 q 1891 531 1847 465 q 1968 640 1935 596 q 2085 788 2019 711 q 2228 933 2151 865 q 2389 1044 2304 1001 q 2563 1086 2474 1086 q 2644 1075 2617 1086 q 2672 1040 2672 1064 q 2649 1014 2672 1024 q 2589 1004 2626 1004 q 2387 1035 2490 1004 q 2172 1113 2283 1067 q 1939 1204 2060 1158 q 1685 1281 1818 1250 q 1407 1313 1553 1313 q 1128 1276 1251 1313 q 920 1177 1006 1239 q 790 1040 835 1115 q 746 889 746 965 q 796 733 746 807 q 947 613 846 658 q 1201 567 1049 567 q 1406 608 1324 567 q 1531 710 1489 649 q 1574 835 1574 772 q 1548 925 1574 883 q 1469 992 1522 967 q 1333 1018 1415 1018 q 1209 1001 1267 1018 q 1113 956 1151 985 l 1101 965 q 1204 1015 1143 997 q 1333 1032 1265 1032 q 1476 1004 1419 1032 q 1560 933 1532 976 q 1588 838 1588 889 q 1544 705 1588 771 q 1414 596 1500 639 q 1200 553 1328 553 q 937 602 1042 553 q 780 730 832 651 q 728 896 728 808 q 772 1053 728 975 q 903 1194 817 1131 q 1113 1297 989 1258 q 1396 1335 1238 1335 q 1673 1303 1540 1335 q 1928 1224 1806 1271 q 2165 1131 2051 1178 q 2383 1053 2278 1085 q 2585 1021 2488 1021 q 2631 1027 2617 1021 q 2646 1044 2646 1033 q 2626 1063 2646 1056 q 2572 1071 2607 1071 q 2388 1026 2476 1071 q 2222 908 2300 981 q 2076 747 2144 835 q 1951 574 2008 660 q 1817 344 1879 465 q 1717 103 1756 222 q 1679 -118 1679 -15 q 1697 -240 1679 -183 q 1752 -330 1715 -296 q 1844 -364 1789 -364 q 1895 -354 1874 -364 q 1935 -326 1917 -344 l 1938 -339 q 1897 -367 1919 -357 q 1844 -376 1875 -376 m 688 -331 q 385 -283 524 -331 q 145 -150 247 -236 q -13 52 43 -64 q -69 306 -69 168 q -10 571 -69 449 q 158 783 50 693 q 413 924 267 874 q 732 974 560 974 q 1047 915 910 974 q 1256 750 1183 857 l 1246 740 q 1042 903 1175 846 q 732 960 910 960 q 419 911 563 960 q 169 774 275 863 q 3 567 63 686 q -56 306 -56 447 q 0 57 -56 171 q 156 -140 56 -57 q 391 -270 256 -224 q 688 -317 526 -317 q 950 -283 829 -317 q 1160 -187 1071 -249 q 1300 -44 1250 -126 q 1350 136 1350 39 q 1282 313 1350 236 q 1094 435 1214 390 q 822 479 975 479 q 611 440 692 479 q 531 338 531 400 q 717 226 531 226 q 867 247 793 226 q 1001 303 942 267 q 1097 390 1061 340 q 1133 503 1133 440 q 1098 607 1133 564 q 1007 676 1063 650 q 889 715 951 703 q 772 726 826 726 q 547 693 647 726 q 374 602 446 660 q 264 471 303 544 q 225 317 225 397 q 277 147 225 219 q 423 33 329 74 q 643 -7 517 -7 q 840 17 746 -7 q 1028 90 935 42 q 1218 209 1121 138 q 1423 376 1315 281 q 1655 590 1531 471 q 1926 850 1779 708 q 2006 915 1953 875 q 2131 993 2058 954 q 2286 1053 2203 1032 l 2322 1046 q 2157 988 2233 1028 q 2024 907 2081 949 q 1935 838 1967 865 q 1780 676 1856 767 q 1628 490 1704 586 q 1473 304 1553 394 q 1306 143 1393 214 q 1131 33 1229 82 q 920 -46 1032 -17 q 690 -75 808 -75 q 420 -22 526 -75 q 263 121 314 32 q 211 317 211 210 q 250 476 211 400 q 363 612 289 553 q 540 706 436 671 q 774 740 644 740 q 888 728 824 740 q 1011 689 951 717 q 1109 615 1071 661 q 1147 500 1147 568 q 1110 382 1147 435 q 1009 292 1072 329 q 870 234 946 254 q 717 213 794 214 q 517 338 517 213 q 601 450 517 407 q 822 493 686 493 q 1101 447 979 493 q 1294 321 1224 401 q 1364 136 1364 240 q 1313 -49 1364 36 q 1171 -197 1263 -133 q 956 -295 1079 -260 q 688 -331 832 -331 m 1351 367 l 1360 382 l 1988 382 l 1988 367 l 1351 367 m 2524 1399 l 2581 1399 q 2529 1345 2563 1368 q 2459 1309 2496 1322 q 2392 1296 2422 1296 q 2332 1310 2353 1296 q 2311 1346 2311 1324 q 2316 1374 2311 1361 q 2328 1399 2321 1386 l 2375 1399 q 2366 1374 2369 1386 q 2363 1346 2363 1361 q 2399 1306 2363 1306 q 2467 1333 2431 1306 q 2524 1399 2503 1361 m 2358 1490 l 2356 1499 q 2415 1558 2375 1538 q 2497 1578 2454 1578 q 2553 1564 2529 1578 q 2602 1537 2578 1550 q 2656 1524 2626 1524 q 2692 1533 2674 1524 q 2717 1572 2710 1542 l 2722 1564 q 2683 1507 2715 1531 q 2608 1483 2651 1483 q 2551 1495 2576 1483 q 2497 1518 2525 1507 q 2432 1529 2469 1529 q 2358 1490 2382 1529 z "},"Â":{"ha":1949,"x_min":-69,"x_max":2672,"o":"m 1844 -376 q 1733 -342 1782 -376 q 1658 -247 1685 -308 q 1631 -108 1631 -186 q 1655 54 1631 -31 q 1718 224 1679 139 q 1802 387 1757 308 q 1891 531 1847 465 q 1968 640 1935 596 q 2085 788 2019 711 q 2228 933 2151 865 q 2389 1044 2304 1001 q 2563 1086 2474 1086 q 2644 1075 2617 1086 q 2672 1040 2672 1064 q 2649 1014 2672 1024 q 2589 1004 2626 1004 q 2387 1035 2490 1004 q 2172 1113 2283 1067 q 1939 1204 2060 1158 q 1685 1281 1818 1250 q 1407 1313 1553 1313 q 1128 1276 1251 1313 q 920 1177 1006 1239 q 790 1040 835 1115 q 746 889 746 965 q 796 733 746 807 q 947 613 846 658 q 1201 567 1049 567 q 1406 608 1324 567 q 1531 710 1489 649 q 1574 835 1574 772 q 1548 925 1574 883 q 1469 992 1522 967 q 1333 1018 1415 1018 q 1209 1001 1267 1018 q 1113 956 1151 985 l 1101 965 q 1204 1015 1143 997 q 1333 1032 1265 1032 q 1476 1004 1419 1032 q 1560 933 1532 976 q 1588 838 1588 889 q 1544 705 1588 771 q 1414 596 1500 639 q 1200 553 1328 553 q 937 602 1042 553 q 780 730 832 651 q 728 896 728 808 q 772 1053 728 975 q 903 1194 817 1131 q 1113 1297 989 1258 q 1396 1335 1238 1335 q 1673 1303 1540 1335 q 1928 1224 1806 1271 q 2165 1131 2051 1178 q 2383 1053 2278 1085 q 2585 1021 2488 1021 q 2631 1027 2617 1021 q 2646 1044 2646 1033 q 2626 1063 2646 1056 q 2572 1071 2607 1071 q 2388 1026 2476 1071 q 2222 908 2300 981 q 2076 747 2144 835 q 1951 574 2008 660 q 1817 344 1879 465 q 1717 103 1756 222 q 1679 -118 1679 -15 q 1697 -240 1679 -183 q 1752 -330 1715 -296 q 1844 -364 1789 -364 q 1895 -354 1874 -364 q 1935 -326 1917 -344 l 1938 -339 q 1897 -367 1919 -357 q 1844 -376 1875 -376 m 688 -331 q 385 -283 524 -331 q 145 -150 247 -236 q -13 52 43 -64 q -69 306 -69 168 q -10 571 -69 449 q 158 783 50 693 q 413 924 267 874 q 732 974 560 974 q 1047 915 910 974 q 1256 750 1183 857 l 1246 740 q 1042 903 1175 846 q 732 960 910 960 q 419 911 563 960 q 169 774 275 863 q 3 567 63 686 q -56 306 -56 447 q 0 57 -56 171 q 156 -140 56 -57 q 391 -270 256 -224 q 688 -317 526 -317 q 950 -283 829 -317 q 1160 -187 1071 -249 q 1300 -44 1250 -126 q 1350 136 1350 39 q 1282 313 1350 236 q 1094 435 1214 390 q 822 479 975 479 q 611 440 692 479 q 531 338 531 400 q 717 226 531 226 q 867 247 793 226 q 1001 303 942 267 q 1097 390 1061 340 q 1133 503 1133 440 q 1098 607 1133 564 q 1007 676 1063 650 q 889 715 951 703 q 772 726 826 726 q 547 693 647 726 q 374 602 446 660 q 264 471 303 544 q 225 317 225 397 q 277 147 225 219 q 423 33 329 74 q 643 -7 517 -7 q 840 17 746 -7 q 1028 90 935 42 q 1218 209 1121 138 q 1423 376 1315 281 q 1655 590 1531 471 q 1926 850 1779 708 q 2006 915 1953 875 q 2131 993 2058 954 q 2286 1053 2203 1032 l 2322 1046 q 2157 988 2233 1028 q 2024 907 2081 949 q 1935 838 1967 865 q 1780 676 1856 767 q 1628 490 1704 586 q 1473 304 1553 394 q 1306 143 1393 214 q 1131 33 1229 82 q 920 -46 1032 -17 q 690 -75 808 -75 q 420 -22 526 -75 q 263 121 314 32 q 211 317 211 210 q 250 476 211 400 q 363 612 289 553 q 540 706 436 671 q 774 740 644 740 q 888 728 824 740 q 1011 689 951 717 q 1109 615 1071 661 q 1147 500 1147 568 q 1110 382 1147 435 q 1009 292 1072 329 q 870 234 946 254 q 717 213 794 214 q 517 338 517 213 q 601 450 517 407 q 822 493 686 493 q 1101 447 979 493 q 1294 321 1224 401 q 1364 136 1364 240 q 1313 -49 1364 36 q 1171 -197 1263 -133 q 956 -295 1079 -260 q 688 -331 832 -331 m 1351 367 l 1360 382 l 1988 382 l 1988 367 l 1351 367 m 2261 1267 l 2260 1272 q 2324 1302 2281 1281 q 2417 1348 2368 1324 q 2506 1392 2467 1372 q 2557 1419 2544 1413 q 2569 1404 2569 1419 q 2556 1350 2563 1382 q 2549 1289 2549 1318 q 2549 1277 2549 1283 q 2550 1264 2549 1271 q 2544 1261 2550 1261 q 2538 1265 2542 1261 q 2519 1310 2528 1289 q 2504 1358 2510 1332 l 2261 1267 z "},"Ấ":{"ha":1949,"x_min":-69,"x_max":2703,"o":"m 1844 -376 q 1733 -342 1782 -376 q 1658 -247 1685 -308 q 1631 -108 1631 -186 q 1655 54 1631 -31 q 1718 224 1679 139 q 1802 387 1757 308 q 1891 531 1847 465 q 1968 640 1935 596 q 2085 788 2019 711 q 2228 933 2151 865 q 2389 1044 2304 1001 q 2563 1086 2474 1086 q 2644 1075 2617 1086 q 2672 1040 2672 1064 q 2649 1014 2672 1024 q 2589 1004 2626 1004 q 2387 1035 2490 1004 q 2172 1113 2283 1067 q 1939 1204 2060 1158 q 1685 1281 1818 1250 q 1407 1313 1553 1313 q 1128 1276 1251 1313 q 920 1177 1006 1239 q 790 1040 835 1115 q 746 889 746 965 q 796 733 746 807 q 947 613 846 658 q 1201 567 1049 567 q 1406 608 1324 567 q 1531 710 1489 649 q 1574 835 1574 772 q 1548 925 1574 883 q 1469 992 1522 967 q 1333 1018 1415 1018 q 1209 1001 1267 1018 q 1113 956 1151 985 l 1101 965 q 1204 1015 1143 997 q 1333 1032 1265 1032 q 1476 1004 1419 1032 q 1560 933 1532 976 q 1588 838 1588 889 q 1544 705 1588 771 q 1414 596 1500 639 q 1200 553 1328 553 q 937 602 1042 553 q 780 730 832 651 q 728 896 728 808 q 772 1053 728 975 q 903 1194 817 1131 q 1113 1297 989 1258 q 1396 1335 1238 1335 q 1673 1303 1540 1335 q 1928 1224 1806 1271 q 2165 1131 2051 1178 q 2383 1053 2278 1085 q 2585 1021 2488 1021 q 2631 1027 2617 1021 q 2646 1044 2646 1033 q 2626 1063 2646 1056 q 2572 1071 2607 1071 q 2388 1026 2476 1071 q 2222 908 2300 981 q 2076 747 2144 835 q 1951 574 2008 660 q 1817 344 1879 465 q 1717 103 1756 222 q 1679 -118 1679 -15 q 1697 -240 1679 -183 q 1752 -330 1715 -296 q 1844 -364 1789 -364 q 1895 -354 1874 -364 q 1935 -326 1917 -344 l 1938 -339 q 1897 -367 1919 -357 q 1844 -376 1875 -376 m 688 -331 q 385 -283 524 -331 q 145 -150 247 -236 q -13 52 43 -64 q -69 306 -69 168 q -10 571 -69 449 q 158 783 50 693 q 413 924 267 874 q 732 974 560 974 q 1047 915 910 974 q 1256 750 1183 857 l 1246 740 q 1042 903 1175 846 q 732 960 910 960 q 419 911 563 960 q 169 774 275 863 q 3 567 63 686 q -56 306 -56 447 q 0 57 -56 171 q 156 -140 56 -57 q 391 -270 256 -224 q 688 -317 526 -317 q 950 -283 829 -317 q 1160 -187 1071 -249 q 1300 -44 1250 -126 q 1350 136 1350 39 q 1282 313 1350 236 q 1094 435 1214 390 q 822 479 975 479 q 611 440 692 479 q 531 338 531 400 q 717 226 531 226 q 867 247 793 226 q 1001 303 942 267 q 1097 390 1061 340 q 1133 503 1133 440 q 1098 607 1133 564 q 1007 676 1063 650 q 889 715 951 703 q 772 726 826 726 q 547 693 647 726 q 374 602 446 660 q 264 471 303 544 q 225 317 225 397 q 277 147 225 219 q 423 33 329 74 q 643 -7 517 -7 q 840 17 746 -7 q 1028 90 935 42 q 1218 209 1121 138 q 1423 376 1315 281 q 1655 590 1531 471 q 1926 850 1779 708 q 2006 915 1953 875 q 2131 993 2058 954 q 2286 1053 2203 1032 l 2322 1046 q 2157 988 2233 1028 q 2024 907 2081 949 q 1935 838 1967 865 q 1780 676 1856 767 q 1628 490 1704 586 q 1473 304 1553 394 q 1306 143 1393 214 q 1131 33 1229 82 q 920 -46 1032 -17 q 690 -75 808 -75 q 420 -22 526 -75 q 263 121 314 32 q 211 317 211 210 q 250 476 211 400 q 363 612 289 553 q 540 706 436 671 q 774 740 644 740 q 888 728 824 740 q 1011 689 951 717 q 1109 615 1071 661 q 1147 500 1147 568 q 1110 382 1147 435 q 1009 292 1072 329 q 870 234 946 254 q 717 213 794 214 q 517 338 517 213 q 601 450 517 407 q 822 493 686 493 q 1101 447 979 493 q 1294 321 1224 401 q 1364 136 1364 240 q 1313 -49 1364 36 q 1171 -197 1263 -133 q 956 -295 1079 -260 q 688 -331 832 -331 m 1351 367 l 1360 382 l 1988 382 l 1988 367 l 1351 367 m 2261 1267 l 2260 1272 q 2324 1302 2281 1281 q 2417 1348 2368 1324 q 2506 1392 2467 1372 q 2557 1419 2544 1413 q 2569 1404 2569 1419 q 2556 1350 2563 1382 q 2549 1289 2549 1318 q 2549 1277 2549 1283 q 2550 1264 2549 1271 q 2544 1261 2550 1261 q 2538 1265 2542 1261 q 2519 1310 2528 1289 q 2504 1358 2510 1332 l 2261 1267 m 2457 1458 l 2454 1464 l 2640 1589 q 2676 1600 2658 1600 q 2703 1578 2703 1600 q 2678 1549 2703 1560 l 2457 1458 z "},"Ậ":{"ha":1949,"x_min":-69,"x_max":2672,"o":"m 1844 -376 q 1733 -342 1782 -376 q 1658 -247 1685 -308 q 1631 -108 1631 -186 q 1655 54 1631 -31 q 1718 224 1679 139 q 1802 387 1757 308 q 1891 531 1847 465 q 1968 640 1935 596 q 2085 788 2019 711 q 2228 933 2151 865 q 2389 1044 2304 1001 q 2563 1086 2474 1086 q 2644 1075 2617 1086 q 2672 1040 2672 1064 q 2649 1014 2672 1024 q 2589 1004 2626 1004 q 2387 1035 2490 1004 q 2172 1113 2283 1067 q 1939 1204 2060 1158 q 1685 1281 1818 1250 q 1407 1313 1553 1313 q 1128 1276 1251 1313 q 920 1177 1006 1239 q 790 1040 835 1115 q 746 889 746 965 q 796 733 746 807 q 947 613 846 658 q 1201 567 1049 567 q 1406 608 1324 567 q 1531 710 1489 649 q 1574 835 1574 772 q 1548 925 1574 883 q 1469 992 1522 967 q 1333 1018 1415 1018 q 1209 1001 1267 1018 q 1113 956 1151 985 l 1101 965 q 1204 1015 1143 997 q 1333 1032 1265 1032 q 1476 1004 1419 1032 q 1560 933 1532 976 q 1588 838 1588 889 q 1544 705 1588 771 q 1414 596 1500 639 q 1200 553 1328 553 q 937 602 1042 553 q 780 730 832 651 q 728 896 728 808 q 772 1053 728 975 q 903 1194 817 1131 q 1113 1297 989 1258 q 1396 1335 1238 1335 q 1673 1303 1540 1335 q 1928 1224 1806 1271 q 2165 1131 2051 1178 q 2383 1053 2278 1085 q 2585 1021 2488 1021 q 2631 1027 2617 1021 q 2646 1044 2646 1033 q 2626 1063 2646 1056 q 2572 1071 2607 1071 q 2388 1026 2476 1071 q 2222 908 2300 981 q 2076 747 2144 835 q 1951 574 2008 660 q 1817 344 1879 465 q 1717 103 1756 222 q 1679 -118 1679 -15 q 1697 -240 1679 -183 q 1752 -330 1715 -296 q 1844 -364 1789 -364 q 1895 -354 1874 -364 q 1935 -326 1917 -344 l 1938 -339 q 1897 -367 1919 -357 q 1844 -376 1875 -376 m 688 -331 q 385 -283 524 -331 q 145 -150 247 -236 q -13 52 43 -64 q -69 306 -69 168 q -10 571 -69 449 q 158 783 50 693 q 413 924 267 874 q 732 974 560 974 q 1047 915 910 974 q 1256 750 1183 857 l 1246 740 q 1042 903 1175 846 q 732 960 910 960 q 419 911 563 960 q 169 774 275 863 q 3 567 63 686 q -56 306 -56 447 q 0 57 -56 171 q 156 -140 56 -57 q 391 -270 256 -224 q 688 -317 526 -317 q 950 -283 829 -317 q 1160 -187 1071 -249 q 1300 -44 1250 -126 q 1350 136 1350 39 q 1282 313 1350 236 q 1094 435 1214 390 q 822 479 975 479 q 611 440 692 479 q 531 338 531 400 q 717 226 531 226 q 867 247 793 226 q 1001 303 942 267 q 1097 390 1061 340 q 1133 503 1133 440 q 1098 607 1133 564 q 1007 676 1063 650 q 889 715 951 703 q 772 726 826 726 q 547 693 647 726 q 374 602 446 660 q 264 471 303 544 q 225 317 225 397 q 277 147 225 219 q 423 33 329 74 q 643 -7 517 -7 q 840 17 746 -7 q 1028 90 935 42 q 1218 209 1121 138 q 1423 376 1315 281 q 1655 590 1531 471 q 1926 850 1779 708 q 2006 915 1953 875 q 2131 993 2058 954 q 2286 1053 2203 1032 l 2322 1046 q 2157 988 2233 1028 q 2024 907 2081 949 q 1935 838 1967 865 q 1780 676 1856 767 q 1628 490 1704 586 q 1473 304 1553 394 q 1306 143 1393 214 q 1131 33 1229 82 q 920 -46 1032 -17 q 690 -75 808 -75 q 420 -22 526 -75 q 263 121 314 32 q 211 317 211 210 q 250 476 211 400 q 363 612 289 553 q 540 706 436 671 q 774 740 644 740 q 888 728 824 740 q 1011 689 951 717 q 1109 615 1071 661 q 1147 500 1147 568 q 1110 382 1147 435 q 1009 292 1072 329 q 870 234 946 254 q 717 213 794 214 q 517 338 517 213 q 601 450 517 407 q 822 493 686 493 q 1101 447 979 493 q 1294 321 1224 401 q 1364 136 1364 240 q 1313 -49 1364 36 q 1171 -197 1263 -133 q 956 -295 1079 -260 q 688 -331 832 -331 m 1351 367 l 1360 382 l 1988 382 l 1988 367 l 1351 367 m 1435 -139 q 1450 -150 1450 -139 q 1427 -193 1450 -168 q 1375 -237 1404 -218 q 1324 -256 1346 -256 q 1310 -244 1310 -256 q 1333 -203 1310 -228 q 1385 -158 1356 -178 q 1435 -139 1415 -139 m 2261 1267 l 2260 1272 q 2324 1302 2281 1281 q 2417 1348 2368 1324 q 2506 1392 2467 1372 q 2557 1419 2544 1413 q 2569 1404 2569 1419 q 2556 1350 2563 1382 q 2549 1289 2549 1318 q 2549 1277 2549 1283 q 2550 1264 2549 1271 q 2544 1261 2550 1261 q 2538 1265 2542 1261 q 2519 1310 2528 1289 q 2504 1358 2510 1332 l 2261 1267 z "},"Ầ":{"ha":1949,"x_min":-69,"x_max":2765,"o":"m 1844 -376 q 1733 -342 1782 -376 q 1658 -247 1685 -308 q 1631 -108 1631 -186 q 1655 54 1631 -31 q 1718 224 1679 139 q 1802 387 1757 308 q 1891 531 1847 465 q 1968 640 1935 596 q 2085 788 2019 711 q 2228 933 2151 865 q 2389 1044 2304 1001 q 2563 1086 2474 1086 q 2644 1075 2617 1086 q 2672 1040 2672 1064 q 2649 1014 2672 1024 q 2589 1004 2626 1004 q 2387 1035 2490 1004 q 2172 1113 2283 1067 q 1939 1204 2060 1158 q 1685 1281 1818 1250 q 1407 1313 1553 1313 q 1128 1276 1251 1313 q 920 1177 1006 1239 q 790 1040 835 1115 q 746 889 746 965 q 796 733 746 807 q 947 613 846 658 q 1201 567 1049 567 q 1406 608 1324 567 q 1531 710 1489 649 q 1574 835 1574 772 q 1548 925 1574 883 q 1469 992 1522 967 q 1333 1018 1415 1018 q 1209 1001 1267 1018 q 1113 956 1151 985 l 1101 965 q 1204 1015 1143 997 q 1333 1032 1265 1032 q 1476 1004 1419 1032 q 1560 933 1532 976 q 1588 838 1588 889 q 1544 705 1588 771 q 1414 596 1500 639 q 1200 553 1328 553 q 937 602 1042 553 q 780 730 832 651 q 728 896 728 808 q 772 1053 728 975 q 903 1194 817 1131 q 1113 1297 989 1258 q 1396 1335 1238 1335 q 1673 1303 1540 1335 q 1928 1224 1806 1271 q 2165 1131 2051 1178 q 2383 1053 2278 1085 q 2585 1021 2488 1021 q 2631 1027 2617 1021 q 2646 1044 2646 1033 q 2626 1063 2646 1056 q 2572 1071 2607 1071 q 2388 1026 2476 1071 q 2222 908 2300 981 q 2076 747 2144 835 q 1951 574 2008 660 q 1817 344 1879 465 q 1717 103 1756 222 q 1679 -118 1679 -15 q 1697 -240 1679 -183 q 1752 -330 1715 -296 q 1844 -364 1789 -364 q 1895 -354 1874 -364 q 1935 -326 1917 -344 l 1938 -339 q 1897 -367 1919 -357 q 1844 -376 1875 -376 m 688 -331 q 385 -283 524 -331 q 145 -150 247 -236 q -13 52 43 -64 q -69 306 -69 168 q -10 571 -69 449 q 158 783 50 693 q 413 924 267 874 q 732 974 560 974 q 1047 915 910 974 q 1256 750 1183 857 l 1246 740 q 1042 903 1175 846 q 732 960 910 960 q 419 911 563 960 q 169 774 275 863 q 3 567 63 686 q -56 306 -56 447 q 0 57 -56 171 q 156 -140 56 -57 q 391 -270 256 -224 q 688 -317 526 -317 q 950 -283 829 -317 q 1160 -187 1071 -249 q 1300 -44 1250 -126 q 1350 136 1350 39 q 1282 313 1350 236 q 1094 435 1214 390 q 822 479 975 479 q 611 440 692 479 q 531 338 531 400 q 717 226 531 226 q 867 247 793 226 q 1001 303 942 267 q 1097 390 1061 340 q 1133 503 1133 440 q 1098 607 1133 564 q 1007 676 1063 650 q 889 715 951 703 q 772 726 826 726 q 547 693 647 726 q 374 602 446 660 q 264 471 303 544 q 225 317 225 397 q 277 147 225 219 q 423 33 329 74 q 643 -7 517 -7 q 840 17 746 -7 q 1028 90 935 42 q 1218 209 1121 138 q 1423 376 1315 281 q 1655 590 1531 471 q 1926 850 1779 708 q 2006 915 1953 875 q 2131 993 2058 954 q 2286 1053 2203 1032 l 2322 1046 q 2157 988 2233 1028 q 2024 907 2081 949 q 1935 838 1967 865 q 1780 676 1856 767 q 1628 490 1704 586 q 1473 304 1553 394 q 1306 143 1393 214 q 1131 33 1229 82 q 920 -46 1032 -17 q 690 -75 808 -75 q 420 -22 526 -75 q 263 121 314 32 q 211 317 211 210 q 250 476 211 400 q 363 612 289 553 q 540 706 436 671 q 774 740 644 740 q 888 728 824 740 q 1011 689 951 717 q 1109 615 1071 661 q 1147 500 1147 568 q 1110 382 1147 435 q 1009 292 1072 329 q 870 234 946 254 q 717 213 794 214 q 517 338 517 213 q 601 450 517 407 q 822 493 686 493 q 1101 447 979 493 q 1294 321 1224 401 q 1364 136 1364 240 q 1313 -49 1364 36 q 1171 -197 1263 -133 q 956 -295 1079 -260 q 688 -331 832 -331 m 1351 367 l 1360 382 l 1988 382 l 1988 367 l 1351 367 m 2261 1267 l 2260 1272 q 2324 1302 2281 1281 q 2417 1348 2368 1324 q 2506 1392 2467 1372 q 2557 1419 2544 1413 q 2569 1404 2569 1419 q 2556 1350 2563 1382 q 2549 1289 2549 1318 q 2549 1277 2549 1283 q 2550 1264 2549 1271 q 2544 1261 2550 1261 q 2538 1265 2542 1261 q 2519 1310 2528 1289 q 2504 1358 2510 1332 l 2261 1267 m 2761 1458 l 2542 1549 q 2517 1578 2517 1560 q 2543 1600 2517 1600 q 2559 1598 2550 1600 q 2578 1589 2568 1596 l 2765 1464 l 2761 1458 z "},"Ẩ":{"ha":1949,"x_min":-69,"x_max":2672,"o":"m 1844 -376 q 1733 -342 1782 -376 q 1658 -247 1685 -308 q 1631 -108 1631 -186 q 1655 54 1631 -31 q 1718 224 1679 139 q 1802 387 1757 308 q 1891 531 1847 465 q 1968 640 1935 596 q 2085 788 2019 711 q 2228 933 2151 865 q 2389 1044 2304 1001 q 2563 1086 2474 1086 q 2644 1075 2617 1086 q 2672 1040 2672 1064 q 2649 1014 2672 1024 q 2589 1004 2626 1004 q 2387 1035 2490 1004 q 2172 1113 2283 1067 q 1939 1204 2060 1158 q 1685 1281 1818 1250 q 1407 1313 1553 1313 q 1128 1276 1251 1313 q 920 1177 1006 1239 q 790 1040 835 1115 q 746 889 746 965 q 796 733 746 807 q 947 613 846 658 q 1201 567 1049 567 q 1406 608 1324 567 q 1531 710 1489 649 q 1574 835 1574 772 q 1548 925 1574 883 q 1469 992 1522 967 q 1333 1018 1415 1018 q 1209 1001 1267 1018 q 1113 956 1151 985 l 1101 965 q 1204 1015 1143 997 q 1333 1032 1265 1032 q 1476 1004 1419 1032 q 1560 933 1532 976 q 1588 838 1588 889 q 1544 705 1588 771 q 1414 596 1500 639 q 1200 553 1328 553 q 937 602 1042 553 q 780 730 832 651 q 728 896 728 808 q 772 1053 728 975 q 903 1194 817 1131 q 1113 1297 989 1258 q 1396 1335 1238 1335 q 1673 1303 1540 1335 q 1928 1224 1806 1271 q 2165 1131 2051 1178 q 2383 1053 2278 1085 q 2585 1021 2488 1021 q 2631 1027 2617 1021 q 2646 1044 2646 1033 q 2626 1063 2646 1056 q 2572 1071 2607 1071 q 2388 1026 2476 1071 q 2222 908 2300 981 q 2076 747 2144 835 q 1951 574 2008 660 q 1817 344 1879 465 q 1717 103 1756 222 q 1679 -118 1679 -15 q 1697 -240 1679 -183 q 1752 -330 1715 -296 q 1844 -364 1789 -364 q 1895 -354 1874 -364 q 1935 -326 1917 -344 l 1938 -339 q 1897 -367 1919 -357 q 1844 -376 1875 -376 m 688 -331 q 385 -283 524 -331 q 145 -150 247 -236 q -13 52 43 -64 q -69 306 -69 168 q -10 571 -69 449 q 158 783 50 693 q 413 924 267 874 q 732 974 560 974 q 1047 915 910 974 q 1256 750 1183 857 l 1246 740 q 1042 903 1175 846 q 732 960 910 960 q 419 911 563 960 q 169 774 275 863 q 3 567 63 686 q -56 306 -56 447 q 0 57 -56 171 q 156 -140 56 -57 q 391 -270 256 -224 q 688 -317 526 -317 q 950 -283 829 -317 q 1160 -187 1071 -249 q 1300 -44 1250 -126 q 1350 136 1350 39 q 1282 313 1350 236 q 1094 435 1214 390 q 822 479 975 479 q 611 440 692 479 q 531 338 531 400 q 717 226 531 226 q 867 247 793 226 q 1001 303 942 267 q 1097 390 1061 340 q 1133 503 1133 440 q 1098 607 1133 564 q 1007 676 1063 650 q 889 715 951 703 q 772 726 826 726 q 547 693 647 726 q 374 602 446 660 q 264 471 303 544 q 225 317 225 397 q 277 147 225 219 q 423 33 329 74 q 643 -7 517 -7 q 840 17 746 -7 q 1028 90 935 42 q 1218 209 1121 138 q 1423 376 1315 281 q 1655 590 1531 471 q 1926 850 1779 708 q 2006 915 1953 875 q 2131 993 2058 954 q 2286 1053 2203 1032 l 2322 1046 q 2157 988 2233 1028 q 2024 907 2081 949 q 1935 838 1967 865 q 1780 676 1856 767 q 1628 490 1704 586 q 1473 304 1553 394 q 1306 143 1393 214 q 1131 33 1229 82 q 920 -46 1032 -17 q 690 -75 808 -75 q 420 -22 526 -75 q 263 121 314 32 q 211 317 211 210 q 250 476 211 400 q 363 612 289 553 q 540 706 436 671 q 774 740 644 740 q 888 728 824 740 q 1011 689 951 717 q 1109 615 1071 661 q 1147 500 1147 568 q 1110 382 1147 435 q 1009 292 1072 329 q 870 234 946 254 q 717 213 794 214 q 517 338 517 213 q 601 450 517 407 q 822 493 686 493 q 1101 447 979 493 q 1294 321 1224 401 q 1364 136 1364 240 q 1313 -49 1364 36 q 1171 -197 1263 -133 q 956 -295 1079 -260 q 688 -331 832 -331 m 1351 367 l 1360 382 l 1988 382 l 1988 367 l 1351 367 m 2261 1267 l 2260 1272 q 2324 1302 2281 1281 q 2417 1348 2368 1324 q 2506 1392 2467 1372 q 2557 1419 2544 1413 q 2569 1404 2569 1419 q 2556 1350 2563 1382 q 2549 1289 2549 1318 q 2549 1277 2549 1283 q 2550 1264 2549 1271 q 2544 1261 2550 1261 q 2538 1265 2542 1261 q 2519 1310 2528 1289 q 2504 1358 2510 1332 l 2261 1267 m 2508 1521 l 2510 1532 q 2550 1549 2528 1543 q 2594 1556 2572 1556 q 2638 1525 2638 1556 q 2594 1447 2638 1490 q 2481 1376 2550 1404 l 2481 1381 q 2532 1418 2507 1393 q 2573 1469 2557 1443 q 2589 1514 2589 1496 q 2561 1538 2589 1538 q 2532 1533 2547 1538 q 2508 1521 2517 1528 z "},"Ẫ":{"ha":1949,"x_min":-69,"x_max":2756,"o":"m 1844 -376 q 1733 -342 1782 -376 q 1658 -247 1685 -308 q 1631 -108 1631 -186 q 1655 54 1631 -31 q 1718 224 1679 139 q 1802 387 1757 308 q 1891 531 1847 465 q 1968 640 1935 596 q 2085 788 2019 711 q 2228 933 2151 865 q 2389 1044 2304 1001 q 2563 1086 2474 1086 q 2644 1075 2617 1086 q 2672 1040 2672 1064 q 2649 1014 2672 1024 q 2589 1004 2626 1004 q 2387 1035 2490 1004 q 2172 1113 2283 1067 q 1939 1204 2060 1158 q 1685 1281 1818 1250 q 1407 1313 1553 1313 q 1128 1276 1251 1313 q 920 1177 1006 1239 q 790 1040 835 1115 q 746 889 746 965 q 796 733 746 807 q 947 613 846 658 q 1201 567 1049 567 q 1406 608 1324 567 q 1531 710 1489 649 q 1574 835 1574 772 q 1548 925 1574 883 q 1469 992 1522 967 q 1333 1018 1415 1018 q 1209 1001 1267 1018 q 1113 956 1151 985 l 1101 965 q 1204 1015 1143 997 q 1333 1032 1265 1032 q 1476 1004 1419 1032 q 1560 933 1532 976 q 1588 838 1588 889 q 1544 705 1588 771 q 1414 596 1500 639 q 1200 553 1328 553 q 937 602 1042 553 q 780 730 832 651 q 728 896 728 808 q 772 1053 728 975 q 903 1194 817 1131 q 1113 1297 989 1258 q 1396 1335 1238 1335 q 1673 1303 1540 1335 q 1928 1224 1806 1271 q 2165 1131 2051 1178 q 2383 1053 2278 1085 q 2585 1021 2488 1021 q 2631 1027 2617 1021 q 2646 1044 2646 1033 q 2626 1063 2646 1056 q 2572 1071 2607 1071 q 2388 1026 2476 1071 q 2222 908 2300 981 q 2076 747 2144 835 q 1951 574 2008 660 q 1817 344 1879 465 q 1717 103 1756 222 q 1679 -118 1679 -15 q 1697 -240 1679 -183 q 1752 -330 1715 -296 q 1844 -364 1789 -364 q 1895 -354 1874 -364 q 1935 -326 1917 -344 l 1938 -339 q 1897 -367 1919 -357 q 1844 -376 1875 -376 m 688 -331 q 385 -283 524 -331 q 145 -150 247 -236 q -13 52 43 -64 q -69 306 -69 168 q -10 571 -69 449 q 158 783 50 693 q 413 924 267 874 q 732 974 560 974 q 1047 915 910 974 q 1256 750 1183 857 l 1246 740 q 1042 903 1175 846 q 732 960 910 960 q 419 911 563 960 q 169 774 275 863 q 3 567 63 686 q -56 306 -56 447 q 0 57 -56 171 q 156 -140 56 -57 q 391 -270 256 -224 q 688 -317 526 -317 q 950 -283 829 -317 q 1160 -187 1071 -249 q 1300 -44 1250 -126 q 1350 136 1350 39 q 1282 313 1350 236 q 1094 435 1214 390 q 822 479 975 479 q 611 440 692 479 q 531 338 531 400 q 717 226 531 226 q 867 247 793 226 q 1001 303 942 267 q 1097 390 1061 340 q 1133 503 1133 440 q 1098 607 1133 564 q 1007 676 1063 650 q 889 715 951 703 q 772 726 826 726 q 547 693 647 726 q 374 602 446 660 q 264 471 303 544 q 225 317 225 397 q 277 147 225 219 q 423 33 329 74 q 643 -7 517 -7 q 840 17 746 -7 q 1028 90 935 42 q 1218 209 1121 138 q 1423 376 1315 281 q 1655 590 1531 471 q 1926 850 1779 708 q 2006 915 1953 875 q 2131 993 2058 954 q 2286 1053 2203 1032 l 2322 1046 q 2157 988 2233 1028 q 2024 907 2081 949 q 1935 838 1967 865 q 1780 676 1856 767 q 1628 490 1704 586 q 1473 304 1553 394 q 1306 143 1393 214 q 1131 33 1229 82 q 920 -46 1032 -17 q 690 -75 808 -75 q 420 -22 526 -75 q 263 121 314 32 q 211 317 211 210 q 250 476 211 400 q 363 612 289 553 q 540 706 436 671 q 774 740 644 740 q 888 728 824 740 q 1011 689 951 717 q 1109 615 1071 661 q 1147 500 1147 568 q 1110 382 1147 435 q 1009 292 1072 329 q 870 234 946 254 q 717 213 794 214 q 517 338 517 213 q 601 450 517 407 q 822 493 686 493 q 1101 447 979 493 q 1294 321 1224 401 q 1364 136 1364 240 q 1313 -49 1364 36 q 1171 -197 1263 -133 q 956 -295 1079 -260 q 688 -331 832 -331 m 1351 367 l 1360 382 l 1988 382 l 1988 367 l 1351 367 m 2261 1267 l 2260 1272 q 2324 1302 2281 1281 q 2417 1348 2368 1324 q 2506 1392 2467 1372 q 2557 1419 2544 1413 q 2569 1404 2569 1419 q 2556 1350 2563 1382 q 2549 1289 2549 1318 q 2549 1277 2549 1283 q 2550 1264 2549 1271 q 2544 1261 2550 1261 q 2538 1265 2542 1261 q 2519 1310 2528 1289 q 2504 1358 2510 1332 l 2261 1267 m 2392 1490 l 2389 1499 q 2448 1558 2408 1538 q 2531 1578 2488 1578 q 2587 1564 2563 1578 q 2635 1537 2611 1550 q 2689 1524 2660 1524 q 2725 1533 2707 1524 q 2750 1572 2743 1542 l 2756 1564 q 2717 1507 2749 1531 q 2642 1483 2685 1483 q 2584 1495 2610 1483 q 2531 1518 2558 1507 q 2465 1529 2503 1529 q 2392 1490 2415 1529 z "},"Ȁ":{"ha":1949,"x_min":-69,"x_max":2672,"o":"m 1844 -376 q 1733 -342 1782 -376 q 1658 -247 1685 -308 q 1631 -108 1631 -186 q 1655 54 1631 -31 q 1718 224 1679 139 q 1802 387 1757 308 q 1891 531 1847 465 q 1968 640 1935 596 q 2085 788 2019 711 q 2228 933 2151 865 q 2389 1044 2304 1001 q 2563 1086 2474 1086 q 2644 1075 2617 1086 q 2672 1040 2672 1064 q 2649 1014 2672 1024 q 2589 1004 2626 1004 q 2387 1035 2490 1004 q 2172 1113 2283 1067 q 1939 1204 2060 1158 q 1685 1281 1818 1250 q 1407 1313 1553 1313 q 1128 1276 1251 1313 q 920 1177 1006 1239 q 790 1040 835 1115 q 746 889 746 965 q 796 733 746 807 q 947 613 846 658 q 1201 567 1049 567 q 1406 608 1324 567 q 1531 710 1489 649 q 1574 835 1574 772 q 1548 925 1574 883 q 1469 992 1522 967 q 1333 1018 1415 1018 q 1209 1001 1267 1018 q 1113 956 1151 985 l 1101 965 q 1204 1015 1143 997 q 1333 1032 1265 1032 q 1476 1004 1419 1032 q 1560 933 1532 976 q 1588 838 1588 889 q 1544 705 1588 771 q 1414 596 1500 639 q 1200 553 1328 553 q 937 602 1042 553 q 780 730 832 651 q 728 896 728 808 q 772 1053 728 975 q 903 1194 817 1131 q 1113 1297 989 1258 q 1396 1335 1238 1335 q 1673 1303 1540 1335 q 1928 1224 1806 1271 q 2165 1131 2051 1178 q 2383 1053 2278 1085 q 2585 1021 2488 1021 q 2631 1027 2617 1021 q 2646 1044 2646 1033 q 2626 1063 2646 1056 q 2572 1071 2607 1071 q 2388 1026 2476 1071 q 2222 908 2300 981 q 2076 747 2144 835 q 1951 574 2008 660 q 1817 344 1879 465 q 1717 103 1756 222 q 1679 -118 1679 -15 q 1697 -240 1679 -183 q 1752 -330 1715 -296 q 1844 -364 1789 -364 q 1895 -354 1874 -364 q 1935 -326 1917 -344 l 1938 -339 q 1897 -367 1919 -357 q 1844 -376 1875 -376 m 688 -331 q 385 -283 524 -331 q 145 -150 247 -236 q -13 52 43 -64 q -69 306 -69 168 q -10 571 -69 449 q 158 783 50 693 q 413 924 267 874 q 732 974 560 974 q 1047 915 910 974 q 1256 750 1183 857 l 1246 740 q 1042 903 1175 846 q 732 960 910 960 q 419 911 563 960 q 169 774 275 863 q 3 567 63 686 q -56 306 -56 447 q 0 57 -56 171 q 156 -140 56 -57 q 391 -270 256 -224 q 688 -317 526 -317 q 950 -283 829 -317 q 1160 -187 1071 -249 q 1300 -44 1250 -126 q 1350 136 1350 39 q 1282 313 1350 236 q 1094 435 1214 390 q 822 479 975 479 q 611 440 692 479 q 531 338 531 400 q 717 226 531 226 q 867 247 793 226 q 1001 303 942 267 q 1097 390 1061 340 q 1133 503 1133 440 q 1098 607 1133 564 q 1007 676 1063 650 q 889 715 951 703 q 772 726 826 726 q 547 693 647 726 q 374 602 446 660 q 264 471 303 544 q 225 317 225 397 q 277 147 225 219 q 423 33 329 74 q 643 -7 517 -7 q 840 17 746 -7 q 1028 90 935 42 q 1218 209 1121 138 q 1423 376 1315 281 q 1655 590 1531 471 q 1926 850 1779 708 q 2006 915 1953 875 q 2131 993 2058 954 q 2286 1053 2203 1032 l 2322 1046 q 2157 988 2233 1028 q 2024 907 2081 949 q 1935 838 1967 865 q 1780 676 1856 767 q 1628 490 1704 586 q 1473 304 1553 394 q 1306 143 1393 214 q 1131 33 1229 82 q 920 -46 1032 -17 q 690 -75 808 -75 q 420 -22 526 -75 q 263 121 314 32 q 211 317 211 210 q 250 476 211 400 q 363 612 289 553 q 540 706 436 671 q 774 740 644 740 q 888 728 824 740 q 1011 689 951 717 q 1109 615 1071 661 q 1147 500 1147 568 q 1110 382 1147 435 q 1009 292 1072 329 q 870 234 946 254 q 717 213 794 214 q 517 338 517 213 q 601 450 517 407 q 822 493 686 493 q 1101 447 979 493 q 1294 321 1224 401 q 1364 136 1364 240 q 1313 -49 1364 36 q 1171 -197 1263 -133 q 956 -295 1079 -260 q 688 -331 832 -331 m 1351 367 l 1360 382 l 1988 382 l 1988 367 l 1351 367 m 2626 1267 l 2406 1357 q 2381 1386 2381 1368 q 2407 1408 2381 1408 q 2443 1397 2425 1408 l 2629 1272 l 2626 1267 m 2460 1267 l 2239 1357 q 2214 1386 2214 1368 q 2240 1408 2214 1408 q 2276 1397 2258 1408 l 2463 1272 l 2460 1267 z "},"Ä":{"ha":1949,"x_min":-69,"x_max":2672,"o":"m 1844 -376 q 1733 -342 1782 -376 q 1658 -247 1685 -308 q 1631 -108 1631 -186 q 1655 54 1631 -31 q 1718 224 1679 139 q 1802 387 1757 308 q 1891 531 1847 465 q 1968 640 1935 596 q 2085 788 2019 711 q 2228 933 2151 865 q 2389 1044 2304 1001 q 2563 1086 2474 1086 q 2644 1075 2617 1086 q 2672 1040 2672 1064 q 2649 1014 2672 1024 q 2589 1004 2626 1004 q 2387 1035 2490 1004 q 2172 1113 2283 1067 q 1939 1204 2060 1158 q 1685 1281 1818 1250 q 1407 1313 1553 1313 q 1128 1276 1251 1313 q 920 1177 1006 1239 q 790 1040 835 1115 q 746 889 746 965 q 796 733 746 807 q 947 613 846 658 q 1201 567 1049 567 q 1406 608 1324 567 q 1531 710 1489 649 q 1574 835 1574 772 q 1548 925 1574 883 q 1469 992 1522 967 q 1333 1018 1415 1018 q 1209 1001 1267 1018 q 1113 956 1151 985 l 1101 965 q 1204 1015 1143 997 q 1333 1032 1265 1032 q 1476 1004 1419 1032 q 1560 933 1532 976 q 1588 838 1588 889 q 1544 705 1588 771 q 1414 596 1500 639 q 1200 553 1328 553 q 937 602 1042 553 q 780 730 832 651 q 728 896 728 808 q 772 1053 728 975 q 903 1194 817 1131 q 1113 1297 989 1258 q 1396 1335 1238 1335 q 1673 1303 1540 1335 q 1928 1224 1806 1271 q 2165 1131 2051 1178 q 2383 1053 2278 1085 q 2585 1021 2488 1021 q 2631 1027 2617 1021 q 2646 1044 2646 1033 q 2626 1063 2646 1056 q 2572 1071 2607 1071 q 2388 1026 2476 1071 q 2222 908 2300 981 q 2076 747 2144 835 q 1951 574 2008 660 q 1817 344 1879 465 q 1717 103 1756 222 q 1679 -118 1679 -15 q 1697 -240 1679 -183 q 1752 -330 1715 -296 q 1844 -364 1789 -364 q 1895 -354 1874 -364 q 1935 -326 1917 -344 l 1938 -339 q 1897 -367 1919 -357 q 1844 -376 1875 -376 m 688 -331 q 385 -283 524 -331 q 145 -150 247 -236 q -13 52 43 -64 q -69 306 -69 168 q -10 571 -69 449 q 158 783 50 693 q 413 924 267 874 q 732 974 560 974 q 1047 915 910 974 q 1256 750 1183 857 l 1246 740 q 1042 903 1175 846 q 732 960 910 960 q 419 911 563 960 q 169 774 275 863 q 3 567 63 686 q -56 306 -56 447 q 0 57 -56 171 q 156 -140 56 -57 q 391 -270 256 -224 q 688 -317 526 -317 q 950 -283 829 -317 q 1160 -187 1071 -249 q 1300 -44 1250 -126 q 1350 136 1350 39 q 1282 313 1350 236 q 1094 435 1214 390 q 822 479 975 479 q 611 440 692 479 q 531 338 531 400 q 717 226 531 226 q 867 247 793 226 q 1001 303 942 267 q 1097 390 1061 340 q 1133 503 1133 440 q 1098 607 1133 564 q 1007 676 1063 650 q 889 715 951 703 q 772 726 826 726 q 547 693 647 726 q 374 602 446 660 q 264 471 303 544 q 225 317 225 397 q 277 147 225 219 q 423 33 329 74 q 643 -7 517 -7 q 840 17 746 -7 q 1028 90 935 42 q 1218 209 1121 138 q 1423 376 1315 281 q 1655 590 1531 471 q 1926 850 1779 708 q 2006 915 1953 875 q 2131 993 2058 954 q 2286 1053 2203 1032 l 2322 1046 q 2157 988 2233 1028 q 2024 907 2081 949 q 1935 838 1967 865 q 1780 676 1856 767 q 1628 490 1704 586 q 1473 304 1553 394 q 1306 143 1393 214 q 1131 33 1229 82 q 920 -46 1032 -17 q 690 -75 808 -75 q 420 -22 526 -75 q 263 121 314 32 q 211 317 211 210 q 250 476 211 400 q 363 612 289 553 q 540 706 436 671 q 774 740 644 740 q 888 728 824 740 q 1011 689 951 717 q 1109 615 1071 661 q 1147 500 1147 568 q 1110 382 1147 435 q 1009 292 1072 329 q 870 234 946 254 q 717 213 794 214 q 517 338 517 213 q 601 450 517 407 q 822 493 686 493 q 1101 447 979 493 q 1294 321 1224 401 q 1364 136 1364 240 q 1313 -49 1364 36 q 1171 -197 1263 -133 q 956 -295 1079 -260 q 688 -331 832 -331 m 1351 367 l 1360 382 l 1988 382 l 1988 367 l 1351 367 m 2464 1397 q 2479 1386 2479 1397 q 2456 1343 2479 1368 q 2404 1299 2433 1318 q 2353 1281 2375 1281 q 2339 1292 2339 1281 q 2362 1333 2339 1308 q 2415 1378 2385 1358 q 2464 1397 2444 1397 m 2614 1397 q 2629 1386 2629 1397 q 2606 1343 2629 1368 q 2554 1299 2583 1318 q 2503 1281 2525 1281 q 2489 1292 2489 1281 q 2512 1333 2489 1308 q 2565 1378 2535 1358 q 2614 1397 2594 1397 z "},"Ạ":{"ha":1949,"x_min":-69,"x_max":2672,"o":"m 1844 -376 q 1733 -342 1782 -376 q 1658 -247 1685 -308 q 1631 -108 1631 -186 q 1655 54 1631 -31 q 1718 224 1679 139 q 1802 387 1757 308 q 1891 531 1847 465 q 1968 640 1935 596 q 2085 788 2019 711 q 2228 933 2151 865 q 2389 1044 2304 1001 q 2563 1086 2474 1086 q 2644 1075 2617 1086 q 2672 1040 2672 1064 q 2649 1014 2672 1024 q 2589 1004 2626 1004 q 2387 1035 2490 1004 q 2172 1113 2283 1067 q 1939 1204 2060 1158 q 1685 1281 1818 1250 q 1407 1313 1553 1313 q 1128 1276 1251 1313 q 920 1177 1006 1239 q 790 1040 835 1115 q 746 889 746 965 q 796 733 746 807 q 947 613 846 658 q 1201 567 1049 567 q 1406 608 1324 567 q 1531 710 1489 649 q 1574 835 1574 772 q 1548 925 1574 883 q 1469 992 1522 967 q 1333 1018 1415 1018 q 1209 1001 1267 1018 q 1113 956 1151 985 l 1101 965 q 1204 1015 1143 997 q 1333 1032 1265 1032 q 1476 1004 1419 1032 q 1560 933 1532 976 q 1588 838 1588 889 q 1544 705 1588 771 q 1414 596 1500 639 q 1200 553 1328 553 q 937 602 1042 553 q 780 730 832 651 q 728 896 728 808 q 772 1053 728 975 q 903 1194 817 1131 q 1113 1297 989 1258 q 1396 1335 1238 1335 q 1673 1303 1540 1335 q 1928 1224 1806 1271 q 2165 1131 2051 1178 q 2383 1053 2278 1085 q 2585 1021 2488 1021 q 2631 1027 2617 1021 q 2646 1044 2646 1033 q 2626 1063 2646 1056 q 2572 1071 2607 1071 q 2388 1026 2476 1071 q 2222 908 2300 981 q 2076 747 2144 835 q 1951 574 2008 660 q 1817 344 1879 465 q 1717 103 1756 222 q 1679 -118 1679 -15 q 1697 -240 1679 -183 q 1752 -330 1715 -296 q 1844 -364 1789 -364 q 1895 -354 1874 -364 q 1935 -326 1917 -344 l 1938 -339 q 1897 -367 1919 -357 q 1844 -376 1875 -376 m 688 -331 q 385 -283 524 -331 q 145 -150 247 -236 q -13 52 43 -64 q -69 306 -69 168 q -10 571 -69 449 q 158 783 50 693 q 413 924 267 874 q 732 974 560 974 q 1047 915 910 974 q 1256 750 1183 857 l 1246 740 q 1042 903 1175 846 q 732 960 910 960 q 419 911 563 960 q 169 774 275 863 q 3 567 63 686 q -56 306 -56 447 q 0 57 -56 171 q 156 -140 56 -57 q 391 -270 256 -224 q 688 -317 526 -317 q 950 -283 829 -317 q 1160 -187 1071 -249 q 1300 -44 1250 -126 q 1350 136 1350 39 q 1282 313 1350 236 q 1094 435 1214 390 q 822 479 975 479 q 611 440 692 479 q 531 338 531 400 q 717 226 531 226 q 867 247 793 226 q 1001 303 942 267 q 1097 390 1061 340 q 1133 503 1133 440 q 1098 607 1133 564 q 1007 676 1063 650 q 889 715 951 703 q 772 726 826 726 q 547 693 647 726 q 374 602 446 660 q 264 471 303 544 q 225 317 225 397 q 277 147 225 219 q 423 33 329 74 q 643 -7 517 -7 q 840 17 746 -7 q 1028 90 935 42 q 1218 209 1121 138 q 1423 376 1315 281 q 1655 590 1531 471 q 1926 850 1779 708 q 2006 915 1953 875 q 2131 993 2058 954 q 2286 1053 2203 1032 l 2322 1046 q 2157 988 2233 1028 q 2024 907 2081 949 q 1935 838 1967 865 q 1780 676 1856 767 q 1628 490 1704 586 q 1473 304 1553 394 q 1306 143 1393 214 q 1131 33 1229 82 q 920 -46 1032 -17 q 690 -75 808 -75 q 420 -22 526 -75 q 263 121 314 32 q 211 317 211 210 q 250 476 211 400 q 363 612 289 553 q 540 706 436 671 q 774 740 644 740 q 888 728 824 740 q 1011 689 951 717 q 1109 615 1071 661 q 1147 500 1147 568 q 1110 382 1147 435 q 1009 292 1072 329 q 870 234 946 254 q 717 213 794 214 q 517 338 517 213 q 601 450 517 407 q 822 493 686 493 q 1101 447 979 493 q 1294 321 1224 401 q 1364 136 1364 240 q 1313 -49 1364 36 q 1171 -197 1263 -133 q 956 -295 1079 -260 q 688 -331 832 -331 m 1351 367 l 1360 382 l 1988 382 l 1988 367 l 1351 367 m 1435 -139 q 1450 -150 1450 -139 q 1427 -193 1450 -168 q 1375 -237 1404 -218 q 1324 -256 1346 -256 q 1310 -244 1310 -256 q 1333 -203 1310 -228 q 1385 -158 1356 -178 q 1435 -139 1415 -139 z "},"À":{"ha":1949,"x_min":-69,"x_max":2672,"o":"m 1844 -376 q 1733 -342 1782 -376 q 1658 -247 1685 -308 q 1631 -108 1631 -186 q 1655 54 1631 -31 q 1718 224 1679 139 q 1802 387 1757 308 q 1891 531 1847 465 q 1968 640 1935 596 q 2085 788 2019 711 q 2228 933 2151 865 q 2389 1044 2304 1001 q 2563 1086 2474 1086 q 2644 1075 2617 1086 q 2672 1040 2672 1064 q 2649 1014 2672 1024 q 2589 1004 2626 1004 q 2387 1035 2490 1004 q 2172 1113 2283 1067 q 1939 1204 2060 1158 q 1685 1281 1818 1250 q 1407 1313 1553 1313 q 1128 1276 1251 1313 q 920 1177 1006 1239 q 790 1040 835 1115 q 746 889 746 965 q 796 733 746 807 q 947 613 846 658 q 1201 567 1049 567 q 1406 608 1324 567 q 1531 710 1489 649 q 1574 835 1574 772 q 1548 925 1574 883 q 1469 992 1522 967 q 1333 1018 1415 1018 q 1209 1001 1267 1018 q 1113 956 1151 985 l 1101 965 q 1204 1015 1143 997 q 1333 1032 1265 1032 q 1476 1004 1419 1032 q 1560 933 1532 976 q 1588 838 1588 889 q 1544 705 1588 771 q 1414 596 1500 639 q 1200 553 1328 553 q 937 602 1042 553 q 780 730 832 651 q 728 896 728 808 q 772 1053 728 975 q 903 1194 817 1131 q 1113 1297 989 1258 q 1396 1335 1238 1335 q 1673 1303 1540 1335 q 1928 1224 1806 1271 q 2165 1131 2051 1178 q 2383 1053 2278 1085 q 2585 1021 2488 1021 q 2631 1027 2617 1021 q 2646 1044 2646 1033 q 2626 1063 2646 1056 q 2572 1071 2607 1071 q 2388 1026 2476 1071 q 2222 908 2300 981 q 2076 747 2144 835 q 1951 574 2008 660 q 1817 344 1879 465 q 1717 103 1756 222 q 1679 -118 1679 -15 q 1697 -240 1679 -183 q 1752 -330 1715 -296 q 1844 -364 1789 -364 q 1895 -354 1874 -364 q 1935 -326 1917 -344 l 1938 -339 q 1897 -367 1919 -357 q 1844 -376 1875 -376 m 688 -331 q 385 -283 524 -331 q 145 -150 247 -236 q -13 52 43 -64 q -69 306 -69 168 q -10 571 -69 449 q 158 783 50 693 q 413 924 267 874 q 732 974 560 974 q 1047 915 910 974 q 1256 750 1183 857 l 1246 740 q 1042 903 1175 846 q 732 960 910 960 q 419 911 563 960 q 169 774 275 863 q 3 567 63 686 q -56 306 -56 447 q 0 57 -56 171 q 156 -140 56 -57 q 391 -270 256 -224 q 688 -317 526 -317 q 950 -283 829 -317 q 1160 -187 1071 -249 q 1300 -44 1250 -126 q 1350 136 1350 39 q 1282 313 1350 236 q 1094 435 1214 390 q 822 479 975 479 q 611 440 692 479 q 531 338 531 400 q 717 226 531 226 q 867 247 793 226 q 1001 303 942 267 q 1097 390 1061 340 q 1133 503 1133 440 q 1098 607 1133 564 q 1007 676 1063 650 q 889 715 951 703 q 772 726 826 726 q 547 693 647 726 q 374 602 446 660 q 264 471 303 544 q 225 317 225 397 q 277 147 225 219 q 423 33 329 74 q 643 -7 517 -7 q 840 17 746 -7 q 1028 90 935 42 q 1218 209 1121 138 q 1423 376 1315 281 q 1655 590 1531 471 q 1926 850 1779 708 q 2006 915 1953 875 q 2131 993 2058 954 q 2286 1053 2203 1032 l 2322 1046 q 2157 988 2233 1028 q 2024 907 2081 949 q 1935 838 1967 865 q 1780 676 1856 767 q 1628 490 1704 586 q 1473 304 1553 394 q 1306 143 1393 214 q 1131 33 1229 82 q 920 -46 1032 -17 q 690 -75 808 -75 q 420 -22 526 -75 q 263 121 314 32 q 211 317 211 210 q 250 476 211 400 q 363 612 289 553 q 540 706 436 671 q 774 740 644 740 q 888 728 824 740 q 1011 689 951 717 q 1109 615 1071 661 q 1147 500 1147 568 q 1110 382 1147 435 q 1009 292 1072 329 q 870 234 946 254 q 717 213 794 214 q 517 338 517 213 q 601 450 517 407 q 822 493 686 493 q 1101 447 979 493 q 1294 321 1224 401 q 1364 136 1364 240 q 1313 -49 1364 36 q 1171 -197 1263 -133 q 956 -295 1079 -260 q 688 -331 832 -331 m 1351 367 l 1360 382 l 1988 382 l 1988 367 l 1351 367 m 2604 1267 l 2385 1357 q 2360 1386 2360 1368 q 2386 1408 2360 1408 q 2402 1406 2393 1408 q 2421 1397 2411 1404 l 2608 1272 l 2604 1267 z "},"Ả":{"ha":1949,"x_min":-69,"x_max":2672,"o":"m 1844 -376 q 1733 -342 1782 -376 q 1658 -247 1685 -308 q 1631 -108 1631 -186 q 1655 54 1631 -31 q 1718 224 1679 139 q 1802 387 1757 308 q 1891 531 1847 465 q 1968 640 1935 596 q 2085 788 2019 711 q 2228 933 2151 865 q 2389 1044 2304 1001 q 2563 1086 2474 1086 q 2644 1075 2617 1086 q 2672 1040 2672 1064 q 2649 1014 2672 1024 q 2589 1004 2626 1004 q 2387 1035 2490 1004 q 2172 1113 2283 1067 q 1939 1204 2060 1158 q 1685 1281 1818 1250 q 1407 1313 1553 1313 q 1128 1276 1251 1313 q 920 1177 1006 1239 q 790 1040 835 1115 q 746 889 746 965 q 796 733 746 807 q 947 613 846 658 q 1201 567 1049 567 q 1406 608 1324 567 q 1531 710 1489 649 q 1574 835 1574 772 q 1548 925 1574 883 q 1469 992 1522 967 q 1333 1018 1415 1018 q 1209 1001 1267 1018 q 1113 956 1151 985 l 1101 965 q 1204 1015 1143 997 q 1333 1032 1265 1032 q 1476 1004 1419 1032 q 1560 933 1532 976 q 1588 838 1588 889 q 1544 705 1588 771 q 1414 596 1500 639 q 1200 553 1328 553 q 937 602 1042 553 q 780 730 832 651 q 728 896 728 808 q 772 1053 728 975 q 903 1194 817 1131 q 1113 1297 989 1258 q 1396 1335 1238 1335 q 1673 1303 1540 1335 q 1928 1224 1806 1271 q 2165 1131 2051 1178 q 2383 1053 2278 1085 q 2585 1021 2488 1021 q 2631 1027 2617 1021 q 2646 1044 2646 1033 q 2626 1063 2646 1056 q 2572 1071 2607 1071 q 2388 1026 2476 1071 q 2222 908 2300 981 q 2076 747 2144 835 q 1951 574 2008 660 q 1817 344 1879 465 q 1717 103 1756 222 q 1679 -118 1679 -15 q 1697 -240 1679 -183 q 1752 -330 1715 -296 q 1844 -364 1789 -364 q 1895 -354 1874 -364 q 1935 -326 1917 -344 l 1938 -339 q 1897 -367 1919 -357 q 1844 -376 1875 -376 m 688 -331 q 385 -283 524 -331 q 145 -150 247 -236 q -13 52 43 -64 q -69 306 -69 168 q -10 571 -69 449 q 158 783 50 693 q 413 924 267 874 q 732 974 560 974 q 1047 915 910 974 q 1256 750 1183 857 l 1246 740 q 1042 903 1175 846 q 732 960 910 960 q 419 911 563 960 q 169 774 275 863 q 3 567 63 686 q -56 306 -56 447 q 0 57 -56 171 q 156 -140 56 -57 q 391 -270 256 -224 q 688 -317 526 -317 q 950 -283 829 -317 q 1160 -187 1071 -249 q 1300 -44 1250 -126 q 1350 136 1350 39 q 1282 313 1350 236 q 1094 435 1214 390 q 822 479 975 479 q 611 440 692 479 q 531 338 531 400 q 717 226 531 226 q 867 247 793 226 q 1001 303 942 267 q 1097 390 1061 340 q 1133 503 1133 440 q 1098 607 1133 564 q 1007 676 1063 650 q 889 715 951 703 q 772 726 826 726 q 547 693 647 726 q 374 602 446 660 q 264 471 303 544 q 225 317 225 397 q 277 147 225 219 q 423 33 329 74 q 643 -7 517 -7 q 840 17 746 -7 q 1028 90 935 42 q 1218 209 1121 138 q 1423 376 1315 281 q 1655 590 1531 471 q 1926 850 1779 708 q 2006 915 1953 875 q 2131 993 2058 954 q 2286 1053 2203 1032 l 2322 1046 q 2157 988 2233 1028 q 2024 907 2081 949 q 1935 838 1967 865 q 1780 676 1856 767 q 1628 490 1704 586 q 1473 304 1553 394 q 1306 143 1393 214 q 1131 33 1229 82 q 920 -46 1032 -17 q 690 -75 808 -75 q 420 -22 526 -75 q 263 121 314 32 q 211 317 211 210 q 250 476 211 400 q 363 612 289 553 q 540 706 436 671 q 774 740 644 740 q 888 728 824 740 q 1011 689 951 717 q 1109 615 1071 661 q 1147 500 1147 568 q 1110 382 1147 435 q 1009 292 1072 329 q 870 234 946 254 q 717 213 794 214 q 517 338 517 213 q 601 450 517 407 q 822 493 686 493 q 1101 447 979 493 q 1294 321 1224 401 q 1364 136 1364 240 q 1313 -49 1364 36 q 1171 -197 1263 -133 q 956 -295 1079 -260 q 688 -331 832 -331 m 1351 367 l 1360 382 l 1988 382 l 1988 367 l 1351 367 m 2351 1329 l 2353 1340 q 2393 1358 2371 1351 q 2438 1364 2415 1364 q 2481 1333 2481 1364 q 2437 1256 2481 1299 q 2324 1185 2393 1213 l 2324 1189 q 2375 1226 2350 1201 q 2416 1278 2400 1251 q 2432 1322 2432 1304 q 2404 1346 2432 1346 q 2375 1341 2390 1346 q 2351 1329 2360 1336 z "},"Ȃ":{"ha":1949,"x_min":-69,"x_max":2672,"o":"m 1844 -376 q 1733 -342 1782 -376 q 1658 -247 1685 -308 q 1631 -108 1631 -186 q 1655 54 1631 -31 q 1718 224 1679 139 q 1802 387 1757 308 q 1891 531 1847 465 q 1968 640 1935 596 q 2085 788 2019 711 q 2228 933 2151 865 q 2389 1044 2304 1001 q 2563 1086 2474 1086 q 2644 1075 2617 1086 q 2672 1040 2672 1064 q 2649 1014 2672 1024 q 2589 1004 2626 1004 q 2387 1035 2490 1004 q 2172 1113 2283 1067 q 1939 1204 2060 1158 q 1685 1281 1818 1250 q 1407 1313 1553 1313 q 1128 1276 1251 1313 q 920 1177 1006 1239 q 790 1040 835 1115 q 746 889 746 965 q 796 733 746 807 q 947 613 846 658 q 1201 567 1049 567 q 1406 608 1324 567 q 1531 710 1489 649 q 1574 835 1574 772 q 1548 925 1574 883 q 1469 992 1522 967 q 1333 1018 1415 1018 q 1209 1001 1267 1018 q 1113 956 1151 985 l 1101 965 q 1204 1015 1143 997 q 1333 1032 1265 1032 q 1476 1004 1419 1032 q 1560 933 1532 976 q 1588 838 1588 889 q 1544 705 1588 771 q 1414 596 1500 639 q 1200 553 1328 553 q 937 602 1042 553 q 780 730 832 651 q 728 896 728 808 q 772 1053 728 975 q 903 1194 817 1131 q 1113 1297 989 1258 q 1396 1335 1238 1335 q 1673 1303 1540 1335 q 1928 1224 1806 1271 q 2165 1131 2051 1178 q 2383 1053 2278 1085 q 2585 1021 2488 1021 q 2631 1027 2617 1021 q 2646 1044 2646 1033 q 2626 1063 2646 1056 q 2572 1071 2607 1071 q 2388 1026 2476 1071 q 2222 908 2300 981 q 2076 747 2144 835 q 1951 574 2008 660 q 1817 344 1879 465 q 1717 103 1756 222 q 1679 -118 1679 -15 q 1697 -240 1679 -183 q 1752 -330 1715 -296 q 1844 -364 1789 -364 q 1895 -354 1874 -364 q 1935 -326 1917 -344 l 1938 -339 q 1897 -367 1919 -357 q 1844 -376 1875 -376 m 688 -331 q 385 -283 524 -331 q 145 -150 247 -236 q -13 52 43 -64 q -69 306 -69 168 q -10 571 -69 449 q 158 783 50 693 q 413 924 267 874 q 732 974 560 974 q 1047 915 910 974 q 1256 750 1183 857 l 1246 740 q 1042 903 1175 846 q 732 960 910 960 q 419 911 563 960 q 169 774 275 863 q 3 567 63 686 q -56 306 -56 447 q 0 57 -56 171 q 156 -140 56 -57 q 391 -270 256 -224 q 688 -317 526 -317 q 950 -283 829 -317 q 1160 -187 1071 -249 q 1300 -44 1250 -126 q 1350 136 1350 39 q 1282 313 1350 236 q 1094 435 1214 390 q 822 479 975 479 q 611 440 692 479 q 531 338 531 400 q 717 226 531 226 q 867 247 793 226 q 1001 303 942 267 q 1097 390 1061 340 q 1133 503 1133 440 q 1098 607 1133 564 q 1007 676 1063 650 q 889 715 951 703 q 772 726 826 726 q 547 693 647 726 q 374 602 446 660 q 264 471 303 544 q 225 317 225 397 q 277 147 225 219 q 423 33 329 74 q 643 -7 517 -7 q 840 17 746 -7 q 1028 90 935 42 q 1218 209 1121 138 q 1423 376 1315 281 q 1655 590 1531 471 q 1926 850 1779 708 q 2006 915 1953 875 q 2131 993 2058 954 q 2286 1053 2203 1032 l 2322 1046 q 2157 988 2233 1028 q 2024 907 2081 949 q 1935 838 1967 865 q 1780 676 1856 767 q 1628 490 1704 586 q 1473 304 1553 394 q 1306 143 1393 214 q 1131 33 1229 82 q 920 -46 1032 -17 q 690 -75 808 -75 q 420 -22 526 -75 q 263 121 314 32 q 211 317 211 210 q 250 476 211 400 q 363 612 289 553 q 540 706 436 671 q 774 740 644 740 q 888 728 824 740 q 1011 689 951 717 q 1109 615 1071 661 q 1147 500 1147 568 q 1110 382 1147 435 q 1009 292 1072 329 q 870 234 946 254 q 717 213 794 214 q 517 338 517 213 q 601 450 517 407 q 822 493 686 493 q 1101 447 979 493 q 1294 321 1224 401 q 1364 136 1364 240 q 1313 -49 1364 36 q 1171 -197 1263 -133 q 956 -295 1079 -260 q 688 -331 832 -331 m 1351 367 l 1360 382 l 1988 382 l 1988 367 l 1351 367 m 2368 1296 l 2311 1296 q 2363 1349 2331 1326 q 2433 1385 2396 1372 q 2500 1399 2469 1399 q 2560 1385 2540 1399 q 2581 1349 2581 1371 q 2576 1322 2581 1335 q 2564 1296 2571 1308 l 2517 1296 q 2526 1322 2522 1308 q 2529 1349 2529 1335 q 2493 1389 2529 1389 q 2426 1361 2463 1389 q 2368 1296 2389 1333 z "},"Ā":{"ha":1949,"x_min":-69,"x_max":2672,"o":"m 1844 -376 q 1733 -342 1782 -376 q 1658 -247 1685 -308 q 1631 -108 1631 -186 q 1655 54 1631 -31 q 1718 224 1679 139 q 1802 387 1757 308 q 1891 531 1847 465 q 1968 640 1935 596 q 2085 788 2019 711 q 2228 933 2151 865 q 2389 1044 2304 1001 q 2563 1086 2474 1086 q 2644 1075 2617 1086 q 2672 1040 2672 1064 q 2649 1014 2672 1024 q 2589 1004 2626 1004 q 2387 1035 2490 1004 q 2172 1113 2283 1067 q 1939 1204 2060 1158 q 1685 1281 1818 1250 q 1407 1313 1553 1313 q 1128 1276 1251 1313 q 920 1177 1006 1239 q 790 1040 835 1115 q 746 889 746 965 q 796 733 746 807 q 947 613 846 658 q 1201 567 1049 567 q 1406 608 1324 567 q 1531 710 1489 649 q 1574 835 1574 772 q 1548 925 1574 883 q 1469 992 1522 967 q 1333 1018 1415 1018 q 1209 1001 1267 1018 q 1113 956 1151 985 l 1101 965 q 1204 1015 1143 997 q 1333 1032 1265 1032 q 1476 1004 1419 1032 q 1560 933 1532 976 q 1588 838 1588 889 q 1544 705 1588 771 q 1414 596 1500 639 q 1200 553 1328 553 q 937 602 1042 553 q 780 730 832 651 q 728 896 728 808 q 772 1053 728 975 q 903 1194 817 1131 q 1113 1297 989 1258 q 1396 1335 1238 1335 q 1673 1303 1540 1335 q 1928 1224 1806 1271 q 2165 1131 2051 1178 q 2383 1053 2278 1085 q 2585 1021 2488 1021 q 2631 1027 2617 1021 q 2646 1044 2646 1033 q 2626 1063 2646 1056 q 2572 1071 2607 1071 q 2388 1026 2476 1071 q 2222 908 2300 981 q 2076 747 2144 835 q 1951 574 2008 660 q 1817 344 1879 465 q 1717 103 1756 222 q 1679 -118 1679 -15 q 1697 -240 1679 -183 q 1752 -330 1715 -296 q 1844 -364 1789 -364 q 1895 -354 1874 -364 q 1935 -326 1917 -344 l 1938 -339 q 1897 -367 1919 -357 q 1844 -376 1875 -376 m 688 -331 q 385 -283 524 -331 q 145 -150 247 -236 q -13 52 43 -64 q -69 306 -69 168 q -10 571 -69 449 q 158 783 50 693 q 413 924 267 874 q 732 974 560 974 q 1047 915 910 974 q 1256 750 1183 857 l 1246 740 q 1042 903 1175 846 q 732 960 910 960 q 419 911 563 960 q 169 774 275 863 q 3 567 63 686 q -56 306 -56 447 q 0 57 -56 171 q 156 -140 56 -57 q 391 -270 256 -224 q 688 -317 526 -317 q 950 -283 829 -317 q 1160 -187 1071 -249 q 1300 -44 1250 -126 q 1350 136 1350 39 q 1282 313 1350 236 q 1094 435 1214 390 q 822 479 975 479 q 611 440 692 479 q 531 338 531 400 q 717 226 531 226 q 867 247 793 226 q 1001 303 942 267 q 1097 390 1061 340 q 1133 503 1133 440 q 1098 607 1133 564 q 1007 676 1063 650 q 889 715 951 703 q 772 726 826 726 q 547 693 647 726 q 374 602 446 660 q 264 471 303 544 q 225 317 225 397 q 277 147 225 219 q 423 33 329 74 q 643 -7 517 -7 q 840 17 746 -7 q 1028 90 935 42 q 1218 209 1121 138 q 1423 376 1315 281 q 1655 590 1531 471 q 1926 850 1779 708 q 2006 915 1953 875 q 2131 993 2058 954 q 2286 1053 2203 1032 l 2322 1046 q 2157 988 2233 1028 q 2024 907 2081 949 q 1935 838 1967 865 q 1780 676 1856 767 q 1628 490 1704 586 q 1473 304 1553 394 q 1306 143 1393 214 q 1131 33 1229 82 q 920 -46 1032 -17 q 690 -75 808 -75 q 420 -22 526 -75 q 263 121 314 32 q 211 317 211 210 q 250 476 211 400 q 363 612 289 553 q 540 706 436 671 q 774 740 644 740 q 888 728 824 740 q 1011 689 951 717 q 1109 615 1071 661 q 1147 500 1147 568 q 1110 382 1147 435 q 1009 292 1072 329 q 870 234 946 254 q 717 213 794 214 q 517 338 517 213 q 601 450 517 407 q 822 493 686 493 q 1101 447 979 493 q 1294 321 1224 401 q 1364 136 1364 240 q 1313 -49 1364 36 q 1171 -197 1263 -133 q 956 -295 1079 -260 q 688 -331 832 -331 m 1351 367 l 1360 382 l 1988 382 l 1988 367 l 1351 367 m 2301 1315 l 2357 1363 l 2660 1363 l 2604 1315 l 2301 1315 z "},"Ą":{"ha":1949,"x_min":-69,"x_max":2672,"o":"m 1844 -376 q 1733 -342 1782 -376 q 1658 -247 1685 -308 q 1631 -108 1631 -186 q 1655 54 1631 -31 q 1718 224 1679 139 q 1802 387 1757 308 q 1891 531 1847 465 q 1968 640 1935 596 q 2085 788 2019 711 q 2228 933 2151 865 q 2389 1044 2304 1001 q 2563 1086 2474 1086 q 2644 1075 2617 1086 q 2672 1040 2672 1064 q 2649 1014 2672 1024 q 2589 1004 2626 1004 q 2387 1035 2490 1004 q 2172 1113 2283 1067 q 1939 1204 2060 1158 q 1685 1281 1818 1250 q 1407 1313 1553 1313 q 1128 1276 1251 1313 q 920 1177 1006 1239 q 790 1040 835 1115 q 746 889 746 965 q 796 733 746 807 q 947 613 846 658 q 1201 567 1049 567 q 1406 608 1324 567 q 1531 710 1489 649 q 1574 835 1574 772 q 1548 925 1574 883 q 1469 992 1522 967 q 1333 1018 1415 1018 q 1209 1001 1267 1018 q 1113 956 1151 985 l 1101 965 q 1204 1015 1143 997 q 1333 1032 1265 1032 q 1476 1004 1419 1032 q 1560 933 1532 976 q 1588 838 1588 889 q 1544 705 1588 771 q 1414 596 1500 639 q 1200 553 1328 553 q 937 602 1042 553 q 780 730 832 651 q 728 896 728 808 q 772 1053 728 975 q 903 1194 817 1131 q 1113 1297 989 1258 q 1396 1335 1238 1335 q 1673 1303 1540 1335 q 1928 1224 1806 1271 q 2165 1131 2051 1178 q 2383 1053 2278 1085 q 2585 1021 2488 1021 q 2631 1027 2617 1021 q 2646 1044 2646 1033 q 2626 1063 2646 1056 q 2572 1071 2607 1071 q 2388 1026 2476 1071 q 2222 908 2300 981 q 2076 747 2144 835 q 1951 574 2008 660 q 1817 344 1879 465 q 1717 103 1756 222 q 1679 -118 1679 -15 q 1697 -240 1679 -183 q 1752 -330 1715 -296 q 1844 -364 1789 -364 q 1895 -354 1874 -364 q 1935 -326 1917 -344 l 1938 -339 q 1897 -367 1919 -357 q 1844 -376 1875 -376 m 688 -331 q 385 -283 524 -331 q 145 -150 247 -236 q -13 52 43 -64 q -69 306 -69 168 q -10 571 -69 449 q 158 783 50 693 q 413 924 267 874 q 732 974 560 974 q 1047 915 910 974 q 1256 750 1183 857 l 1246 740 q 1042 903 1175 846 q 732 960 910 960 q 419 911 563 960 q 169 774 275 863 q 3 567 63 686 q -56 306 -56 447 q 0 57 -56 171 q 156 -140 56 -57 q 391 -270 256 -224 q 688 -317 526 -317 q 950 -283 829 -317 q 1160 -187 1071 -249 q 1300 -44 1250 -126 q 1350 136 1350 39 q 1282 313 1350 236 q 1094 435 1214 390 q 822 479 975 479 q 611 440 692 479 q 531 338 531 400 q 717 226 531 226 q 867 247 793 226 q 1001 303 942 267 q 1097 390 1061 340 q 1133 503 1133 440 q 1098 607 1133 564 q 1007 676 1063 650 q 889 715 951 703 q 772 726 826 726 q 547 693 647 726 q 374 602 446 660 q 264 471 303 544 q 225 317 225 397 q 277 147 225 219 q 423 33 329 74 q 643 -7 517 -7 q 840 17 746 -7 q 1028 90 935 42 q 1218 209 1121 138 q 1423 376 1315 281 q 1655 590 1531 471 q 1926 850 1779 708 q 2006 915 1953 875 q 2131 993 2058 954 q 2286 1053 2203 1032 l 2322 1046 q 2157 988 2233 1028 q 2024 907 2081 949 q 1935 838 1967 865 q 1780 676 1856 767 q 1628 490 1704 586 q 1473 304 1553 394 q 1306 143 1393 214 q 1131 33 1229 82 q 920 -46 1032 -17 q 690 -75 808 -75 q 420 -22 526 -75 q 263 121 314 32 q 211 317 211 210 q 250 476 211 400 q 363 612 289 553 q 540 706 436 671 q 774 740 644 740 q 888 728 824 740 q 1011 689 951 717 q 1109 615 1071 661 q 1147 500 1147 568 q 1110 382 1147 435 q 1009 292 1072 329 q 870 234 946 254 q 717 213 794 214 q 517 338 517 213 q 601 450 517 407 q 822 493 686 493 q 1101 447 979 493 q 1294 321 1224 401 q 1364 136 1364 240 q 1313 -49 1364 36 q 1171 -197 1263 -133 q 956 -295 1079 -260 q 688 -331 832 -331 m 1351 367 l 1360 382 l 1988 382 l 1988 367 l 1351 367 m 1813 -508 l 1813 -519 q 1744 -540 1785 -540 q 1701 -504 1701 -540 q 1743 -433 1701 -469 q 1844 -374 1785 -396 l 1843 -381 q 1796 -410 1819 -389 q 1757 -454 1772 -431 q 1742 -497 1742 -478 q 1769 -524 1742 -524 q 1813 -508 1797 -524 z "},"Å":{"ha":1949,"x_min":-69,"x_max":2672,"o":"m 1844 -376 q 1733 -342 1782 -376 q 1658 -247 1685 -308 q 1631 -108 1631 -186 q 1655 54 1631 -31 q 1718 224 1679 139 q 1802 387 1757 308 q 1891 531 1847 465 q 1968 640 1935 596 q 2085 788 2019 711 q 2228 933 2151 865 q 2389 1044 2304 1001 q 2563 1086 2474 1086 q 2644 1075 2617 1086 q 2672 1040 2672 1064 q 2649 1014 2672 1024 q 2589 1004 2626 1004 q 2387 1035 2490 1004 q 2172 1113 2283 1067 q 1939 1204 2060 1158 q 1685 1281 1818 1250 q 1407 1313 1553 1313 q 1128 1276 1251 1313 q 920 1177 1006 1239 q 790 1040 835 1115 q 746 889 746 965 q 796 733 746 807 q 947 613 846 658 q 1201 567 1049 567 q 1406 608 1324 567 q 1531 710 1489 649 q 1574 835 1574 772 q 1548 925 1574 883 q 1469 992 1522 967 q 1333 1018 1415 1018 q 1209 1001 1267 1018 q 1113 956 1151 985 l 1101 965 q 1204 1015 1143 997 q 1333 1032 1265 1032 q 1476 1004 1419 1032 q 1560 933 1532 976 q 1588 838 1588 889 q 1544 705 1588 771 q 1414 596 1500 639 q 1200 553 1328 553 q 937 602 1042 553 q 780 730 832 651 q 728 896 728 808 q 772 1053 728 975 q 903 1194 817 1131 q 1113 1297 989 1258 q 1396 1335 1238 1335 q 1673 1303 1540 1335 q 1928 1224 1806 1271 q 2165 1131 2051 1178 q 2383 1053 2278 1085 q 2585 1021 2488 1021 q 2631 1027 2617 1021 q 2646 1044 2646 1033 q 2626 1063 2646 1056 q 2572 1071 2607 1071 q 2388 1026 2476 1071 q 2222 908 2300 981 q 2076 747 2144 835 q 1951 574 2008 660 q 1817 344 1879 465 q 1717 103 1756 222 q 1679 -118 1679 -15 q 1697 -240 1679 -183 q 1752 -330 1715 -296 q 1844 -364 1789 -364 q 1895 -354 1874 -364 q 1935 -326 1917 -344 l 1938 -339 q 1897 -367 1919 -357 q 1844 -376 1875 -376 m 688 -331 q 385 -283 524 -331 q 145 -150 247 -236 q -13 52 43 -64 q -69 306 -69 168 q -10 571 -69 449 q 158 783 50 693 q 413 924 267 874 q 732 974 560 974 q 1047 915 910 974 q 1256 750 1183 857 l 1246 740 q 1042 903 1175 846 q 732 960 910 960 q 419 911 563 960 q 169 774 275 863 q 3 567 63 686 q -56 306 -56 447 q 0 57 -56 171 q 156 -140 56 -57 q 391 -270 256 -224 q 688 -317 526 -317 q 950 -283 829 -317 q 1160 -187 1071 -249 q 1300 -44 1250 -126 q 1350 136 1350 39 q 1282 313 1350 236 q 1094 435 1214 390 q 822 479 975 479 q 611 440 692 479 q 531 338 531 400 q 717 226 531 226 q 867 247 793 226 q 1001 303 942 267 q 1097 390 1061 340 q 1133 503 1133 440 q 1098 607 1133 564 q 1007 676 1063 650 q 889 715 951 703 q 772 726 826 726 q 547 693 647 726 q 374 602 446 660 q 264 471 303 544 q 225 317 225 397 q 277 147 225 219 q 423 33 329 74 q 643 -7 517 -7 q 840 17 746 -7 q 1028 90 935 42 q 1218 209 1121 138 q 1423 376 1315 281 q 1655 590 1531 471 q 1926 850 1779 708 q 2006 915 1953 875 q 2131 993 2058 954 q 2286 1053 2203 1032 l 2322 1046 q 2157 988 2233 1028 q 2024 907 2081 949 q 1935 838 1967 865 q 1780 676 1856 767 q 1628 490 1704 586 q 1473 304 1553 394 q 1306 143 1393 214 q 1131 33 1229 82 q 920 -46 1032 -17 q 690 -75 808 -75 q 420 -22 526 -75 q 263 121 314 32 q 211 317 211 210 q 250 476 211 400 q 363 612 289 553 q 540 706 436 671 q 774 740 644 740 q 888 728 824 740 q 1011 689 951 717 q 1109 615 1071 661 q 1147 500 1147 568 q 1110 382 1147 435 q 1009 292 1072 329 q 870 234 946 254 q 717 213 794 214 q 517 338 517 213 q 601 450 517 407 q 822 493 686 493 q 1101 447 979 493 q 1294 321 1224 401 q 1364 136 1364 240 q 1313 -49 1364 36 q 1171 -197 1263 -133 q 956 -295 1079 -260 q 688 -331 832 -331 m 1351 367 l 1360 382 l 1988 382 l 1988 367 l 1351 367 m 2282 1292 q 2310 1356 2282 1324 q 2379 1408 2338 1388 q 2463 1429 2421 1429 q 2512 1418 2494 1429 q 2529 1388 2529 1407 q 2500 1326 2529 1358 q 2429 1272 2471 1294 q 2349 1250 2388 1250 q 2300 1262 2318 1250 q 2282 1292 2282 1274 m 2457 1421 q 2397 1401 2428 1421 q 2344 1351 2365 1381 q 2324 1292 2324 1321 q 2354 1258 2324 1258 q 2413 1279 2382 1258 q 2464 1330 2443 1300 q 2485 1386 2485 1360 q 2457 1421 2485 1421 z "},"Ǻ":{"ha":1949,"x_min":-69,"x_max":2672,"o":"m 1844 -376 q 1733 -342 1782 -376 q 1658 -247 1685 -308 q 1631 -108 1631 -186 q 1655 54 1631 -31 q 1718 224 1679 139 q 1802 387 1757 308 q 1891 531 1847 465 q 1968 640 1935 596 q 2085 788 2019 711 q 2228 933 2151 865 q 2389 1044 2304 1001 q 2563 1086 2474 1086 q 2644 1075 2617 1086 q 2672 1040 2672 1064 q 2649 1014 2672 1024 q 2589 1004 2626 1004 q 2387 1035 2490 1004 q 2172 1113 2283 1067 q 1939 1204 2060 1158 q 1685 1281 1818 1250 q 1407 1313 1553 1313 q 1128 1276 1251 1313 q 920 1177 1006 1239 q 790 1040 835 1115 q 746 889 746 965 q 796 733 746 807 q 947 613 846 658 q 1201 567 1049 567 q 1406 608 1324 567 q 1531 710 1489 649 q 1574 835 1574 772 q 1548 925 1574 883 q 1469 992 1522 967 q 1333 1018 1415 1018 q 1209 1001 1267 1018 q 1113 956 1151 985 l 1101 965 q 1204 1015 1143 997 q 1333 1032 1265 1032 q 1476 1004 1419 1032 q 1560 933 1532 976 q 1588 838 1588 889 q 1544 705 1588 771 q 1414 596 1500 639 q 1200 553 1328 553 q 937 602 1042 553 q 780 730 832 651 q 728 896 728 808 q 772 1053 728 975 q 903 1194 817 1131 q 1113 1297 989 1258 q 1396 1335 1238 1335 q 1673 1303 1540 1335 q 1928 1224 1806 1271 q 2165 1131 2051 1178 q 2383 1053 2278 1085 q 2585 1021 2488 1021 q 2631 1027 2617 1021 q 2646 1044 2646 1033 q 2626 1063 2646 1056 q 2572 1071 2607 1071 q 2388 1026 2476 1071 q 2222 908 2300 981 q 2076 747 2144 835 q 1951 574 2008 660 q 1817 344 1879 465 q 1717 103 1756 222 q 1679 -118 1679 -15 q 1697 -240 1679 -183 q 1752 -330 1715 -296 q 1844 -364 1789 -364 q 1895 -354 1874 -364 q 1935 -326 1917 -344 l 1938 -339 q 1897 -367 1919 -357 q 1844 -376 1875 -376 m 688 -331 q 385 -283 524 -331 q 145 -150 247 -236 q -13 52 43 -64 q -69 306 -69 168 q -10 571 -69 449 q 158 783 50 693 q 413 924 267 874 q 732 974 560 974 q 1047 915 910 974 q 1256 750 1183 857 l 1246 740 q 1042 903 1175 846 q 732 960 910 960 q 419 911 563 960 q 169 774 275 863 q 3 567 63 686 q -56 306 -56 447 q 0 57 -56 171 q 156 -140 56 -57 q 391 -270 256 -224 q 688 -317 526 -317 q 950 -283 829 -317 q 1160 -187 1071 -249 q 1300 -44 1250 -126 q 1350 136 1350 39 q 1282 313 1350 236 q 1094 435 1214 390 q 822 479 975 479 q 611 440 692 479 q 531 338 531 400 q 717 226 531 226 q 867 247 793 226 q 1001 303 942 267 q 1097 390 1061 340 q 1133 503 1133 440 q 1098 607 1133 564 q 1007 676 1063 650 q 889 715 951 703 q 772 726 826 726 q 547 693 647 726 q 374 602 446 660 q 264 471 303 544 q 225 317 225 397 q 277 147 225 219 q 423 33 329 74 q 643 -7 517 -7 q 840 17 746 -7 q 1028 90 935 42 q 1218 209 1121 138 q 1423 376 1315 281 q 1655 590 1531 471 q 1926 850 1779 708 q 2006 915 1953 875 q 2131 993 2058 954 q 2286 1053 2203 1032 l 2322 1046 q 2157 988 2233 1028 q 2024 907 2081 949 q 1935 838 1967 865 q 1780 676 1856 767 q 1628 490 1704 586 q 1473 304 1553 394 q 1306 143 1393 214 q 1131 33 1229 82 q 920 -46 1032 -17 q 690 -75 808 -75 q 420 -22 526 -75 q 263 121 314 32 q 211 317 211 210 q 250 476 211 400 q 363 612 289 553 q 540 706 436 671 q 774 740 644 740 q 888 728 824 740 q 1011 689 951 717 q 1109 615 1071 661 q 1147 500 1147 568 q 1110 382 1147 435 q 1009 292 1072 329 q 870 234 946 254 q 717 213 794 214 q 517 338 517 213 q 601 450 517 407 q 822 493 686 493 q 1101 447 979 493 q 1294 321 1224 401 q 1364 136 1364 240 q 1313 -49 1364 36 q 1171 -197 1263 -133 q 956 -295 1079 -260 q 688 -331 832 -331 m 1351 367 l 1360 382 l 1988 382 l 1988 367 l 1351 367 m 2282 1292 q 2310 1356 2282 1324 q 2379 1408 2338 1388 q 2463 1429 2421 1429 q 2512 1418 2494 1429 q 2529 1388 2529 1407 q 2500 1326 2529 1358 q 2429 1272 2471 1294 q 2349 1250 2388 1250 q 2300 1262 2318 1250 q 2282 1292 2282 1274 m 2457 1421 q 2397 1401 2428 1421 q 2344 1351 2365 1381 q 2324 1292 2324 1321 q 2354 1258 2324 1258 q 2413 1279 2382 1258 q 2464 1330 2443 1300 q 2485 1386 2485 1360 q 2457 1421 2485 1421 m 2340 1458 l 2338 1464 l 2524 1589 q 2560 1600 2542 1600 q 2586 1578 2586 1600 q 2561 1549 2586 1560 l 2340 1458 z "},"Ã":{"ha":1949,"x_min":-69,"x_max":2672,"o":"m 1844 -376 q 1733 -342 1782 -376 q 1658 -247 1685 -308 q 1631 -108 1631 -186 q 1655 54 1631 -31 q 1718 224 1679 139 q 1802 387 1757 308 q 1891 531 1847 465 q 1968 640 1935 596 q 2085 788 2019 711 q 2228 933 2151 865 q 2389 1044 2304 1001 q 2563 1086 2474 1086 q 2644 1075 2617 1086 q 2672 1040 2672 1064 q 2649 1014 2672 1024 q 2589 1004 2626 1004 q 2387 1035 2490 1004 q 2172 1113 2283 1067 q 1939 1204 2060 1158 q 1685 1281 1818 1250 q 1407 1313 1553 1313 q 1128 1276 1251 1313 q 920 1177 1006 1239 q 790 1040 835 1115 q 746 889 746 965 q 796 733 746 807 q 947 613 846 658 q 1201 567 1049 567 q 1406 608 1324 567 q 1531 710 1489 649 q 1574 835 1574 772 q 1548 925 1574 883 q 1469 992 1522 967 q 1333 1018 1415 1018 q 1209 1001 1267 1018 q 1113 956 1151 985 l 1101 965 q 1204 1015 1143 997 q 1333 1032 1265 1032 q 1476 1004 1419 1032 q 1560 933 1532 976 q 1588 838 1588 889 q 1544 705 1588 771 q 1414 596 1500 639 q 1200 553 1328 553 q 937 602 1042 553 q 780 730 832 651 q 728 896 728 808 q 772 1053 728 975 q 903 1194 817 1131 q 1113 1297 989 1258 q 1396 1335 1238 1335 q 1673 1303 1540 1335 q 1928 1224 1806 1271 q 2165 1131 2051 1178 q 2383 1053 2278 1085 q 2585 1021 2488 1021 q 2631 1027 2617 1021 q 2646 1044 2646 1033 q 2626 1063 2646 1056 q 2572 1071 2607 1071 q 2388 1026 2476 1071 q 2222 908 2300 981 q 2076 747 2144 835 q 1951 574 2008 660 q 1817 344 1879 465 q 1717 103 1756 222 q 1679 -118 1679 -15 q 1697 -240 1679 -183 q 1752 -330 1715 -296 q 1844 -364 1789 -364 q 1895 -354 1874 -364 q 1935 -326 1917 -344 l 1938 -339 q 1897 -367 1919 -357 q 1844 -376 1875 -376 m 688 -331 q 385 -283 524 -331 q 145 -150 247 -236 q -13 52 43 -64 q -69 306 -69 168 q -10 571 -69 449 q 158 783 50 693 q 413 924 267 874 q 732 974 560 974 q 1047 915 910 974 q 1256 750 1183 857 l 1246 740 q 1042 903 1175 846 q 732 960 910 960 q 419 911 563 960 q 169 774 275 863 q 3 567 63 686 q -56 306 -56 447 q 0 57 -56 171 q 156 -140 56 -57 q 391 -270 256 -224 q 688 -317 526 -317 q 950 -283 829 -317 q 1160 -187 1071 -249 q 1300 -44 1250 -126 q 1350 136 1350 39 q 1282 313 1350 236 q 1094 435 1214 390 q 822 479 975 479 q 611 440 692 479 q 531 338 531 400 q 717 226 531 226 q 867 247 793 226 q 1001 303 942 267 q 1097 390 1061 340 q 1133 503 1133 440 q 1098 607 1133 564 q 1007 676 1063 650 q 889 715 951 703 q 772 726 826 726 q 547 693 647 726 q 374 602 446 660 q 264 471 303 544 q 225 317 225 397 q 277 147 225 219 q 423 33 329 74 q 643 -7 517 -7 q 840 17 746 -7 q 1028 90 935 42 q 1218 209 1121 138 q 1423 376 1315 281 q 1655 590 1531 471 q 1926 850 1779 708 q 2006 915 1953 875 q 2131 993 2058 954 q 2286 1053 2203 1032 l 2322 1046 q 2157 988 2233 1028 q 2024 907 2081 949 q 1935 838 1967 865 q 1780 676 1856 767 q 1628 490 1704 586 q 1473 304 1553 394 q 1306 143 1393 214 q 1131 33 1229 82 q 920 -46 1032 -17 q 690 -75 808 -75 q 420 -22 526 -75 q 263 121 314 32 q 211 317 211 210 q 250 476 211 400 q 363 612 289 553 q 540 706 436 671 q 774 740 644 740 q 888 728 824 740 q 1011 689 951 717 q 1109 615 1071 661 q 1147 500 1147 568 q 1110 382 1147 435 q 1009 292 1072 329 q 870 234 946 254 q 717 213 794 214 q 517 338 517 213 q 601 450 517 407 q 822 493 686 493 q 1101 447 979 493 q 1294 321 1224 401 q 1364 136 1364 240 q 1313 -49 1364 36 q 1171 -197 1263 -133 q 956 -295 1079 -260 q 688 -331 832 -331 m 1351 367 l 1360 382 l 1988 382 l 1988 367 l 1351 367 m 2235 1299 l 2232 1307 q 2291 1366 2251 1346 q 2374 1386 2331 1386 q 2430 1372 2406 1386 q 2478 1345 2454 1358 q 2532 1332 2503 1332 q 2568 1341 2550 1332 q 2593 1381 2586 1350 l 2599 1372 q 2560 1315 2592 1339 q 2485 1292 2528 1292 q 2427 1303 2453 1292 q 2374 1326 2401 1315 q 2308 1338 2346 1338 q 2235 1299 2258 1338 z "},"Æ":{"ha":2669,"x_min":-69,"x_max":3079,"o":"m 688 -331 q 385 -283 524 -331 q 145 -150 247 -236 q -13 52 43 -64 q -69 306 -69 168 q -10 571 -69 449 q 158 783 50 693 q 413 924 267 874 q 732 974 560 974 q 1047 915 910 974 q 1256 750 1183 857 l 1246 740 q 1042 903 1175 846 q 732 960 910 960 q 419 911 563 960 q 169 774 275 863 q 3 567 63 686 q -56 306 -56 447 q 0 57 -56 171 q 156 -140 56 -57 q 391 -270 256 -224 q 688 -317 526 -317 q 950 -283 829 -317 q 1160 -187 1071 -249 q 1300 -44 1250 -126 q 1350 136 1350 39 q 1282 313 1350 236 q 1094 435 1214 390 q 822 479 975 479 q 611 440 692 479 q 531 338 531 400 q 717 226 531 226 q 867 247 793 226 q 1001 303 942 267 q 1097 390 1061 340 q 1133 503 1133 440 q 1098 607 1133 564 q 1007 676 1063 650 q 889 715 951 703 q 772 726 826 726 q 547 693 647 726 q 374 602 446 660 q 264 471 303 544 q 225 317 225 397 q 277 147 225 219 q 423 33 329 74 q 643 -7 517 -7 q 840 17 746 -7 q 1028 90 935 42 q 1218 209 1121 138 q 1423 376 1315 281 q 1655 590 1531 471 q 1926 850 1779 708 q 2006 915 1953 875 q 2131 993 2058 954 q 2286 1053 2203 1032 l 2322 1046 q 2157 988 2233 1028 q 2024 907 2081 949 q 1935 838 1967 865 q 1780 676 1856 767 q 1628 490 1704 586 q 1473 304 1553 394 q 1306 143 1393 214 q 1131 33 1229 82 q 920 -46 1032 -17 q 690 -75 808 -75 q 420 -22 526 -75 q 263 121 314 32 q 211 317 211 210 q 250 476 211 400 q 363 612 289 553 q 540 706 436 671 q 774 740 644 740 q 888 728 824 740 q 1011 689 951 717 q 1109 615 1071 661 q 1147 500 1147 568 q 1110 382 1147 435 q 1009 292 1072 329 q 870 234 946 254 q 717 213 794 214 q 517 338 517 213 q 601 450 517 407 q 822 493 686 493 q 1101 447 979 493 q 1294 321 1224 401 q 1364 136 1364 240 q 1313 -49 1364 36 q 1171 -197 1263 -133 q 956 -295 1079 -260 q 688 -331 832 -331 m 1351 367 l 1360 382 l 1819 382 l 1819 367 l 1351 367 m 1724 126 q 1761 308 1722 207 q 1868 517 1800 410 q 2022 726 1936 625 q 2202 908 2107 828 q 2389 1036 2297 989 q 2184 1110 2294 1064 q 1950 1202 2074 1156 q 1690 1281 1826 1249 q 1407 1313 1553 1313 q 1128 1276 1251 1313 q 920 1177 1006 1239 q 790 1040 835 1115 q 746 889 746 965 q 796 733 746 807 q 947 613 846 658 q 1201 567 1049 567 q 1406 608 1324 567 q 1531 710 1489 649 q 1574 835 1574 772 q 1548 925 1574 883 q 1469 992 1522 967 q 1333 1018 1415 1018 q 1209 1001 1267 1018 q 1113 956 1151 985 l 1101 965 q 1204 1015 1143 997 q 1333 1032 1265 1032 q 1476 1004 1419 1032 q 1560 933 1532 976 q 1588 838 1588 889 q 1544 705 1588 771 q 1414 596 1500 639 q 1200 553 1328 553 q 937 602 1042 553 q 780 730 832 651 q 728 896 728 808 q 772 1053 728 975 q 903 1194 817 1131 q 1113 1297 989 1258 q 1396 1335 1238 1335 q 1681 1300 1542 1335 q 1951 1215 1821 1265 q 2201 1115 2082 1164 q 2426 1039 2321 1067 q 2241 919 2335 997 q 2063 740 2147 840 q 1913 530 1979 639 q 1809 317 1847 421 q 1772 126 1771 213 l 1724 126 m 2090 -217 q 1822 -124 1919 -217 q 1724 129 1724 -31 q 1764 297 1724 211 q 1874 459 1804 382 q 2031 597 1943 536 q 2217 692 2119 657 q 2408 728 2314 728 q 2486 716 2457 728 q 2514 681 2515 704 q 2497 653 2514 664 q 2450 643 2479 643 q 2369 681 2400 643 q 2338 782 2338 719 q 2377 933 2338 858 q 2483 1067 2417 1007 q 2632 1164 2550 1128 q 2799 1200 2714 1200 q 2935 1155 2888 1200 q 2982 1028 2982 1110 q 2952 901 2982 963 q 2876 802 2922 840 q 2779 764 2831 764 q 2725 789 2746 764 q 2704 854 2704 814 q 2738 963 2704 908 q 2826 1064 2771 1018 q 2947 1137 2881 1110 q 3079 1164 3013 1164 l 3079 1150 q 2953 1124 3017 1150 q 2836 1056 2889 1099 q 2751 960 2783 1013 q 2718 857 2718 908 q 2735 799 2718 821 q 2779 778 2751 778 q 2869 815 2826 778 q 2941 910 2913 853 q 2969 1029 2969 968 q 2927 1144 2969 1104 q 2807 1185 2885 1185 q 2650 1149 2728 1185 q 2508 1051 2572 1113 q 2406 917 2444 990 q 2368 768 2368 843 q 2390 687 2368 717 q 2450 657 2411 657 q 2500 679 2500 657 q 2476 705 2500 694 q 2413 715 2451 715 q 2242 680 2328 715 q 2081 583 2157 644 q 1945 444 2004 522 q 1852 277 1886 365 q 1818 100 1818 189 q 1898 -119 1818 -39 q 2117 -200 1978 -200 q 2276 -171 2197 -200 q 2424 -91 2354 -142 q 2547 26 2493 -40 q 2632 167 2601 93 q 2663 317 2663 242 q 2529 460 2663 460 q 2411 426 2471 460 q 2300 336 2351 392 q 2217 215 2249 281 q 2186 85 2186 149 q 2204 15 2186 42 q 2251 -10 2222 -11 l 2251 -22 q 2194 6 2217 -24 q 2172 88 2172 36 q 2205 221 2172 153 q 2291 346 2238 289 q 2408 438 2344 403 q 2532 472 2471 472 q 2675 317 2675 472 q 2626 119 2675 214 q 2495 -52 2578 24 q 2308 -172 2413 -128 q 2090 -217 2203 -217 z "},"Ǽ":{"ha":2669,"x_min":-69,"x_max":3079,"o":"m 688 -331 q 385 -283 524 -331 q 145 -150 247 -236 q -13 52 43 -64 q -69 306 -69 168 q -10 571 -69 449 q 158 783 50 693 q 413 924 267 874 q 732 974 560 974 q 1047 915 910 974 q 1256 750 1183 857 l 1246 740 q 1042 903 1175 846 q 732 960 910 960 q 419 911 563 960 q 169 774 275 863 q 3 567 63 686 q -56 306 -56 447 q 0 57 -56 171 q 156 -140 56 -57 q 391 -270 256 -224 q 688 -317 526 -317 q 950 -283 829 -317 q 1160 -187 1071 -249 q 1300 -44 1250 -126 q 1350 136 1350 39 q 1282 313 1350 236 q 1094 435 1214 390 q 822 479 975 479 q 611 440 692 479 q 531 338 531 400 q 717 226 531 226 q 867 247 793 226 q 1001 303 942 267 q 1097 390 1061 340 q 1133 503 1133 440 q 1098 607 1133 564 q 1007 676 1063 650 q 889 715 951 703 q 772 726 826 726 q 547 693 647 726 q 374 602 446 660 q 264 471 303 544 q 225 317 225 397 q 277 147 225 219 q 423 33 329 74 q 643 -7 517 -7 q 840 17 746 -7 q 1028 90 935 42 q 1218 209 1121 138 q 1423 376 1315 281 q 1655 590 1531 471 q 1926 850 1779 708 q 2006 915 1953 875 q 2131 993 2058 954 q 2286 1053 2203 1032 l 2322 1046 q 2157 988 2233 1028 q 2024 907 2081 949 q 1935 838 1967 865 q 1780 676 1856 767 q 1628 490 1704 586 q 1473 304 1553 394 q 1306 143 1393 214 q 1131 33 1229 82 q 920 -46 1032 -17 q 690 -75 808 -75 q 420 -22 526 -75 q 263 121 314 32 q 211 317 211 210 q 250 476 211 400 q 363 612 289 553 q 540 706 436 671 q 774 740 644 740 q 888 728 824 740 q 1011 689 951 717 q 1109 615 1071 661 q 1147 500 1147 568 q 1110 382 1147 435 q 1009 292 1072 329 q 870 234 946 254 q 717 213 794 214 q 517 338 517 213 q 601 450 517 407 q 822 493 686 493 q 1101 447 979 493 q 1294 321 1224 401 q 1364 136 1364 240 q 1313 -49 1364 36 q 1171 -197 1263 -133 q 956 -295 1079 -260 q 688 -331 832 -331 m 1351 367 l 1360 382 l 1819 382 l 1819 367 l 1351 367 m 1724 126 q 1761 308 1722 207 q 1868 517 1800 410 q 2022 726 1936 625 q 2202 908 2107 828 q 2389 1036 2297 989 q 2184 1110 2294 1064 q 1950 1202 2074 1156 q 1690 1281 1826 1249 q 1407 1313 1553 1313 q 1128 1276 1251 1313 q 920 1177 1006 1239 q 790 1040 835 1115 q 746 889 746 965 q 796 733 746 807 q 947 613 846 658 q 1201 567 1049 567 q 1406 608 1324 567 q 1531 710 1489 649 q 1574 835 1574 772 q 1548 925 1574 883 q 1469 992 1522 967 q 1333 1018 1415 1018 q 1209 1001 1267 1018 q 1113 956 1151 985 l 1101 965 q 1204 1015 1143 997 q 1333 1032 1265 1032 q 1476 1004 1419 1032 q 1560 933 1532 976 q 1588 838 1588 889 q 1544 705 1588 771 q 1414 596 1500 639 q 1200 553 1328 553 q 937 602 1042 553 q 780 730 832 651 q 728 896 728 808 q 772 1053 728 975 q 903 1194 817 1131 q 1113 1297 989 1258 q 1396 1335 1238 1335 q 1681 1300 1542 1335 q 1951 1215 1821 1265 q 2201 1115 2082 1164 q 2426 1039 2321 1067 q 2241 919 2335 997 q 2063 740 2147 840 q 1913 530 1979 639 q 1809 317 1847 421 q 1772 126 1771 213 l 1724 126 m 2090 -217 q 1822 -124 1919 -217 q 1724 129 1724 -31 q 1764 297 1724 211 q 1874 459 1804 382 q 2031 597 1943 536 q 2217 692 2119 657 q 2408 728 2314 728 q 2486 716 2457 728 q 2514 681 2515 704 q 2497 653 2514 664 q 2450 643 2479 643 q 2369 681 2400 643 q 2338 782 2338 719 q 2377 933 2338 858 q 2483 1067 2417 1007 q 2632 1164 2550 1128 q 2799 1200 2714 1200 q 2935 1155 2888 1200 q 2982 1028 2982 1110 q 2952 901 2982 963 q 2876 802 2922 840 q 2779 764 2831 764 q 2725 789 2746 764 q 2704 854 2704 814 q 2738 963 2704 908 q 2826 1064 2771 1018 q 2947 1137 2881 1110 q 3079 1164 3013 1164 l 3079 1150 q 2953 1124 3017 1150 q 2836 1056 2889 1099 q 2751 960 2783 1013 q 2718 857 2718 908 q 2735 799 2718 821 q 2779 778 2751 778 q 2869 815 2826 778 q 2941 910 2913 853 q 2969 1029 2969 968 q 2927 1144 2969 1104 q 2807 1185 2885 1185 q 2650 1149 2728 1185 q 2508 1051 2572 1113 q 2406 917 2444 990 q 2368 768 2368 843 q 2390 687 2368 717 q 2450 657 2411 657 q 2500 679 2500 657 q 2476 705 2500 694 q 2413 715 2451 715 q 2242 680 2328 715 q 2081 583 2157 644 q 1945 444 2004 522 q 1852 277 1886 365 q 1818 100 1818 189 q 1898 -119 1818 -39 q 2117 -200 1978 -200 q 2276 -171 2197 -200 q 2424 -91 2354 -142 q 2547 26 2493 -40 q 2632 167 2601 93 q 2663 317 2663 242 q 2529 460 2663 460 q 2411 426 2471 460 q 2300 336 2351 392 q 2217 215 2249 281 q 2186 85 2186 149 q 2204 15 2186 42 q 2251 -10 2222 -11 l 2251 -22 q 2194 6 2217 -24 q 2172 88 2172 36 q 2205 221 2172 153 q 2291 346 2238 289 q 2408 438 2344 403 q 2532 472 2471 472 q 2675 317 2675 472 q 2626 119 2675 214 q 2495 -52 2578 24 q 2308 -172 2413 -128 q 2090 -217 2203 -217 m 2300 1267 l 2297 1272 l 2483 1397 q 2519 1408 2501 1408 q 2546 1386 2546 1408 q 2521 1357 2546 1368 l 2300 1267 z "},"B":{"ha":1578,"x_min":-58,"x_max":1789,"o":"m 906 750 q 714 712 801 749 q 574 616 626 675 q 522 486 522 557 q 562 372 522 426 q 683 284 601 318 q 889 250 764 250 q 1112 283 1014 250 q 1278 371 1210 315 q 1382 499 1346 426 q 1418 650 1418 571 q 1374 806 1418 739 q 1253 916 1329 872 q 1081 982 1178 960 q 878 1004 983 1004 q 558 963 703 1004 q 302 851 414 922 q 113 685 190 779 q -3 483 36 590 q -43 264 -43 375 q 5 30 -43 144 q 150 -178 53 -85 q 397 -326 247 -271 q 749 -382 546 -382 q 909 -369 824 -382 q 1081 -331 994 -357 q 1246 -267 1168 -306 q 1383 -174 1324 -228 l 1394 -185 q 1258 -277 1336 -237 q 1093 -343 1181 -317 q 917 -383 1006 -369 q 749 -396 829 -396 q 391 -339 543 -396 q 139 -186 239 -282 q -10 27 39 -90 q -58 267 -58 144 q -17 490 -58 381 q 102 694 24 599 q 294 863 181 790 q 555 976 408 935 q 878 1018 701 1018 q 1083 995 985 1018 q 1261 926 1182 972 q 1386 812 1340 881 q 1432 650 1432 743 q 1395 494 1432 569 q 1288 361 1358 419 q 1117 269 1217 303 q 889 235 1017 235 q 673 271 757 235 q 549 365 589 307 q 508 486 508 422 q 563 624 508 561 q 707 724 617 686 q 906 764 797 763 q 1026 745 981 764 q 1091 699 1071 726 q 1111 643 1111 671 q 1074 562 1111 604 q 963 491 1036 519 q 781 463 890 463 q 631 486 704 463 q 497 553 557 510 q 403 660 438 597 q 368 799 368 722 q 421 987 368 893 q 574 1158 474 1081 q 815 1283 674 1236 q 1133 1331 957 1331 q 1417 1288 1294 1331 q 1622 1172 1539 1244 q 1747 1011 1704 1100 q 1789 829 1789 922 q 1763 694 1789 761 q 1687 573 1738 628 q 1562 485 1636 518 q 1390 451 1488 451 q 1317 464 1346 451 q 1289 497 1289 476 q 1305 526 1289 515 q 1347 536 1321 536 q 1433 509 1397 536 q 1486 440 1468 482 q 1504 349 1504 397 q 1465 214 1504 283 q 1347 84 1425 144 q 1157 -13 1269 24 q 899 -50 1044 -50 q 725 -29 806 -50 q 574 19 644 -8 q 443 68 504 47 q 328 89 382 89 q 264 77 286 89 q 242 42 242 65 q 385 -19 242 -19 q 604 18 507 -19 q 789 126 701 56 q 971 297 876 197 q 1180 522 1065 397 q 1447 789 1294 646 q 1544 875 1496 838 q 1639 939 1592 913 l 1710 939 q 1586 878 1657 922 q 1458 778 1515 833 q 1319 610 1383 701 q 1194 425 1256 519 q 1067 244 1133 331 q 923 90 1001 158 q 745 -19 844 21 q 517 -60 646 -60 q 356 -49 419 -60 q 260 -17 292 -39 q 228 39 228 4 q 252 88 228 71 q 322 104 276 104 q 442 83 378 104 q 578 34 506 61 q 731 -15 650 7 q 899 -36 811 -36 q 1127 4 1022 -36 q 1310 108 1232 44 q 1431 242 1388 171 q 1474 374 1474 313 q 1462 442 1474 408 q 1424 499 1450 476 q 1354 522 1399 522 q 1319 515 1333 522 q 1306 494 1306 507 q 1328 472 1306 481 q 1390 464 1351 464 q 1555 496 1483 464 q 1675 581 1626 528 q 1749 699 1724 635 q 1774 829 1774 764 q 1733 1006 1774 919 q 1610 1163 1692 1093 q 1409 1275 1529 1233 q 1131 1317 1289 1317 q 829 1272 967 1317 q 592 1151 692 1226 q 437 985 492 1076 q 382 801 382 894 q 416 665 382 725 q 507 563 450 604 q 635 499 564 521 q 781 476 706 476 q 956 503 886 476 q 1062 568 1026 529 q 1097 643 1097 607 q 1078 692 1097 668 q 1018 733 1060 717 q 906 750 976 750 z "},"C":{"ha":1343,"x_min":-225,"x_max":1492,"o":"m 643 -203 q 476 -170 543 -203 q 369 -82 408 -137 q 313 41 331 -26 q 296 179 296 108 q 342 415 296 300 q 467 635 388 531 q 649 826 547 739 q 861 976 750 913 q 1083 1076 972 1040 q 1289 1111 1193 1111 q 1385 1092 1339 1111 q 1462 1030 1432 1072 q 1492 915 1492 988 q 1458 735 1492 828 q 1365 556 1424 643 q 1234 391 1307 468 q 1083 255 1161 314 q 931 163 1004 196 q 797 129 857 129 q 708 167 746 129 q 669 282 669 206 q 697 416 669 346 q 768 554 724 486 q 867 683 813 622 q 978 790 922 743 q 1085 863 1035 836 q 1171 890 1136 890 q 1228 871 1207 890 q 1249 819 1249 851 q 1207 690 1249 760 q 1091 549 1165 621 q 919 413 1017 478 q 708 295 821 347 q 474 213 594 243 q 236 182 354 182 q 58 203 142 182 q -89 263 -25 224 q -189 356 -153 301 q -225 476 -225 410 q -176 635 -225 563 q -38 759 -128 707 q 174 840 51 811 q 443 868 296 868 q 747 828 600 868 q 1019 721 893 789 q 1239 567 1144 653 l 1229 554 q 1013 708 1138 640 q 742 814 888 775 q 443 853 597 853 q 188 826 307 853 q -20 749 69 799 q -160 631 -110 700 q -210 475 -210 561 q -149 329 -210 392 q 15 232 -87 267 q 239 197 117 197 q 470 227 353 197 q 699 308 588 257 q 907 422 810 358 q 1077 556 1004 486 q 1192 693 1150 625 q 1233 819 1233 761 q 1217 862 1233 847 q 1172 876 1200 876 q 1092 850 1140 876 q 988 778 1043 824 q 878 675 932 733 q 781 551 825 617 q 710 417 736 485 q 683 289 683 350 q 715 183 683 221 q 797 144 746 144 q 928 178 856 144 q 1076 269 1000 211 q 1224 403 1153 326 q 1353 565 1296 479 q 1443 741 1410 651 q 1476 915 1476 831 q 1451 1021 1476 982 q 1386 1076 1426 1060 q 1299 1092 1346 1092 q 1122 1051 1221 1092 q 919 940 1024 1011 q 716 774 814 869 q 540 569 618 679 q 415 340 461 458 q 369 106 369 222 q 400 -56 369 10 q 492 -154 431 -121 q 643 -187 553 -187 q 801 -165 722 -187 q 960 -99 881 -143 q 1121 13 1040 -54 q 1283 169 1201 81 l 1343 235 l 1357 235 l 1296 167 q 1132 7 1214 76 q 967 -109 1050 -62 q 803 -179 885 -156 q 643 -203 722 -203 z "},"Ć":{"ha":1343,"x_min":-225,"x_max":1624,"o":"m 643 -203 q 476 -170 543 -203 q 369 -82 408 -137 q 313 41 331 -26 q 296 179 296 108 q 342 415 296 300 q 467 635 388 531 q 649 826 547 739 q 861 976 750 913 q 1083 1076 972 1040 q 1289 1111 1193 1111 q 1385 1092 1339 1111 q 1462 1030 1432 1072 q 1492 915 1492 988 q 1458 735 1492 828 q 1365 556 1424 643 q 1234 391 1307 468 q 1083 255 1161 314 q 931 163 1004 196 q 797 129 857 129 q 708 167 746 129 q 669 282 669 206 q 697 416 669 346 q 768 554 724 486 q 867 683 813 622 q 978 790 922 743 q 1085 863 1035 836 q 1171 890 1136 890 q 1228 871 1207 890 q 1249 819 1249 851 q 1207 690 1249 760 q 1091 549 1165 621 q 919 413 1017 478 q 708 295 821 347 q 474 213 594 243 q 236 182 354 182 q 58 203 142 182 q -89 263 -25 224 q -189 356 -153 301 q -225 476 -225 410 q -176 635 -225 563 q -38 759 -128 707 q 174 840 51 811 q 443 868 296 868 q 747 828 600 868 q 1019 721 893 789 q 1239 567 1144 653 l 1229 554 q 1013 708 1138 640 q 742 814 888 775 q 443 853 597 853 q 188 826 307 853 q -20 749 69 799 q -160 631 -110 700 q -210 475 -210 561 q -149 329 -210 392 q 15 232 -87 267 q 239 197 117 197 q 470 227 353 197 q 699 308 588 257 q 907 422 810 358 q 1077 556 1004 486 q 1192 693 1150 625 q 1233 819 1233 761 q 1217 862 1233 847 q 1172 876 1200 876 q 1092 850 1140 876 q 988 778 1043 824 q 878 675 932 733 q 781 551 825 617 q 710 417 736 485 q 683 289 683 350 q 715 183 683 221 q 797 144 746 144 q 928 178 856 144 q 1076 269 1000 211 q 1224 403 1153 326 q 1353 565 1296 479 q 1443 741 1410 651 q 1476 915 1476 831 q 1451 1021 1476 982 q 1386 1076 1426 1060 q 1299 1092 1346 1092 q 1122 1051 1221 1092 q 919 940 1024 1011 q 716 774 814 869 q 540 569 618 679 q 415 340 461 458 q 369 106 369 222 q 400 -56 369 10 q 492 -154 431 -121 q 643 -187 553 -187 q 801 -165 722 -187 q 960 -99 881 -143 q 1121 13 1040 -54 q 1283 169 1201 81 l 1343 235 l 1357 235 l 1296 167 q 1132 7 1214 76 q 967 -109 1050 -62 q 803 -179 885 -156 q 643 -203 722 -203 m 1378 1267 l 1375 1272 l 1561 1397 q 1597 1408 1579 1408 q 1624 1386 1624 1408 q 1599 1357 1624 1368 l 1378 1267 z "},"Č":{"ha":1343,"x_min":-225,"x_max":1772,"o":"m 643 -203 q 476 -170 543 -203 q 369 -82 408 -137 q 313 41 331 -26 q 296 179 296 108 q 342 415 296 300 q 467 635 388 531 q 649 826 547 739 q 861 976 750 913 q 1083 1076 972 1040 q 1289 1111 1193 1111 q 1385 1092 1339 1111 q 1462 1030 1432 1072 q 1492 915 1492 988 q 1458 735 1492 828 q 1365 556 1424 643 q 1234 391 1307 468 q 1083 255 1161 314 q 931 163 1004 196 q 797 129 857 129 q 708 167 746 129 q 669 282 669 206 q 697 416 669 346 q 768 554 724 486 q 867 683 813 622 q 978 790 922 743 q 1085 863 1035 836 q 1171 890 1136 890 q 1228 871 1207 890 q 1249 819 1249 851 q 1207 690 1249 760 q 1091 549 1165 621 q 919 413 1017 478 q 708 295 821 347 q 474 213 594 243 q 236 182 354 182 q 58 203 142 182 q -89 263 -25 224 q -189 356 -153 301 q -225 476 -225 410 q -176 635 -225 563 q -38 759 -128 707 q 174 840 51 811 q 443 868 296 868 q 747 828 600 868 q 1019 721 893 789 q 1239 567 1144 653 l 1229 554 q 1013 708 1138 640 q 742 814 888 775 q 443 853 597 853 q 188 826 307 853 q -20 749 69 799 q -160 631 -110 700 q -210 475 -210 561 q -149 329 -210 392 q 15 232 -87 267 q 239 197 117 197 q 470 227 353 197 q 699 308 588 257 q 907 422 810 358 q 1077 556 1004 486 q 1192 693 1150 625 q 1233 819 1233 761 q 1217 862 1233 847 q 1172 876 1200 876 q 1092 850 1140 876 q 988 778 1043 824 q 878 675 932 733 q 781 551 825 617 q 710 417 736 485 q 683 289 683 350 q 715 183 683 221 q 797 144 746 144 q 928 178 856 144 q 1076 269 1000 211 q 1224 403 1153 326 q 1353 565 1296 479 q 1443 741 1410 651 q 1476 915 1476 831 q 1451 1021 1476 982 q 1386 1076 1426 1060 q 1299 1092 1346 1092 q 1122 1051 1221 1092 q 919 940 1024 1011 q 716 774 814 869 q 540 569 618 679 q 415 340 461 458 q 369 106 369 222 q 400 -56 369 10 q 492 -154 431 -121 q 643 -187 553 -187 q 801 -165 722 -187 q 960 -99 881 -143 q 1121 13 1040 -54 q 1283 169 1201 81 l 1343 235 l 1357 235 l 1296 167 q 1132 7 1214 76 q 967 -109 1050 -62 q 803 -179 885 -156 q 643 -203 722 -203 m 1771 1414 l 1772 1408 q 1708 1378 1751 1400 q 1615 1333 1664 1357 q 1526 1288 1565 1308 q 1475 1261 1488 1268 q 1463 1276 1463 1261 q 1476 1331 1469 1300 q 1483 1392 1483 1363 q 1483 1405 1483 1399 q 1482 1417 1483 1411 q 1488 1419 1482 1419 q 1494 1415 1490 1419 q 1514 1370 1506 1392 q 1528 1322 1522 1349 l 1771 1414 z "},"Ç":{"ha":1343,"x_min":-225,"x_max":1492,"o":"m 643 -203 q 476 -170 543 -203 q 369 -82 408 -137 q 313 41 331 -26 q 296 179 296 108 q 342 415 296 300 q 467 635 388 531 q 649 826 547 739 q 861 976 750 913 q 1083 1076 972 1040 q 1289 1111 1193 1111 q 1385 1092 1339 1111 q 1462 1030 1432 1072 q 1492 915 1492 988 q 1458 735 1492 828 q 1365 556 1424 643 q 1234 391 1307 468 q 1083 255 1161 314 q 931 163 1004 196 q 797 129 857 129 q 708 167 746 129 q 669 282 669 206 q 697 416 669 346 q 768 554 724 486 q 867 683 813 622 q 978 790 922 743 q 1085 863 1035 836 q 1171 890 1136 890 q 1228 871 1207 890 q 1249 819 1249 851 q 1207 690 1249 760 q 1091 549 1165 621 q 919 413 1017 478 q 708 295 821 347 q 474 213 594 243 q 236 182 354 182 q 58 203 142 182 q -89 263 -25 224 q -189 356 -153 301 q -225 476 -225 410 q -176 635 -225 563 q -38 759 -128 707 q 174 840 51 811 q 443 868 296 868 q 747 828 600 868 q 1019 721 893 789 q 1239 567 1144 653 l 1229 554 q 1013 708 1138 640 q 742 814 888 775 q 443 853 597 853 q 188 826 307 853 q -20 749 69 799 q -160 631 -110 700 q -210 475 -210 561 q -149 329 -210 392 q 15 232 -87 267 q 239 197 117 197 q 470 227 353 197 q 699 308 588 257 q 907 422 810 358 q 1077 556 1004 486 q 1192 693 1150 625 q 1233 819 1233 761 q 1217 862 1233 847 q 1172 876 1200 876 q 1092 850 1140 876 q 988 778 1043 824 q 878 675 932 733 q 781 551 825 617 q 710 417 736 485 q 683 289 683 350 q 715 183 683 221 q 797 144 746 144 q 928 178 856 144 q 1076 269 1000 211 q 1224 403 1153 326 q 1353 565 1296 479 q 1443 741 1410 651 q 1476 915 1476 831 q 1451 1021 1476 982 q 1386 1076 1426 1060 q 1299 1092 1346 1092 q 1122 1051 1221 1092 q 919 940 1024 1011 q 716 774 814 869 q 540 569 618 679 q 415 340 461 458 q 369 106 369 222 q 400 -56 369 10 q 492 -154 431 -121 q 643 -187 553 -187 q 801 -165 722 -187 q 960 -99 881 -143 q 1121 13 1040 -54 q 1283 169 1201 81 l 1343 235 l 1357 235 l 1296 167 q 1132 7 1214 76 q 967 -109 1050 -62 q 803 -179 885 -156 q 643 -203 722 -203 m 633 -197 l 640 -197 q 628 -228 628 -210 q 643 -265 628 -250 q 658 -303 658 -279 q 627 -358 658 -329 q 535 -387 596 -387 q 499 -381 517 -387 q 472 -357 482 -374 l 478 -353 q 496 -368 486 -362 q 525 -374 506 -374 q 581 -356 558 -374 q 611 -307 604 -337 q 615 -274 615 -293 q 614 -244 614 -254 q 619 -217 614 -228 q 633 -197 624 -207 z "},"Ḉ":{"ha":1343,"x_min":-225,"x_max":1624,"o":"m 643 -203 q 476 -170 543 -203 q 369 -82 408 -137 q 313 41 331 -26 q 296 179 296 108 q 342 415 296 300 q 467 635 388 531 q 649 826 547 739 q 861 976 750 913 q 1083 1076 972 1040 q 1289 1111 1193 1111 q 1385 1092 1339 1111 q 1462 1030 1432 1072 q 1492 915 1492 988 q 1458 735 1492 828 q 1365 556 1424 643 q 1234 391 1307 468 q 1083 255 1161 314 q 931 163 1004 196 q 797 129 857 129 q 708 167 746 129 q 669 282 669 206 q 697 416 669 346 q 768 554 724 486 q 867 683 813 622 q 978 790 922 743 q 1085 863 1035 836 q 1171 890 1136 890 q 1228 871 1207 890 q 1249 819 1249 851 q 1207 690 1249 760 q 1091 549 1165 621 q 919 413 1017 478 q 708 295 821 347 q 474 213 594 243 q 236 182 354 182 q 58 203 142 182 q -89 263 -25 224 q -189 356 -153 301 q -225 476 -225 410 q -176 635 -225 563 q -38 759 -128 707 q 174 840 51 811 q 443 868 296 868 q 747 828 600 868 q 1019 721 893 789 q 1239 567 1144 653 l 1229 554 q 1013 708 1138 640 q 742 814 888 775 q 443 853 597 853 q 188 826 307 853 q -20 749 69 799 q -160 631 -110 700 q -210 475 -210 561 q -149 329 -210 392 q 15 232 -87 267 q 239 197 117 197 q 470 227 353 197 q 699 308 588 257 q 907 422 810 358 q 1077 556 1004 486 q 1192 693 1150 625 q 1233 819 1233 761 q 1217 862 1233 847 q 1172 876 1200 876 q 1092 850 1140 876 q 988 778 1043 824 q 878 675 932 733 q 781 551 825 617 q 710 417 736 485 q 683 289 683 350 q 715 183 683 221 q 797 144 746 144 q 928 178 856 144 q 1076 269 1000 211 q 1224 403 1153 326 q 1353 565 1296 479 q 1443 741 1410 651 q 1476 915 1476 831 q 1451 1021 1476 982 q 1386 1076 1426 1060 q 1299 1092 1346 1092 q 1122 1051 1221 1092 q 919 940 1024 1011 q 716 774 814 869 q 540 569 618 679 q 415 340 461 458 q 369 106 369 222 q 400 -56 369 10 q 492 -154 431 -121 q 643 -187 553 -187 q 801 -165 722 -187 q 960 -99 881 -143 q 1121 13 1040 -54 q 1283 169 1201 81 l 1343 235 l 1357 235 l 1296 167 q 1132 7 1214 76 q 967 -109 1050 -62 q 803 -179 885 -156 q 643 -203 722 -203 m 633 -197 l 640 -197 q 628 -228 628 -210 q 643 -265 628 -250 q 658 -303 658 -279 q 627 -358 658 -329 q 535 -387 596 -387 q 499 -381 517 -387 q 472 -357 482 -374 l 478 -353 q 496 -368 486 -362 q 525 -374 506 -374 q 581 -356 558 -374 q 611 -307 604 -337 q 615 -274 615 -293 q 614 -244 614 -254 q 619 -217 614 -228 q 633 -197 624 -207 m 1378 1267 l 1375 1272 l 1561 1397 q 1597 1408 1579 1408 q 1624 1386 1624 1408 q 1599 1357 1624 1368 l 1378 1267 z "},"Ĉ":{"ha":1343,"x_min":-225,"x_max":1647,"o":"m 643 -203 q 476 -170 543 -203 q 369 -82 408 -137 q 313 41 331 -26 q 296 179 296 108 q 342 415 296 300 q 467 635 388 531 q 649 826 547 739 q 861 976 750 913 q 1083 1076 972 1040 q 1289 1111 1193 1111 q 1385 1092 1339 1111 q 1462 1030 1432 1072 q 1492 915 1492 988 q 1458 735 1492 828 q 1365 556 1424 643 q 1234 391 1307 468 q 1083 255 1161 314 q 931 163 1004 196 q 797 129 857 129 q 708 167 746 129 q 669 282 669 206 q 697 416 669 346 q 768 554 724 486 q 867 683 813 622 q 978 790 922 743 q 1085 863 1035 836 q 1171 890 1136 890 q 1228 871 1207 890 q 1249 819 1249 851 q 1207 690 1249 760 q 1091 549 1165 621 q 919 413 1017 478 q 708 295 821 347 q 474 213 594 243 q 236 182 354 182 q 58 203 142 182 q -89 263 -25 224 q -189 356 -153 301 q -225 476 -225 410 q -176 635 -225 563 q -38 759 -128 707 q 174 840 51 811 q 443 868 296 868 q 747 828 600 868 q 1019 721 893 789 q 1239 567 1144 653 l 1229 554 q 1013 708 1138 640 q 742 814 888 775 q 443 853 597 853 q 188 826 307 853 q -20 749 69 799 q -160 631 -110 700 q -210 475 -210 561 q -149 329 -210 392 q 15 232 -87 267 q 239 197 117 197 q 470 227 353 197 q 699 308 588 257 q 907 422 810 358 q 1077 556 1004 486 q 1192 693 1150 625 q 1233 819 1233 761 q 1217 862 1233 847 q 1172 876 1200 876 q 1092 850 1140 876 q 988 778 1043 824 q 878 675 932 733 q 781 551 825 617 q 710 417 736 485 q 683 289 683 350 q 715 183 683 221 q 797 144 746 144 q 928 178 856 144 q 1076 269 1000 211 q 1224 403 1153 326 q 1353 565 1296 479 q 1443 741 1410 651 q 1476 915 1476 831 q 1451 1021 1476 982 q 1386 1076 1426 1060 q 1299 1092 1346 1092 q 1122 1051 1221 1092 q 919 940 1024 1011 q 716 774 814 869 q 540 569 618 679 q 415 340 461 458 q 369 106 369 222 q 400 -56 369 10 q 492 -154 431 -121 q 643 -187 553 -187 q 801 -165 722 -187 q 960 -99 881 -143 q 1121 13 1040 -54 q 1283 169 1201 81 l 1343 235 l 1357 235 l 1296 167 q 1132 7 1214 76 q 967 -109 1050 -62 q 803 -179 885 -156 q 643 -203 722 -203 m 1339 1267 l 1338 1272 q 1402 1302 1358 1281 q 1495 1348 1446 1324 q 1583 1392 1544 1372 q 1635 1419 1622 1413 q 1647 1404 1647 1419 q 1633 1350 1640 1382 q 1626 1289 1626 1318 q 1626 1277 1626 1283 q 1628 1264 1626 1271 q 1622 1261 1628 1261 q 1615 1265 1619 1261 q 1597 1310 1606 1289 q 1582 1358 1588 1332 l 1339 1267 z "},"Ċ":{"ha":1343,"x_min":-225,"x_max":1633,"o":"m 643 -203 q 476 -170 543 -203 q 369 -82 408 -137 q 313 41 331 -26 q 296 179 296 108 q 342 415 296 300 q 467 635 388 531 q 649 826 547 739 q 861 976 750 913 q 1083 1076 972 1040 q 1289 1111 1193 1111 q 1385 1092 1339 1111 q 1462 1030 1432 1072 q 1492 915 1492 988 q 1458 735 1492 828 q 1365 556 1424 643 q 1234 391 1307 468 q 1083 255 1161 314 q 931 163 1004 196 q 797 129 857 129 q 708 167 746 129 q 669 282 669 206 q 697 416 669 346 q 768 554 724 486 q 867 683 813 622 q 978 790 922 743 q 1085 863 1035 836 q 1171 890 1136 890 q 1228 871 1207 890 q 1249 819 1249 851 q 1207 690 1249 760 q 1091 549 1165 621 q 919 413 1017 478 q 708 295 821 347 q 474 213 594 243 q 236 182 354 182 q 58 203 142 182 q -89 263 -25 224 q -189 356 -153 301 q -225 476 -225 410 q -176 635 -225 563 q -38 759 -128 707 q 174 840 51 811 q 443 868 296 868 q 747 828 600 868 q 1019 721 893 789 q 1239 567 1144 653 l 1229 554 q 1013 708 1138 640 q 742 814 888 775 q 443 853 597 853 q 188 826 307 853 q -20 749 69 799 q -160 631 -110 700 q -210 475 -210 561 q -149 329 -210 392 q 15 232 -87 267 q 239 197 117 197 q 470 227 353 197 q 699 308 588 257 q 907 422 810 358 q 1077 556 1004 486 q 1192 693 1150 625 q 1233 819 1233 761 q 1217 862 1233 847 q 1172 876 1200 876 q 1092 850 1140 876 q 988 778 1043 824 q 878 675 932 733 q 781 551 825 617 q 710 417 736 485 q 683 289 683 350 q 715 183 683 221 q 797 144 746 144 q 928 178 856 144 q 1076 269 1000 211 q 1224 403 1153 326 q 1353 565 1296 479 q 1443 741 1410 651 q 1476 915 1476 831 q 1451 1021 1476 982 q 1386 1076 1426 1060 q 1299 1092 1346 1092 q 1122 1051 1221 1092 q 919 940 1024 1011 q 716 774 814 869 q 540 569 618 679 q 415 340 461 458 q 369 106 369 222 q 400 -56 369 10 q 492 -154 431 -121 q 643 -187 553 -187 q 801 -165 722 -187 q 960 -99 881 -143 q 1121 13 1040 -54 q 1283 169 1201 81 l 1343 235 l 1357 235 l 1296 167 q 1132 7 1214 76 q 967 -109 1050 -62 q 803 -179 885 -156 q 643 -203 722 -203 m 1618 1397 q 1633 1386 1633 1397 q 1610 1343 1633 1368 q 1558 1299 1588 1318 q 1507 1281 1529 1281 q 1493 1292 1493 1281 q 1516 1333 1493 1308 q 1569 1378 1539 1358 q 1618 1397 1599 1397 z "},"D":{"ha":1493,"x_min":-154,"x_max":1669,"o":"m 888 794 q 1072 755 1003 794 q 1140 649 1140 715 q 1096 551 1140 601 q 963 467 1051 501 q 743 432 875 432 q 473 485 586 432 q 299 626 360 538 q 239 819 239 714 q 283 992 239 908 q 410 1142 326 1075 q 615 1248 494 1208 q 890 1288 736 1288 q 1160 1246 1036 1288 q 1375 1128 1283 1204 q 1517 951 1467 1053 q 1568 728 1568 849 q 1509 440 1568 576 q 1343 198 1450 304 q 1092 31 1236 92 q 775 -31 947 -31 q 625 -12 692 -31 q 501 29 558 6 q 393 71 444 53 q 288 89 342 89 q 224 77 247 89 q 201 42 201 65 q 343 -19 201 -19 q 581 33 458 -19 q 813 179 703 85 q 970 328 890 246 q 1128 495 1050 410 q 1278 657 1207 581 q 1407 789 1349 733 q 1503 875 1456 838 q 1599 939 1551 913 l 1669 939 q 1546 878 1617 922 q 1418 778 1475 833 q 1296 628 1356 714 q 1175 447 1236 542 q 1044 263 1114 353 q 891 101 974 174 q 706 -16 808 28 q 476 -60 604 -60 q 315 -49 379 -60 q 219 -17 251 -39 q 188 39 188 4 q 212 88 188 71 q 282 104 236 104 q 392 86 336 104 q 506 44 447 68 q 632 1 565 19 q 775 -17 699 -17 q 1078 41 938 -17 q 1326 201 1219 99 q 1494 438 1433 303 q 1554 728 1554 572 q 1504 946 1554 846 q 1365 1119 1454 1046 q 1153 1233 1275 1193 q 888 1274 1032 1274 q 637 1240 753 1274 q 435 1144 521 1206 q 301 999 349 1082 q 253 819 253 917 q 316 626 253 710 q 490 494 379 542 q 744 446 601 446 q 936 474 850 446 q 1074 547 1022 501 q 1125 649 1125 593 q 1060 745 1125 710 q 888 781 996 781 q 682 741 775 781 q 533 635 589 701 q 478 486 478 568 q 524 362 478 415 q 652 278 569 308 q 844 249 735 249 q 1055 278 958 249 q 1223 363 1151 308 q 1334 490 1294 417 q 1374 650 1374 564 q 1305 837 1374 757 q 1111 960 1236 917 q 819 1004 986 1004 q 514 965 658 1004 q 250 851 369 925 q 43 678 131 778 q -92 457 -44 578 q -140 201 -140 336 q -83 -68 -140 54 q 81 -279 -25 -190 q 333 -417 188 -368 q 651 -465 478 -465 q 897 -440 778 -465 q 1117 -366 1015 -414 q 1298 -252 1219 -318 q 1422 -106 1376 -186 l 1435 -112 q 1308 -263 1388 -196 q 1124 -378 1228 -331 q 899 -453 1019 -426 q 651 -479 779 -479 q 326 -429 474 -479 q 72 -288 179 -379 q -95 -73 -36 -197 q -154 201 -154 51 q -106 462 -154 339 q 31 686 -57 585 q 241 862 119 788 q 509 977 363 936 q 819 1018 656 1018 q 1119 972 992 1018 q 1317 844 1246 926 q 1388 650 1388 761 q 1347 485 1388 561 q 1233 353 1306 410 q 1060 266 1160 297 q 844 235 961 235 q 644 266 729 235 q 511 354 558 297 q 464 486 464 411 q 521 642 464 572 q 674 753 578 711 q 888 794 771 794 z "},"Ǆ":{"ha":2774,"x_min":-154,"x_max":3064,"o":"m 888 794 q 1072 755 1003 794 q 1140 649 1140 715 q 1096 551 1140 601 q 963 467 1051 501 q 743 432 875 432 q 473 485 586 432 q 299 626 360 538 q 239 819 239 714 q 283 992 239 908 q 410 1142 326 1075 q 615 1248 494 1208 q 890 1288 736 1288 q 1160 1246 1036 1288 q 1375 1128 1283 1204 q 1517 951 1467 1053 q 1568 728 1568 849 q 1509 440 1568 576 q 1343 198 1450 304 q 1092 31 1236 92 q 775 -31 947 -31 q 625 -12 692 -31 q 501 29 558 6 q 393 71 444 53 q 288 89 342 89 q 224 77 247 89 q 201 42 201 65 q 343 -19 201 -19 q 581 33 458 -19 q 813 179 703 85 q 970 328 890 246 q 1128 495 1050 410 q 1278 657 1207 581 q 1407 789 1349 733 q 1503 875 1456 838 q 1599 939 1551 913 l 1669 939 q 1546 878 1617 922 q 1418 778 1475 833 q 1296 628 1356 714 q 1175 447 1236 542 q 1044 263 1114 353 q 891 101 974 174 q 706 -16 808 28 q 476 -60 604 -60 q 315 -49 379 -60 q 219 -17 251 -39 q 188 39 188 4 q 212 88 188 71 q 282 104 236 104 q 392 86 336 104 q 506 44 447 68 q 632 1 565 19 q 775 -17 699 -17 q 1078 41 938 -17 q 1326 201 1219 99 q 1494 438 1433 303 q 1554 728 1554 572 q 1504 946 1554 846 q 1365 1119 1454 1046 q 1153 1233 1275 1193 q 888 1274 1032 1274 q 637 1240 753 1274 q 435 1144 521 1206 q 301 999 349 1082 q 253 819 253 917 q 316 626 253 710 q 490 494 379 542 q 744 446 601 446 q 936 474 850 446 q 1074 547 1022 501 q 1125 649 1125 593 q 1060 745 1125 710 q 888 781 996 781 q 682 741 775 781 q 533 635 589 701 q 478 486 478 568 q 524 362 478 415 q 652 278 569 308 q 844 249 735 249 q 1055 278 958 249 q 1223 363 1151 308 q 1334 490 1294 417 q 1374 650 1374 564 q 1305 837 1374 757 q 1111 960 1236 917 q 819 1004 986 1004 q 514 965 658 1004 q 250 851 369 925 q 43 678 131 778 q -92 457 -44 578 q -140 201 -140 336 q -83 -68 -140 54 q 81 -279 -25 -190 q 333 -417 188 -368 q 651 -465 478 -465 q 897 -440 778 -465 q 1117 -366 1015 -414 q 1298 -252 1219 -318 q 1422 -106 1376 -186 l 1435 -112 q 1308 -263 1388 -196 q 1124 -378 1228 -331 q 899 -453 1019 -426 q 651 -479 779 -479 q 326 -429 474 -479 q 72 -288 179 -379 q -95 -73 -36 -197 q -154 201 -154 51 q -106 462 -154 339 q 31 686 -57 585 q 241 862 119 788 q 509 977 363 936 q 819 1018 656 1018 q 1119 972 992 1018 q 1317 844 1246 926 q 1388 650 1388 761 q 1347 485 1388 561 q 1233 353 1306 410 q 1060 266 1160 297 q 844 235 961 235 q 644 266 729 235 q 511 354 558 297 q 464 486 464 411 q 521 642 464 572 q 674 753 578 711 q 888 794 771 794 z "},"Ð":{"ha":1493,"x_min":-154,"x_max":1669,"o":"m 858 381 l 874 396 l 1346 396 l 1331 381 l 858 381 m 888 794 q 1072 755 1003 794 q 1140 649 1140 715 q 1096 551 1140 601 q 963 467 1051 501 q 743 432 875 432 q 473 485 586 432 q 299 626 360 538 q 239 819 239 714 q 283 992 239 908 q 410 1142 326 1075 q 615 1248 494 1208 q 890 1288 736 1288 q 1160 1246 1036 1288 q 1375 1128 1283 1204 q 1517 951 1467 1053 q 1568 728 1568 849 q 1509 440 1568 576 q 1343 198 1450 304 q 1092 31 1236 92 q 775 -31 947 -31 q 625 -12 692 -31 q 501 29 558 6 q 393 71 444 53 q 288 89 342 89 q 224 77 247 89 q 201 42 201 65 q 343 -19 201 -19 q 581 33 458 -19 q 813 179 703 85 q 970 328 890 246 q 1128 495 1050 410 q 1278 657 1207 581 q 1407 789 1349 733 q 1503 875 1456 838 q 1599 939 1551 913 l 1669 939 q 1546 878 1617 922 q 1418 778 1475 833 q 1296 628 1356 714 q 1175 447 1236 542 q 1044 263 1114 353 q 891 101 974 174 q 706 -16 808 28 q 476 -60 604 -60 q 315 -49 379 -60 q 219 -17 251 -39 q 188 39 188 4 q 212 88 188 71 q 282 104 236 104 q 392 86 336 104 q 506 44 447 68 q 632 1 565 19 q 775 -17 699 -17 q 1078 41 938 -17 q 1326 201 1219 99 q 1494 438 1433 303 q 1554 728 1554 572 q 1504 946 1554 846 q 1365 1119 1454 1046 q 1153 1233 1275 1193 q 888 1274 1032 1274 q 637 1240 753 1274 q 435 1144 521 1206 q 301 999 349 1082 q 253 819 253 917 q 316 626 253 710 q 490 494 379 542 q 744 446 601 446 q 936 474 850 446 q 1074 547 1022 501 q 1125 649 1125 593 q 1060 745 1125 710 q 888 781 996 781 q 682 741 775 781 q 533 635 589 701 q 478 486 478 568 q 524 362 478 415 q 652 278 569 308 q 844 249 735 249 q 1055 278 958 249 q 1223 363 1151 308 q 1334 490 1294 417 q 1374 650 1374 564 q 1305 837 1374 757 q 1111 960 1236 917 q 819 1004 986 1004 q 514 965 658 1004 q 250 851 369 925 q 43 678 131 778 q -92 457 -44 578 q -140 201 -140 336 q -83 -68 -140 54 q 81 -279 -25 -190 q 333 -417 188 -368 q 651 -465 478 -465 q 897 -440 778 -465 q 1117 -366 1015 -414 q 1298 -252 1219 -318 q 1422 -106 1376 -186 l 1435 -112 q 1308 -263 1388 -196 q 1124 -378 1228 -331 q 899 -453 1019 -426 q 651 -479 779 -479 q 326 -429 474 -479 q 72 -288 179 -379 q -95 -73 -36 -197 q -154 201 -154 51 q -106 462 -154 339 q 31 686 -57 585 q 241 862 119 788 q 509 977 363 936 q 819 1018 656 1018 q 1119 972 992 1018 q 1317 844 1246 926 q 1388 650 1388 761 q 1347 485 1388 561 q 1233 353 1306 410 q 1060 266 1160 297 q 844 235 961 235 q 644 266 729 235 q 511 354 558 297 q 464 486 464 411 q 521 642 464 572 q 674 753 578 711 q 888 794 771 794 z "},"Ď":{"ha":1493,"x_min":-154,"x_max":1669,"o":"m 888 794 q 1072 755 1003 794 q 1140 649 1140 715 q 1096 551 1140 601 q 963 467 1051 501 q 743 432 875 432 q 473 485 586 432 q 299 626 360 538 q 239 819 239 714 q 283 992 239 908 q 410 1142 326 1075 q 615 1248 494 1208 q 890 1288 736 1288 q 1160 1246 1036 1288 q 1375 1128 1283 1204 q 1517 951 1467 1053 q 1568 728 1568 849 q 1509 440 1568 576 q 1343 198 1450 304 q 1092 31 1236 92 q 775 -31 947 -31 q 625 -12 692 -31 q 501 29 558 6 q 393 71 444 53 q 288 89 342 89 q 224 77 247 89 q 201 42 201 65 q 343 -19 201 -19 q 581 33 458 -19 q 813 179 703 85 q 970 328 890 246 q 1128 495 1050 410 q 1278 657 1207 581 q 1407 789 1349 733 q 1503 875 1456 838 q 1599 939 1551 913 l 1669 939 q 1546 878 1617 922 q 1418 778 1475 833 q 1296 628 1356 714 q 1175 447 1236 542 q 1044 263 1114 353 q 891 101 974 174 q 706 -16 808 28 q 476 -60 604 -60 q 315 -49 379 -60 q 219 -17 251 -39 q 188 39 188 4 q 212 88 188 71 q 282 104 236 104 q 392 86 336 104 q 506 44 447 68 q 632 1 565 19 q 775 -17 699 -17 q 1078 41 938 -17 q 1326 201 1219 99 q 1494 438 1433 303 q 1554 728 1554 572 q 1504 946 1554 846 q 1365 1119 1454 1046 q 1153 1233 1275 1193 q 888 1274 1032 1274 q 637 1240 753 1274 q 435 1144 521 1206 q 301 999 349 1082 q 253 819 253 917 q 316 626 253 710 q 490 494 379 542 q 744 446 601 446 q 936 474 850 446 q 1074 547 1022 501 q 1125 649 1125 593 q 1060 745 1125 710 q 888 781 996 781 q 682 741 775 781 q 533 635 589 701 q 478 486 478 568 q 524 362 478 415 q 652 278 569 308 q 844 249 735 249 q 1055 278 958 249 q 1223 363 1151 308 q 1334 490 1294 417 q 1374 650 1374 564 q 1305 837 1374 757 q 1111 960 1236 917 q 819 1004 986 1004 q 514 965 658 1004 q 250 851 369 925 q 43 678 131 778 q -92 457 -44 578 q -140 201 -140 336 q -83 -68 -140 54 q 81 -279 -25 -190 q 333 -417 188 -368 q 651 -465 478 -465 q 897 -440 778 -465 q 1117 -366 1015 -414 q 1298 -252 1219 -318 q 1422 -106 1376 -186 l 1435 -112 q 1308 -263 1388 -196 q 1124 -378 1228 -331 q 899 -453 1019 -426 q 651 -479 779 -479 q 326 -429 474 -479 q 72 -288 179 -379 q -95 -73 -36 -197 q -154 201 -154 51 q -106 462 -154 339 q 31 686 -57 585 q 241 862 119 788 q 509 977 363 936 q 819 1018 656 1018 q 1119 972 992 1018 q 1317 844 1246 926 q 1388 650 1388 761 q 1347 485 1388 561 q 1233 353 1306 410 q 1060 266 1160 297 q 844 235 961 235 q 644 266 729 235 q 511 354 558 297 q 464 486 464 411 q 521 642 464 572 q 674 753 578 711 q 888 794 771 794 m 1590 1414 l 1592 1408 q 1527 1378 1571 1400 q 1434 1333 1483 1357 q 1346 1288 1385 1308 q 1294 1261 1307 1268 q 1282 1276 1282 1261 q 1296 1331 1289 1300 q 1303 1392 1303 1363 q 1303 1405 1303 1399 q 1301 1417 1303 1411 q 1307 1419 1301 1419 q 1314 1415 1310 1419 q 1333 1370 1325 1392 q 1347 1322 1342 1349 l 1590 1414 z "},"Đ":{"ha":1493,"x_min":-154,"x_max":1669,"o":"m 858 381 l 874 396 l 1346 396 l 1331 381 l 858 381 m 888 794 q 1072 755 1003 794 q 1140 649 1140 715 q 1096 551 1140 601 q 963 467 1051 501 q 743 432 875 432 q 473 485 586 432 q 299 626 360 538 q 239 819 239 714 q 283 992 239 908 q 410 1142 326 1075 q 615 1248 494 1208 q 890 1288 736 1288 q 1160 1246 1036 1288 q 1375 1128 1283 1204 q 1517 951 1467 1053 q 1568 728 1568 849 q 1509 440 1568 576 q 1343 198 1450 304 q 1092 31 1236 92 q 775 -31 947 -31 q 625 -12 692 -31 q 501 29 558 6 q 393 71 444 53 q 288 89 342 89 q 224 77 247 89 q 201 42 201 65 q 343 -19 201 -19 q 581 33 458 -19 q 813 179 703 85 q 970 328 890 246 q 1128 495 1050 410 q 1278 657 1207 581 q 1407 789 1349 733 q 1503 875 1456 838 q 1599 939 1551 913 l 1669 939 q 1546 878 1617 922 q 1418 778 1475 833 q 1296 628 1356 714 q 1175 447 1236 542 q 1044 263 1114 353 q 891 101 974 174 q 706 -16 808 28 q 476 -60 604 -60 q 315 -49 379 -60 q 219 -17 251 -39 q 188 39 188 4 q 212 88 188 71 q 282 104 236 104 q 392 86 336 104 q 506 44 447 68 q 632 1 565 19 q 775 -17 699 -17 q 1078 41 938 -17 q 1326 201 1219 99 q 1494 438 1433 303 q 1554 728 1554 572 q 1504 946 1554 846 q 1365 1119 1454 1046 q 1153 1233 1275 1193 q 888 1274 1032 1274 q 637 1240 753 1274 q 435 1144 521 1206 q 301 999 349 1082 q 253 819 253 917 q 316 626 253 710 q 490 494 379 542 q 744 446 601 446 q 936 474 850 446 q 1074 547 1022 501 q 1125 649 1125 593 q 1060 745 1125 710 q 888 781 996 781 q 682 741 775 781 q 533 635 589 701 q 478 486 478 568 q 524 362 478 415 q 652 278 569 308 q 844 249 735 249 q 1055 278 958 249 q 1223 363 1151 308 q 1334 490 1294 417 q 1374 650 1374 564 q 1305 837 1374 757 q 1111 960 1236 917 q 819 1004 986 1004 q 514 965 658 1004 q 250 851 369 925 q 43 678 131 778 q -92 457 -44 578 q -140 201 -140 336 q -83 -68 -140 54 q 81 -279 -25 -190 q 333 -417 188 -368 q 651 -465 478 -465 q 897 -440 778 -465 q 1117 -366 1015 -414 q 1298 -252 1219 -318 q 1422 -106 1376 -186 l 1435 -112 q 1308 -263 1388 -196 q 1124 -378 1228 -331 q 899 -453 1019 -426 q 651 -479 779 -479 q 326 -429 474 -479 q 72 -288 179 -379 q -95 -73 -36 -197 q -154 201 -154 51 q -106 462 -154 339 q 31 686 -57 585 q 241 862 119 788 q 509 977 363 936 q 819 1018 656 1018 q 1119 972 992 1018 q 1317 844 1246 926 q 1388 650 1388 761 q 1347 485 1388 561 q 1233 353 1306 410 q 1060 266 1160 297 q 844 235 961 235 q 644 266 729 235 q 511 354 558 297 q 464 486 464 411 q 521 642 464 572 q 674 753 578 711 q 888 794 771 794 z "},"Ḍ":{"ha":1493,"x_min":-154,"x_max":1669,"o":"m 888 794 q 1072 755 1003 794 q 1140 649 1140 715 q 1096 551 1140 601 q 963 467 1051 501 q 743 432 875 432 q 473 485 586 432 q 299 626 360 538 q 239 819 239 714 q 283 992 239 908 q 410 1142 326 1075 q 615 1248 494 1208 q 890 1288 736 1288 q 1160 1246 1036 1288 q 1375 1128 1283 1204 q 1517 951 1467 1053 q 1568 728 1568 849 q 1509 440 1568 576 q 1343 198 1450 304 q 1092 31 1236 92 q 775 -31 947 -31 q 625 -12 692 -31 q 501 29 558 6 q 393 71 444 53 q 288 89 342 89 q 224 77 247 89 q 201 42 201 65 q 343 -19 201 -19 q 581 33 458 -19 q 813 179 703 85 q 970 328 890 246 q 1128 495 1050 410 q 1278 657 1207 581 q 1407 789 1349 733 q 1503 875 1456 838 q 1599 939 1551 913 l 1669 939 q 1546 878 1617 922 q 1418 778 1475 833 q 1296 628 1356 714 q 1175 447 1236 542 q 1044 263 1114 353 q 891 101 974 174 q 706 -16 808 28 q 476 -60 604 -60 q 315 -49 379 -60 q 219 -17 251 -39 q 188 39 188 4 q 212 88 188 71 q 282 104 236 104 q 392 86 336 104 q 506 44 447 68 q 632 1 565 19 q 775 -17 699 -17 q 1078 41 938 -17 q 1326 201 1219 99 q 1494 438 1433 303 q 1554 728 1554 572 q 1504 946 1554 846 q 1365 1119 1454 1046 q 1153 1233 1275 1193 q 888 1274 1032 1274 q 637 1240 753 1274 q 435 1144 521 1206 q 301 999 349 1082 q 253 819 253 917 q 316 626 253 710 q 490 494 379 542 q 744 446 601 446 q 936 474 850 446 q 1074 547 1022 501 q 1125 649 1125 593 q 1060 745 1125 710 q 888 781 996 781 q 682 741 775 781 q 533 635 589 701 q 478 486 478 568 q 524 362 478 415 q 652 278 569 308 q 844 249 735 249 q 1055 278 958 249 q 1223 363 1151 308 q 1334 490 1294 417 q 1374 650 1374 564 q 1305 837 1374 757 q 1111 960 1236 917 q 819 1004 986 1004 q 514 965 658 1004 q 250 851 369 925 q 43 678 131 778 q -92 457 -44 578 q -140 201 -140 336 q -83 -68 -140 54 q 81 -279 -25 -190 q 333 -417 188 -368 q 651 -465 478 -465 q 897 -440 778 -465 q 1117 -366 1015 -414 q 1298 -252 1219 -318 q 1422 -106 1376 -186 l 1435 -112 q 1308 -263 1388 -196 q 1124 -378 1228 -331 q 899 -453 1019 -426 q 651 -479 779 -479 q 326 -429 474 -479 q 72 -288 179 -379 q -95 -73 -36 -197 q -154 201 -154 51 q -106 462 -154 339 q 31 686 -57 585 q 241 862 119 788 q 509 977 363 936 q 819 1018 656 1018 q 1119 972 992 1018 q 1317 844 1246 926 q 1388 650 1388 761 q 1347 485 1388 561 q 1233 353 1306 410 q 1060 266 1160 297 q 844 235 961 235 q 644 266 729 235 q 511 354 558 297 q 464 486 464 411 q 521 642 464 572 q 674 753 578 711 q 888 794 771 794 m 676 -139 q 692 -150 692 -139 q 669 -193 692 -168 q 617 -237 646 -218 q 565 -256 588 -256 q 551 -244 551 -256 q 574 -203 551 -228 q 627 -158 597 -178 q 676 -139 657 -139 z "},"Ḏ":{"ha":1493,"x_min":-154,"x_max":1669,"o":"m 888 794 q 1072 755 1003 794 q 1140 649 1140 715 q 1096 551 1140 601 q 963 467 1051 501 q 743 432 875 432 q 473 485 586 432 q 299 626 360 538 q 239 819 239 714 q 283 992 239 908 q 410 1142 326 1075 q 615 1248 494 1208 q 890 1288 736 1288 q 1160 1246 1036 1288 q 1375 1128 1283 1204 q 1517 951 1467 1053 q 1568 728 1568 849 q 1509 440 1568 576 q 1343 198 1450 304 q 1092 31 1236 92 q 775 -31 947 -31 q 625 -12 692 -31 q 501 29 558 6 q 393 71 444 53 q 288 89 342 89 q 224 77 247 89 q 201 42 201 65 q 343 -19 201 -19 q 581 33 458 -19 q 813 179 703 85 q 970 328 890 246 q 1128 495 1050 410 q 1278 657 1207 581 q 1407 789 1349 733 q 1503 875 1456 838 q 1599 939 1551 913 l 1669 939 q 1546 878 1617 922 q 1418 778 1475 833 q 1296 628 1356 714 q 1175 447 1236 542 q 1044 263 1114 353 q 891 101 974 174 q 706 -16 808 28 q 476 -60 604 -60 q 315 -49 379 -60 q 219 -17 251 -39 q 188 39 188 4 q 212 88 188 71 q 282 104 236 104 q 392 86 336 104 q 506 44 447 68 q 632 1 565 19 q 775 -17 699 -17 q 1078 41 938 -17 q 1326 201 1219 99 q 1494 438 1433 303 q 1554 728 1554 572 q 1504 946 1554 846 q 1365 1119 1454 1046 q 1153 1233 1275 1193 q 888 1274 1032 1274 q 637 1240 753 1274 q 435 1144 521 1206 q 301 999 349 1082 q 253 819 253 917 q 316 626 253 710 q 490 494 379 542 q 744 446 601 446 q 936 474 850 446 q 1074 547 1022 501 q 1125 649 1125 593 q 1060 745 1125 710 q 888 781 996 781 q 682 741 775 781 q 533 635 589 701 q 478 486 478 568 q 524 362 478 415 q 652 278 569 308 q 844 249 735 249 q 1055 278 958 249 q 1223 363 1151 308 q 1334 490 1294 417 q 1374 650 1374 564 q 1305 837 1374 757 q 1111 960 1236 917 q 819 1004 986 1004 q 514 965 658 1004 q 250 851 369 925 q 43 678 131 778 q -92 457 -44 578 q -140 201 -140 336 q -83 -68 -140 54 q 81 -279 -25 -190 q 333 -417 188 -368 q 651 -465 478 -465 q 897 -440 778 -465 q 1117 -366 1015 -414 q 1298 -252 1219 -318 q 1422 -106 1376 -186 l 1435 -112 q 1308 -263 1388 -196 q 1124 -378 1228 -331 q 899 -453 1019 -426 q 651 -479 779 -479 q 326 -429 474 -479 q 72 -288 179 -379 q -95 -73 -36 -197 q -154 201 -154 51 q -106 462 -154 339 q 31 686 -57 585 q 241 862 119 788 q 509 977 363 936 q 819 1018 656 1018 q 1119 972 992 1018 q 1317 844 1246 926 q 1388 650 1388 761 q 1347 485 1388 561 q 1233 353 1306 410 q 1060 266 1160 297 q 844 235 961 235 q 644 266 729 235 q 511 354 558 297 q 464 486 464 411 q 521 642 464 572 q 674 753 578 711 q 888 794 771 794 m 568 -221 l 624 -174 l 926 -174 l 871 -221 l 568 -221 z "},"ǅ":{"ha":1926,"x_min":-154,"x_max":2226,"o":"m 888 794 q 1072 755 1003 794 q 1140 649 1140 715 q 1096 551 1140 601 q 963 467 1051 501 q 743 432 875 432 q 473 485 586 432 q 299 626 360 538 q 239 819 239 714 q 283 992 239 908 q 410 1142 326 1075 q 615 1248 494 1208 q 890 1288 736 1288 q 1160 1246 1036 1288 q 1375 1128 1283 1204 q 1517 951 1467 1053 q 1568 728 1568 849 q 1509 440 1568 576 q 1343 198 1450 304 q 1092 31 1236 92 q 775 -31 947 -31 q 625 -12 692 -31 q 501 29 558 6 q 393 71 444 53 q 288 89 342 89 q 224 77 247 89 q 201 42 201 65 q 343 -19 201 -19 q 581 33 458 -19 q 813 179 703 85 q 970 328 890 246 q 1128 495 1050 410 q 1278 657 1207 581 q 1407 789 1349 733 q 1503 875 1456 838 q 1599 939 1551 913 l 1669 939 q 1546 878 1617 922 q 1418 778 1475 833 q 1296 628 1356 714 q 1175 447 1236 542 q 1044 263 1114 353 q 891 101 974 174 q 706 -16 808 28 q 476 -60 604 -60 q 315 -49 379 -60 q 219 -17 251 -39 q 188 39 188 4 q 212 88 188 71 q 282 104 236 104 q 392 86 336 104 q 506 44 447 68 q 632 1 565 19 q 775 -17 699 -17 q 1078 41 938 -17 q 1326 201 1219 99 q 1494 438 1433 303 q 1554 728 1554 572 q 1504 946 1554 846 q 1365 1119 1454 1046 q 1153 1233 1275 1193 q 888 1274 1032 1274 q 637 1240 753 1274 q 435 1144 521 1206 q 301 999 349 1082 q 253 819 253 917 q 316 626 253 710 q 490 494 379 542 q 744 446 601 446 q 936 474 850 446 q 1074 547 1022 501 q 1125 649 1125 593 q 1060 745 1125 710 q 888 781 996 781 q 682 741 775 781 q 533 635 589 701 q 478 486 478 568 q 524 362 478 415 q 652 278 569 308 q 844 249 735 249 q 1055 278 958 249 q 1223 363 1151 308 q 1334 490 1294 417 q 1374 650 1374 564 q 1305 837 1374 757 q 1111 960 1236 917 q 819 1004 986 1004 q 514 965 658 1004 q 250 851 369 925 q 43 678 131 778 q -92 457 -44 578 q -140 201 -140 336 q -83 -68 -140 54 q 81 -279 -25 -190 q 333 -417 188 -368 q 651 -465 478 -465 q 897 -440 778 -465 q 1117 -366 1015 -414 q 1298 -252 1219 -318 q 1422 -106 1376 -186 l 1435 -112 q 1308 -263 1388 -196 q 1124 -378 1228 -331 q 899 -453 1019 -426 q 651 -479 779 -479 q 326 -429 474 -479 q 72 -288 179 -379 q -95 -73 -36 -197 q -154 201 -154 51 q -106 462 -154 339 q 31 686 -57 585 q 241 862 119 788 q 509 977 363 936 q 819 1018 656 1018 q 1119 972 992 1018 q 1317 844 1246 926 q 1388 650 1388 761 q 1347 485 1388 561 q 1233 353 1306 410 q 1060 266 1160 297 q 844 235 961 235 q 644 266 729 235 q 511 354 558 297 q 464 486 464 411 q 521 642 464 572 q 674 753 578 711 q 888 794 771 794 z "},"E":{"ha":1307,"x_min":-225,"x_max":1492,"o":"m 569 -221 q 728 -193 643 -221 q 904 -113 814 -165 q 1082 10 994 -61 q 1249 169 1169 82 l 1307 235 l 1321 235 l 1260 167 q 1089 3 1179 76 q 907 -124 999 -71 q 729 -207 815 -178 q 569 -236 643 -236 q 374 -195 458 -236 q 244 -81 290 -154 q 199 92 199 -7 q 249 290 199 194 q 387 462 300 386 q 584 581 474 538 q 813 625 694 625 q 909 613 875 625 q 943 576 943 600 q 926 550 943 561 q 886 539 910 539 q 793 585 829 539 q 757 706 757 632 q 799 858 757 785 q 911 988 840 931 q 1072 1079 982 1046 q 1260 1113 1163 1113 q 1492 901 1492 1113 q 1463 751 1492 832 q 1386 590 1435 671 q 1274 437 1338 510 q 1142 306 1211 364 q 1006 215 1074 249 q 878 182 938 182 q 783 223 818 182 q 747 333 747 264 q 779 467 747 394 q 863 611 811 539 q 978 744 915 683 q 1105 840 1042 804 q 1221 876 1168 876 q 1281 808 1281 876 q 1234 667 1281 742 q 1108 517 1188 592 q 924 376 1028 443 q 706 258 821 310 q 474 177 590 207 q 254 147 358 147 q 8 191 117 147 q -162 310 -100 235 q -225 481 -225 385 q -178 634 -225 564 q -49 757 -132 704 q 148 838 35 810 q 396 867 261 867 q 593 850 490 867 q 796 805 696 833 q 984 738 896 776 q 1140 655 1072 699 q 1243 564 1207 611 l 1233 556 q 1133 645 1199 601 q 979 726 1067 689 q 793 792 892 764 q 593 837 694 821 q 397 853 492 853 q 154 825 265 853 q -38 747 43 797 q -165 628 -119 697 q -210 478 -210 560 q -149 316 -210 388 q 17 203 -89 244 q 254 163 122 163 q 471 192 357 163 q 699 272 585 221 q 914 387 813 322 q 1094 524 1015 451 q 1219 670 1174 597 q 1265 808 1265 743 q 1221 863 1265 863 q 1109 826 1171 863 q 986 732 1047 790 q 874 603 925 674 q 792 461 824 532 q 761 332 761 390 q 793 233 761 271 q 876 196 825 196 q 1002 228 935 196 q 1137 317 1069 261 q 1265 445 1204 374 q 1374 596 1326 517 q 1450 753 1422 675 q 1478 901 1478 832 q 1428 1049 1478 999 q 1281 1099 1378 1099 q 1108 1061 1194 1099 q 952 961 1022 1024 q 840 823 882 899 q 797 671 797 747 q 888 553 797 553 q 917 559 904 553 q 929 575 929 565 q 899 601 929 590 q 826 611 869 611 q 671 578 747 611 q 527 489 594 546 q 408 358 460 432 q 328 199 357 283 q 299 26 299 114 q 569 -221 299 -221 z "},"É":{"ha":1307,"x_min":-225,"x_max":1510,"o":"m 569 -221 q 728 -193 643 -221 q 904 -113 814 -165 q 1082 10 994 -61 q 1249 169 1169 82 l 1307 235 l 1321 235 l 1260 167 q 1089 3 1179 76 q 907 -124 999 -71 q 729 -207 815 -178 q 569 -236 643 -236 q 374 -195 458 -236 q 244 -81 290 -154 q 199 92 199 -7 q 249 290 199 194 q 387 462 300 386 q 584 581 474 538 q 813 625 694 625 q 909 613 875 625 q 943 576 943 600 q 926 550 943 561 q 886 539 910 539 q 793 585 829 539 q 757 706 757 632 q 799 858 757 785 q 911 988 840 931 q 1072 1079 982 1046 q 1260 1113 1163 1113 q 1492 901 1492 1113 q 1463 751 1492 832 q 1386 590 1435 671 q 1274 437 1338 510 q 1142 306 1211 364 q 1006 215 1074 249 q 878 182 938 182 q 783 223 818 182 q 747 333 747 264 q 779 467 747 394 q 863 611 811 539 q 978 744 915 683 q 1105 840 1042 804 q 1221 876 1168 876 q 1281 808 1281 876 q 1234 667 1281 742 q 1108 517 1188 592 q 924 376 1028 443 q 706 258 821 310 q 474 177 590 207 q 254 147 358 147 q 8 191 117 147 q -162 310 -100 235 q -225 481 -225 385 q -178 634 -225 564 q -49 757 -132 704 q 148 838 35 810 q 396 867 261 867 q 593 850 490 867 q 796 805 696 833 q 984 738 896 776 q 1140 655 1072 699 q 1243 564 1207 611 l 1233 556 q 1133 645 1199 601 q 979 726 1067 689 q 793 792 892 764 q 593 837 694 821 q 397 853 492 853 q 154 825 265 853 q -38 747 43 797 q -165 628 -119 697 q -210 478 -210 560 q -149 316 -210 388 q 17 203 -89 244 q 254 163 122 163 q 471 192 357 163 q 699 272 585 221 q 914 387 813 322 q 1094 524 1015 451 q 1219 670 1174 597 q 1265 808 1265 743 q 1221 863 1265 863 q 1109 826 1171 863 q 986 732 1047 790 q 874 603 925 674 q 792 461 824 532 q 761 332 761 390 q 793 233 761 271 q 876 196 825 196 q 1002 228 935 196 q 1137 317 1069 261 q 1265 445 1204 374 q 1374 596 1326 517 q 1450 753 1422 675 q 1478 901 1478 832 q 1428 1049 1478 999 q 1281 1099 1378 1099 q 1108 1061 1194 1099 q 952 961 1022 1024 q 840 823 882 899 q 797 671 797 747 q 888 553 797 553 q 917 559 904 553 q 929 575 929 565 q 899 601 929 590 q 826 611 869 611 q 671 578 747 611 q 527 489 594 546 q 408 358 460 432 q 328 199 357 283 q 299 26 299 114 q 569 -221 299 -221 m 1264 1267 l 1261 1272 l 1447 1397 q 1483 1408 1465 1408 q 1510 1386 1510 1408 q 1485 1357 1510 1368 l 1264 1267 z "},"Ĕ":{"ha":1307,"x_min":-225,"x_max":1544,"o":"m 569 -221 q 728 -193 643 -221 q 904 -113 814 -165 q 1082 10 994 -61 q 1249 169 1169 82 l 1307 235 l 1321 235 l 1260 167 q 1089 3 1179 76 q 907 -124 999 -71 q 729 -207 815 -178 q 569 -236 643 -236 q 374 -195 458 -236 q 244 -81 290 -154 q 199 92 199 -7 q 249 290 199 194 q 387 462 300 386 q 584 581 474 538 q 813 625 694 625 q 909 613 875 625 q 943 576 943 600 q 926 550 943 561 q 886 539 910 539 q 793 585 829 539 q 757 706 757 632 q 799 858 757 785 q 911 988 840 931 q 1072 1079 982 1046 q 1260 1113 1163 1113 q 1492 901 1492 1113 q 1463 751 1492 832 q 1386 590 1435 671 q 1274 437 1338 510 q 1142 306 1211 364 q 1006 215 1074 249 q 878 182 938 182 q 783 223 818 182 q 747 333 747 264 q 779 467 747 394 q 863 611 811 539 q 978 744 915 683 q 1105 840 1042 804 q 1221 876 1168 876 q 1281 808 1281 876 q 1234 667 1281 742 q 1108 517 1188 592 q 924 376 1028 443 q 706 258 821 310 q 474 177 590 207 q 254 147 358 147 q 8 191 117 147 q -162 310 -100 235 q -225 481 -225 385 q -178 634 -225 564 q -49 757 -132 704 q 148 838 35 810 q 396 867 261 867 q 593 850 490 867 q 796 805 696 833 q 984 738 896 776 q 1140 655 1072 699 q 1243 564 1207 611 l 1233 556 q 1133 645 1199 601 q 979 726 1067 689 q 793 792 892 764 q 593 837 694 821 q 397 853 492 853 q 154 825 265 853 q -38 747 43 797 q -165 628 -119 697 q -210 478 -210 560 q -149 316 -210 388 q 17 203 -89 244 q 254 163 122 163 q 471 192 357 163 q 699 272 585 221 q 914 387 813 322 q 1094 524 1015 451 q 1219 670 1174 597 q 1265 808 1265 743 q 1221 863 1265 863 q 1109 826 1171 863 q 986 732 1047 790 q 874 603 925 674 q 792 461 824 532 q 761 332 761 390 q 793 233 761 271 q 876 196 825 196 q 1002 228 935 196 q 1137 317 1069 261 q 1265 445 1204 374 q 1374 596 1326 517 q 1450 753 1422 675 q 1478 901 1478 832 q 1428 1049 1478 999 q 1281 1099 1378 1099 q 1108 1061 1194 1099 q 952 961 1022 1024 q 840 823 882 899 q 797 671 797 747 q 888 553 797 553 q 917 559 904 553 q 929 575 929 565 q 899 601 929 590 q 826 611 869 611 q 671 578 747 611 q 527 489 594 546 q 408 358 460 432 q 328 199 357 283 q 299 26 299 114 q 569 -221 299 -221 m 1488 1399 l 1544 1399 q 1493 1345 1526 1368 q 1423 1309 1460 1322 q 1356 1296 1386 1296 q 1296 1310 1317 1296 q 1275 1346 1275 1324 q 1280 1374 1275 1361 q 1292 1399 1285 1386 l 1339 1399 q 1330 1374 1333 1386 q 1326 1346 1326 1361 q 1363 1306 1326 1306 q 1431 1333 1394 1306 q 1488 1399 1467 1361 z "},"Ě":{"ha":1307,"x_min":-225,"x_max":1658,"o":"m 569 -221 q 728 -193 643 -221 q 904 -113 814 -165 q 1082 10 994 -61 q 1249 169 1169 82 l 1307 235 l 1321 235 l 1260 167 q 1089 3 1179 76 q 907 -124 999 -71 q 729 -207 815 -178 q 569 -236 643 -236 q 374 -195 458 -236 q 244 -81 290 -154 q 199 92 199 -7 q 249 290 199 194 q 387 462 300 386 q 584 581 474 538 q 813 625 694 625 q 909 613 875 625 q 943 576 943 600 q 926 550 943 561 q 886 539 910 539 q 793 585 829 539 q 757 706 757 632 q 799 858 757 785 q 911 988 840 931 q 1072 1079 982 1046 q 1260 1113 1163 1113 q 1492 901 1492 1113 q 1463 751 1492 832 q 1386 590 1435 671 q 1274 437 1338 510 q 1142 306 1211 364 q 1006 215 1074 249 q 878 182 938 182 q 783 223 818 182 q 747 333 747 264 q 779 467 747 394 q 863 611 811 539 q 978 744 915 683 q 1105 840 1042 804 q 1221 876 1168 876 q 1281 808 1281 876 q 1234 667 1281 742 q 1108 517 1188 592 q 924 376 1028 443 q 706 258 821 310 q 474 177 590 207 q 254 147 358 147 q 8 191 117 147 q -162 310 -100 235 q -225 481 -225 385 q -178 634 -225 564 q -49 757 -132 704 q 148 838 35 810 q 396 867 261 867 q 593 850 490 867 q 796 805 696 833 q 984 738 896 776 q 1140 655 1072 699 q 1243 564 1207 611 l 1233 556 q 1133 645 1199 601 q 979 726 1067 689 q 793 792 892 764 q 593 837 694 821 q 397 853 492 853 q 154 825 265 853 q -38 747 43 797 q -165 628 -119 697 q -210 478 -210 560 q -149 316 -210 388 q 17 203 -89 244 q 254 163 122 163 q 471 192 357 163 q 699 272 585 221 q 914 387 813 322 q 1094 524 1015 451 q 1219 670 1174 597 q 1265 808 1265 743 q 1221 863 1265 863 q 1109 826 1171 863 q 986 732 1047 790 q 874 603 925 674 q 792 461 824 532 q 761 332 761 390 q 793 233 761 271 q 876 196 825 196 q 1002 228 935 196 q 1137 317 1069 261 q 1265 445 1204 374 q 1374 596 1326 517 q 1450 753 1422 675 q 1478 901 1478 832 q 1428 1049 1478 999 q 1281 1099 1378 1099 q 1108 1061 1194 1099 q 952 961 1022 1024 q 840 823 882 899 q 797 671 797 747 q 888 553 797 553 q 917 559 904 553 q 929 575 929 565 q 899 601 929 590 q 826 611 869 611 q 671 578 747 611 q 527 489 594 546 q 408 358 460 432 q 328 199 357 283 q 299 26 299 114 q 569 -221 299 -221 m 1657 1414 l 1658 1408 q 1594 1378 1638 1400 q 1501 1333 1550 1357 q 1413 1288 1451 1308 q 1361 1261 1374 1268 q 1349 1276 1349 1261 q 1363 1331 1356 1300 q 1369 1392 1369 1363 q 1369 1405 1369 1399 q 1368 1417 1369 1411 q 1374 1419 1368 1419 q 1381 1415 1376 1419 q 1400 1370 1392 1392 q 1414 1322 1408 1349 l 1657 1414 z "},"Ḝ":{"ha":1307,"x_min":-225,"x_max":1544,"o":"m 569 -221 q 728 -193 643 -221 q 904 -113 814 -165 q 1082 10 994 -61 q 1249 169 1169 82 l 1307 235 l 1321 235 l 1260 167 q 1089 3 1179 76 q 907 -124 999 -71 q 729 -207 815 -178 q 569 -236 643 -236 q 374 -195 458 -236 q 244 -81 290 -154 q 199 92 199 -7 q 249 290 199 194 q 387 462 300 386 q 584 581 474 538 q 813 625 694 625 q 909 613 875 625 q 943 576 943 600 q 926 550 943 561 q 886 539 910 539 q 793 585 829 539 q 757 706 757 632 q 799 858 757 785 q 911 988 840 931 q 1072 1079 982 1046 q 1260 1113 1163 1113 q 1492 901 1492 1113 q 1463 751 1492 832 q 1386 590 1435 671 q 1274 437 1338 510 q 1142 306 1211 364 q 1006 215 1074 249 q 878 182 938 182 q 783 223 818 182 q 747 333 747 264 q 779 467 747 394 q 863 611 811 539 q 978 744 915 683 q 1105 840 1042 804 q 1221 876 1168 876 q 1281 808 1281 876 q 1234 667 1281 742 q 1108 517 1188 592 q 924 376 1028 443 q 706 258 821 310 q 474 177 590 207 q 254 147 358 147 q 8 191 117 147 q -162 310 -100 235 q -225 481 -225 385 q -178 634 -225 564 q -49 757 -132 704 q 148 838 35 810 q 396 867 261 867 q 593 850 490 867 q 796 805 696 833 q 984 738 896 776 q 1140 655 1072 699 q 1243 564 1207 611 l 1233 556 q 1133 645 1199 601 q 979 726 1067 689 q 793 792 892 764 q 593 837 694 821 q 397 853 492 853 q 154 825 265 853 q -38 747 43 797 q -165 628 -119 697 q -210 478 -210 560 q -149 316 -210 388 q 17 203 -89 244 q 254 163 122 163 q 471 192 357 163 q 699 272 585 221 q 914 387 813 322 q 1094 524 1015 451 q 1219 670 1174 597 q 1265 808 1265 743 q 1221 863 1265 863 q 1109 826 1171 863 q 986 732 1047 790 q 874 603 925 674 q 792 461 824 532 q 761 332 761 390 q 793 233 761 271 q 876 196 825 196 q 1002 228 935 196 q 1137 317 1069 261 q 1265 445 1204 374 q 1374 596 1326 517 q 1450 753 1422 675 q 1478 901 1478 832 q 1428 1049 1478 999 q 1281 1099 1378 1099 q 1108 1061 1194 1099 q 952 961 1022 1024 q 840 823 882 899 q 797 671 797 747 q 888 553 797 553 q 917 559 904 553 q 929 575 929 565 q 899 601 929 590 q 826 611 869 611 q 671 578 747 611 q 527 489 594 546 q 408 358 460 432 q 328 199 357 283 q 299 26 299 114 q 569 -221 299 -221 m 560 -233 l 567 -233 q 554 -264 554 -246 q 569 -301 554 -286 q 585 -339 585 -315 q 553 -394 585 -365 q 461 -424 522 -424 q 426 -417 443 -424 q 399 -393 408 -410 l 404 -389 q 422 -404 413 -399 q 451 -410 432 -410 q 508 -392 485 -410 q 538 -343 531 -374 q 541 -310 542 -329 q 540 -281 540 -290 q 545 -253 540 -264 q 560 -233 550 -243 m 1488 1399 l 1544 1399 q 1493 1345 1526 1368 q 1423 1309 1460 1322 q 1356 1296 1386 1296 q 1296 1310 1317 1296 q 1275 1346 1275 1324 q 1280 1374 1275 1361 q 1292 1399 1285 1386 l 1339 1399 q 1330 1374 1333 1386 q 1326 1346 1326 1361 q 1363 1306 1326 1306 q 1431 1333 1394 1306 q 1488 1399 1467 1361 z "},"Ê":{"ha":1307,"x_min":-225,"x_max":1533,"o":"m 569 -221 q 728 -193 643 -221 q 904 -113 814 -165 q 1082 10 994 -61 q 1249 169 1169 82 l 1307 235 l 1321 235 l 1260 167 q 1089 3 1179 76 q 907 -124 999 -71 q 729 -207 815 -178 q 569 -236 643 -236 q 374 -195 458 -236 q 244 -81 290 -154 q 199 92 199 -7 q 249 290 199 194 q 387 462 300 386 q 584 581 474 538 q 813 625 694 625 q 909 613 875 625 q 943 576 943 600 q 926 550 943 561 q 886 539 910 539 q 793 585 829 539 q 757 706 757 632 q 799 858 757 785 q 911 988 840 931 q 1072 1079 982 1046 q 1260 1113 1163 1113 q 1492 901 1492 1113 q 1463 751 1492 832 q 1386 590 1435 671 q 1274 437 1338 510 q 1142 306 1211 364 q 1006 215 1074 249 q 878 182 938 182 q 783 223 818 182 q 747 333 747 264 q 779 467 747 394 q 863 611 811 539 q 978 744 915 683 q 1105 840 1042 804 q 1221 876 1168 876 q 1281 808 1281 876 q 1234 667 1281 742 q 1108 517 1188 592 q 924 376 1028 443 q 706 258 821 310 q 474 177 590 207 q 254 147 358 147 q 8 191 117 147 q -162 310 -100 235 q -225 481 -225 385 q -178 634 -225 564 q -49 757 -132 704 q 148 838 35 810 q 396 867 261 867 q 593 850 490 867 q 796 805 696 833 q 984 738 896 776 q 1140 655 1072 699 q 1243 564 1207 611 l 1233 556 q 1133 645 1199 601 q 979 726 1067 689 q 793 792 892 764 q 593 837 694 821 q 397 853 492 853 q 154 825 265 853 q -38 747 43 797 q -165 628 -119 697 q -210 478 -210 560 q -149 316 -210 388 q 17 203 -89 244 q 254 163 122 163 q 471 192 357 163 q 699 272 585 221 q 914 387 813 322 q 1094 524 1015 451 q 1219 670 1174 597 q 1265 808 1265 743 q 1221 863 1265 863 q 1109 826 1171 863 q 986 732 1047 790 q 874 603 925 674 q 792 461 824 532 q 761 332 761 390 q 793 233 761 271 q 876 196 825 196 q 1002 228 935 196 q 1137 317 1069 261 q 1265 445 1204 374 q 1374 596 1326 517 q 1450 753 1422 675 q 1478 901 1478 832 q 1428 1049 1478 999 q 1281 1099 1378 1099 q 1108 1061 1194 1099 q 952 961 1022 1024 q 840 823 882 899 q 797 671 797 747 q 888 553 797 553 q 917 559 904 553 q 929 575 929 565 q 899 601 929 590 q 826 611 869 611 q 671 578 747 611 q 527 489 594 546 q 408 358 460 432 q 328 199 357 283 q 299 26 299 114 q 569 -221 299 -221 m 1225 1267 l 1224 1272 q 1288 1302 1244 1281 q 1381 1348 1332 1324 q 1469 1392 1431 1372 q 1521 1419 1508 1413 q 1533 1404 1533 1419 q 1519 1350 1526 1382 q 1513 1289 1513 1318 q 1513 1277 1513 1283 q 1514 1264 1513 1271 q 1508 1261 1514 1261 q 1501 1265 1506 1261 q 1483 1310 1492 1289 q 1468 1358 1474 1332 l 1225 1267 z "},"Ế":{"ha":1307,"x_min":-225,"x_max":1667,"o":"m 569 -221 q 728 -193 643 -221 q 904 -113 814 -165 q 1082 10 994 -61 q 1249 169 1169 82 l 1307 235 l 1321 235 l 1260 167 q 1089 3 1179 76 q 907 -124 999 -71 q 729 -207 815 -178 q 569 -236 643 -236 q 374 -195 458 -236 q 244 -81 290 -154 q 199 92 199 -7 q 249 290 199 194 q 387 462 300 386 q 584 581 474 538 q 813 625 694 625 q 909 613 875 625 q 943 576 943 600 q 926 550 943 561 q 886 539 910 539 q 793 585 829 539 q 757 706 757 632 q 799 858 757 785 q 911 988 840 931 q 1072 1079 982 1046 q 1260 1113 1163 1113 q 1492 901 1492 1113 q 1463 751 1492 832 q 1386 590 1435 671 q 1274 437 1338 510 q 1142 306 1211 364 q 1006 215 1074 249 q 878 182 938 182 q 783 223 818 182 q 747 333 747 264 q 779 467 747 394 q 863 611 811 539 q 978 744 915 683 q 1105 840 1042 804 q 1221 876 1168 876 q 1281 808 1281 876 q 1234 667 1281 742 q 1108 517 1188 592 q 924 376 1028 443 q 706 258 821 310 q 474 177 590 207 q 254 147 358 147 q 8 191 117 147 q -162 310 -100 235 q -225 481 -225 385 q -178 634 -225 564 q -49 757 -132 704 q 148 838 35 810 q 396 867 261 867 q 593 850 490 867 q 796 805 696 833 q 984 738 896 776 q 1140 655 1072 699 q 1243 564 1207 611 l 1233 556 q 1133 645 1199 601 q 979 726 1067 689 q 793 792 892 764 q 593 837 694 821 q 397 853 492 853 q 154 825 265 853 q -38 747 43 797 q -165 628 -119 697 q -210 478 -210 560 q -149 316 -210 388 q 17 203 -89 244 q 254 163 122 163 q 471 192 357 163 q 699 272 585 221 q 914 387 813 322 q 1094 524 1015 451 q 1219 670 1174 597 q 1265 808 1265 743 q 1221 863 1265 863 q 1109 826 1171 863 q 986 732 1047 790 q 874 603 925 674 q 792 461 824 532 q 761 332 761 390 q 793 233 761 271 q 876 196 825 196 q 1002 228 935 196 q 1137 317 1069 261 q 1265 445 1204 374 q 1374 596 1326 517 q 1450 753 1422 675 q 1478 901 1478 832 q 1428 1049 1478 999 q 1281 1099 1378 1099 q 1108 1061 1194 1099 q 952 961 1022 1024 q 840 823 882 899 q 797 671 797 747 q 888 553 797 553 q 917 559 904 553 q 929 575 929 565 q 899 601 929 590 q 826 611 869 611 q 671 578 747 611 q 527 489 594 546 q 408 358 460 432 q 328 199 357 283 q 299 26 299 114 q 569 -221 299 -221 m 1225 1267 l 1224 1272 q 1288 1302 1244 1281 q 1381 1348 1332 1324 q 1469 1392 1431 1372 q 1521 1419 1508 1413 q 1533 1404 1533 1419 q 1519 1350 1526 1382 q 1513 1289 1513 1318 q 1513 1277 1513 1283 q 1514 1264 1513 1271 q 1508 1261 1514 1261 q 1501 1265 1506 1261 q 1483 1310 1492 1289 q 1468 1358 1474 1332 l 1225 1267 m 1421 1458 l 1418 1464 l 1604 1589 q 1640 1600 1622 1600 q 1667 1578 1667 1600 q 1642 1549 1667 1560 l 1421 1458 z "},"Ệ":{"ha":1307,"x_min":-225,"x_max":1533,"o":"m 569 -221 q 728 -193 643 -221 q 904 -113 814 -165 q 1082 10 994 -61 q 1249 169 1169 82 l 1307 235 l 1321 235 l 1260 167 q 1089 3 1179 76 q 907 -124 999 -71 q 729 -207 815 -178 q 569 -236 643 -236 q 374 -195 458 -236 q 244 -81 290 -154 q 199 92 199 -7 q 249 290 199 194 q 387 462 300 386 q 584 581 474 538 q 813 625 694 625 q 909 613 875 625 q 943 576 943 600 q 926 550 943 561 q 886 539 910 539 q 793 585 829 539 q 757 706 757 632 q 799 858 757 785 q 911 988 840 931 q 1072 1079 982 1046 q 1260 1113 1163 1113 q 1492 901 1492 1113 q 1463 751 1492 832 q 1386 590 1435 671 q 1274 437 1338 510 q 1142 306 1211 364 q 1006 215 1074 249 q 878 182 938 182 q 783 223 818 182 q 747 333 747 264 q 779 467 747 394 q 863 611 811 539 q 978 744 915 683 q 1105 840 1042 804 q 1221 876 1168 876 q 1281 808 1281 876 q 1234 667 1281 742 q 1108 517 1188 592 q 924 376 1028 443 q 706 258 821 310 q 474 177 590 207 q 254 147 358 147 q 8 191 117 147 q -162 310 -100 235 q -225 481 -225 385 q -178 634 -225 564 q -49 757 -132 704 q 148 838 35 810 q 396 867 261 867 q 593 850 490 867 q 796 805 696 833 q 984 738 896 776 q 1140 655 1072 699 q 1243 564 1207 611 l 1233 556 q 1133 645 1199 601 q 979 726 1067 689 q 793 792 892 764 q 593 837 694 821 q 397 853 492 853 q 154 825 265 853 q -38 747 43 797 q -165 628 -119 697 q -210 478 -210 560 q -149 316 -210 388 q 17 203 -89 244 q 254 163 122 163 q 471 192 357 163 q 699 272 585 221 q 914 387 813 322 q 1094 524 1015 451 q 1219 670 1174 597 q 1265 808 1265 743 q 1221 863 1265 863 q 1109 826 1171 863 q 986 732 1047 790 q 874 603 925 674 q 792 461 824 532 q 761 332 761 390 q 793 233 761 271 q 876 196 825 196 q 1002 228 935 196 q 1137 317 1069 261 q 1265 445 1204 374 q 1374 596 1326 517 q 1450 753 1422 675 q 1478 901 1478 832 q 1428 1049 1478 999 q 1281 1099 1378 1099 q 1108 1061 1194 1099 q 952 961 1022 1024 q 840 823 882 899 q 797 671 797 747 q 888 553 797 553 q 917 559 904 553 q 929 575 929 565 q 899 601 929 590 q 826 611 869 611 q 671 578 747 611 q 527 489 594 546 q 408 358 460 432 q 328 199 357 283 q 299 26 299 114 q 569 -221 299 -221 m 499 -372 q 514 -383 514 -372 q 491 -426 514 -401 q 439 -470 468 -451 q 388 -489 410 -489 q 374 -478 374 -489 q 397 -436 374 -461 q 449 -392 419 -411 q 499 -372 479 -372 m 1225 1267 l 1224 1272 q 1288 1302 1244 1281 q 1381 1348 1332 1324 q 1469 1392 1431 1372 q 1521 1419 1508 1413 q 1533 1404 1533 1419 q 1519 1350 1526 1382 q 1513 1289 1513 1318 q 1513 1277 1513 1283 q 1514 1264 1513 1271 q 1508 1261 1514 1261 q 1501 1265 1506 1261 q 1483 1310 1492 1289 q 1468 1358 1474 1332 l 1225 1267 z "},"Ề":{"ha":1307,"x_min":-225,"x_max":1729,"o":"m 569 -221 q 728 -193 643 -221 q 904 -113 814 -165 q 1082 10 994 -61 q 1249 169 1169 82 l 1307 235 l 1321 235 l 1260 167 q 1089 3 1179 76 q 907 -124 999 -71 q 729 -207 815 -178 q 569 -236 643 -236 q 374 -195 458 -236 q 244 -81 290 -154 q 199 92 199 -7 q 249 290 199 194 q 387 462 300 386 q 584 581 474 538 q 813 625 694 625 q 909 613 875 625 q 943 576 943 600 q 926 550 943 561 q 886 539 910 539 q 793 585 829 539 q 757 706 757 632 q 799 858 757 785 q 911 988 840 931 q 1072 1079 982 1046 q 1260 1113 1163 1113 q 1492 901 1492 1113 q 1463 751 1492 832 q 1386 590 1435 671 q 1274 437 1338 510 q 1142 306 1211 364 q 1006 215 1074 249 q 878 182 938 182 q 783 223 818 182 q 747 333 747 264 q 779 467 747 394 q 863 611 811 539 q 978 744 915 683 q 1105 840 1042 804 q 1221 876 1168 876 q 1281 808 1281 876 q 1234 667 1281 742 q 1108 517 1188 592 q 924 376 1028 443 q 706 258 821 310 q 474 177 590 207 q 254 147 358 147 q 8 191 117 147 q -162 310 -100 235 q -225 481 -225 385 q -178 634 -225 564 q -49 757 -132 704 q 148 838 35 810 q 396 867 261 867 q 593 850 490 867 q 796 805 696 833 q 984 738 896 776 q 1140 655 1072 699 q 1243 564 1207 611 l 1233 556 q 1133 645 1199 601 q 979 726 1067 689 q 793 792 892 764 q 593 837 694 821 q 397 853 492 853 q 154 825 265 853 q -38 747 43 797 q -165 628 -119 697 q -210 478 -210 560 q -149 316 -210 388 q 17 203 -89 244 q 254 163 122 163 q 471 192 357 163 q 699 272 585 221 q 914 387 813 322 q 1094 524 1015 451 q 1219 670 1174 597 q 1265 808 1265 743 q 1221 863 1265 863 q 1109 826 1171 863 q 986 732 1047 790 q 874 603 925 674 q 792 461 824 532 q 761 332 761 390 q 793 233 761 271 q 876 196 825 196 q 1002 228 935 196 q 1137 317 1069 261 q 1265 445 1204 374 q 1374 596 1326 517 q 1450 753 1422 675 q 1478 901 1478 832 q 1428 1049 1478 999 q 1281 1099 1378 1099 q 1108 1061 1194 1099 q 952 961 1022 1024 q 840 823 882 899 q 797 671 797 747 q 888 553 797 553 q 917 559 904 553 q 929 575 929 565 q 899 601 929 590 q 826 611 869 611 q 671 578 747 611 q 527 489 594 546 q 408 358 460 432 q 328 199 357 283 q 299 26 299 114 q 569 -221 299 -221 m 1225 1267 l 1224 1272 q 1288 1302 1244 1281 q 1381 1348 1332 1324 q 1469 1392 1431 1372 q 1521 1419 1508 1413 q 1533 1404 1533 1419 q 1519 1350 1526 1382 q 1513 1289 1513 1318 q 1513 1277 1513 1283 q 1514 1264 1513 1271 q 1508 1261 1514 1261 q 1501 1265 1506 1261 q 1483 1310 1492 1289 q 1468 1358 1474 1332 l 1225 1267 m 1725 1458 l 1506 1549 q 1481 1578 1481 1560 q 1507 1600 1481 1600 q 1523 1598 1514 1600 q 1542 1589 1532 1596 l 1729 1464 l 1725 1458 z "},"Ể":{"ha":1307,"x_min":-225,"x_max":1601,"o":"m 569 -221 q 728 -193 643 -221 q 904 -113 814 -165 q 1082 10 994 -61 q 1249 169 1169 82 l 1307 235 l 1321 235 l 1260 167 q 1089 3 1179 76 q 907 -124 999 -71 q 729 -207 815 -178 q 569 -236 643 -236 q 374 -195 458 -236 q 244 -81 290 -154 q 199 92 199 -7 q 249 290 199 194 q 387 462 300 386 q 584 581 474 538 q 813 625 694 625 q 909 613 875 625 q 943 576 943 600 q 926 550 943 561 q 886 539 910 539 q 793 585 829 539 q 757 706 757 632 q 799 858 757 785 q 911 988 840 931 q 1072 1079 982 1046 q 1260 1113 1163 1113 q 1492 901 1492 1113 q 1463 751 1492 832 q 1386 590 1435 671 q 1274 437 1338 510 q 1142 306 1211 364 q 1006 215 1074 249 q 878 182 938 182 q 783 223 818 182 q 747 333 747 264 q 779 467 747 394 q 863 611 811 539 q 978 744 915 683 q 1105 840 1042 804 q 1221 876 1168 876 q 1281 808 1281 876 q 1234 667 1281 742 q 1108 517 1188 592 q 924 376 1028 443 q 706 258 821 310 q 474 177 590 207 q 254 147 358 147 q 8 191 117 147 q -162 310 -100 235 q -225 481 -225 385 q -178 634 -225 564 q -49 757 -132 704 q 148 838 35 810 q 396 867 261 867 q 593 850 490 867 q 796 805 696 833 q 984 738 896 776 q 1140 655 1072 699 q 1243 564 1207 611 l 1233 556 q 1133 645 1199 601 q 979 726 1067 689 q 793 792 892 764 q 593 837 694 821 q 397 853 492 853 q 154 825 265 853 q -38 747 43 797 q -165 628 -119 697 q -210 478 -210 560 q -149 316 -210 388 q 17 203 -89 244 q 254 163 122 163 q 471 192 357 163 q 699 272 585 221 q 914 387 813 322 q 1094 524 1015 451 q 1219 670 1174 597 q 1265 808 1265 743 q 1221 863 1265 863 q 1109 826 1171 863 q 986 732 1047 790 q 874 603 925 674 q 792 461 824 532 q 761 332 761 390 q 793 233 761 271 q 876 196 825 196 q 1002 228 935 196 q 1137 317 1069 261 q 1265 445 1204 374 q 1374 596 1326 517 q 1450 753 1422 675 q 1478 901 1478 832 q 1428 1049 1478 999 q 1281 1099 1378 1099 q 1108 1061 1194 1099 q 952 961 1022 1024 q 840 823 882 899 q 797 671 797 747 q 888 553 797 553 q 917 559 904 553 q 929 575 929 565 q 899 601 929 590 q 826 611 869 611 q 671 578 747 611 q 527 489 594 546 q 408 358 460 432 q 328 199 357 283 q 299 26 299 114 q 569 -221 299 -221 m 1225 1267 l 1224 1272 q 1288 1302 1244 1281 q 1381 1348 1332 1324 q 1469 1392 1431 1372 q 1521 1419 1508 1413 q 1533 1404 1533 1419 q 1519 1350 1526 1382 q 1513 1289 1513 1318 q 1513 1277 1513 1283 q 1514 1264 1513 1271 q 1508 1261 1514 1261 q 1501 1265 1506 1261 q 1483 1310 1492 1289 q 1468 1358 1474 1332 l 1225 1267 m 1472 1521 l 1474 1532 q 1514 1549 1492 1543 q 1558 1556 1536 1556 q 1601 1525 1601 1556 q 1558 1447 1601 1490 q 1444 1376 1514 1404 l 1444 1381 q 1496 1418 1471 1393 q 1537 1469 1521 1443 q 1553 1514 1553 1496 q 1525 1538 1553 1538 q 1496 1533 1511 1538 q 1472 1521 1481 1528 z "},"Ễ":{"ha":1307,"x_min":-225,"x_max":1719,"o":"m 569 -221 q 728 -193 643 -221 q 904 -113 814 -165 q 1082 10 994 -61 q 1249 169 1169 82 l 1307 235 l 1321 235 l 1260 167 q 1089 3 1179 76 q 907 -124 999 -71 q 729 -207 815 -178 q 569 -236 643 -236 q 374 -195 458 -236 q 244 -81 290 -154 q 199 92 199 -7 q 249 290 199 194 q 387 462 300 386 q 584 581 474 538 q 813 625 694 625 q 909 613 875 625 q 943 576 943 600 q 926 550 943 561 q 886 539 910 539 q 793 585 829 539 q 757 706 757 632 q 799 858 757 785 q 911 988 840 931 q 1072 1079 982 1046 q 1260 1113 1163 1113 q 1492 901 1492 1113 q 1463 751 1492 832 q 1386 590 1435 671 q 1274 437 1338 510 q 1142 306 1211 364 q 1006 215 1074 249 q 878 182 938 182 q 783 223 818 182 q 747 333 747 264 q 779 467 747 394 q 863 611 811 539 q 978 744 915 683 q 1105 840 1042 804 q 1221 876 1168 876 q 1281 808 1281 876 q 1234 667 1281 742 q 1108 517 1188 592 q 924 376 1028 443 q 706 258 821 310 q 474 177 590 207 q 254 147 358 147 q 8 191 117 147 q -162 310 -100 235 q -225 481 -225 385 q -178 634 -225 564 q -49 757 -132 704 q 148 838 35 810 q 396 867 261 867 q 593 850 490 867 q 796 805 696 833 q 984 738 896 776 q 1140 655 1072 699 q 1243 564 1207 611 l 1233 556 q 1133 645 1199 601 q 979 726 1067 689 q 793 792 892 764 q 593 837 694 821 q 397 853 492 853 q 154 825 265 853 q -38 747 43 797 q -165 628 -119 697 q -210 478 -210 560 q -149 316 -210 388 q 17 203 -89 244 q 254 163 122 163 q 471 192 357 163 q 699 272 585 221 q 914 387 813 322 q 1094 524 1015 451 q 1219 670 1174 597 q 1265 808 1265 743 q 1221 863 1265 863 q 1109 826 1171 863 q 986 732 1047 790 q 874 603 925 674 q 792 461 824 532 q 761 332 761 390 q 793 233 761 271 q 876 196 825 196 q 1002 228 935 196 q 1137 317 1069 261 q 1265 445 1204 374 q 1374 596 1326 517 q 1450 753 1422 675 q 1478 901 1478 832 q 1428 1049 1478 999 q 1281 1099 1378 1099 q 1108 1061 1194 1099 q 952 961 1022 1024 q 840 823 882 899 q 797 671 797 747 q 888 553 797 553 q 917 559 904 553 q 929 575 929 565 q 899 601 929 590 q 826 611 869 611 q 671 578 747 611 q 527 489 594 546 q 408 358 460 432 q 328 199 357 283 q 299 26 299 114 q 569 -221 299 -221 m 1225 1267 l 1224 1272 q 1288 1302 1244 1281 q 1381 1348 1332 1324 q 1469 1392 1431 1372 q 1521 1419 1508 1413 q 1533 1404 1533 1419 q 1519 1350 1526 1382 q 1513 1289 1513 1318 q 1513 1277 1513 1283 q 1514 1264 1513 1271 q 1508 1261 1514 1261 q 1501 1265 1506 1261 q 1483 1310 1492 1289 q 1468 1358 1474 1332 l 1225 1267 m 1356 1490 l 1353 1499 q 1412 1558 1372 1538 q 1494 1578 1451 1578 q 1551 1564 1526 1578 q 1599 1537 1575 1550 q 1653 1524 1624 1524 q 1689 1533 1671 1524 q 1714 1572 1707 1542 l 1719 1564 q 1681 1507 1713 1531 q 1606 1483 1649 1483 q 1548 1495 1574 1483 q 1494 1518 1522 1507 q 1429 1529 1467 1529 q 1356 1490 1379 1529 z "},"Ȅ":{"ha":1307,"x_min":-225,"x_max":1593,"o":"m 569 -221 q 728 -193 643 -221 q 904 -113 814 -165 q 1082 10 994 -61 q 1249 169 1169 82 l 1307 235 l 1321 235 l 1260 167 q 1089 3 1179 76 q 907 -124 999 -71 q 729 -207 815 -178 q 569 -236 643 -236 q 374 -195 458 -236 q 244 -81 290 -154 q 199 92 199 -7 q 249 290 199 194 q 387 462 300 386 q 584 581 474 538 q 813 625 694 625 q 909 613 875 625 q 943 576 943 600 q 926 550 943 561 q 886 539 910 539 q 793 585 829 539 q 757 706 757 632 q 799 858 757 785 q 911 988 840 931 q 1072 1079 982 1046 q 1260 1113 1163 1113 q 1492 901 1492 1113 q 1463 751 1492 832 q 1386 590 1435 671 q 1274 437 1338 510 q 1142 306 1211 364 q 1006 215 1074 249 q 878 182 938 182 q 783 223 818 182 q 747 333 747 264 q 779 467 747 394 q 863 611 811 539 q 978 744 915 683 q 1105 840 1042 804 q 1221 876 1168 876 q 1281 808 1281 876 q 1234 667 1281 742 q 1108 517 1188 592 q 924 376 1028 443 q 706 258 821 310 q 474 177 590 207 q 254 147 358 147 q 8 191 117 147 q -162 310 -100 235 q -225 481 -225 385 q -178 634 -225 564 q -49 757 -132 704 q 148 838 35 810 q 396 867 261 867 q 593 850 490 867 q 796 805 696 833 q 984 738 896 776 q 1140 655 1072 699 q 1243 564 1207 611 l 1233 556 q 1133 645 1199 601 q 979 726 1067 689 q 793 792 892 764 q 593 837 694 821 q 397 853 492 853 q 154 825 265 853 q -38 747 43 797 q -165 628 -119 697 q -210 478 -210 560 q -149 316 -210 388 q 17 203 -89 244 q 254 163 122 163 q 471 192 357 163 q 699 272 585 221 q 914 387 813 322 q 1094 524 1015 451 q 1219 670 1174 597 q 1265 808 1265 743 q 1221 863 1265 863 q 1109 826 1171 863 q 986 732 1047 790 q 874 603 925 674 q 792 461 824 532 q 761 332 761 390 q 793 233 761 271 q 876 196 825 196 q 1002 228 935 196 q 1137 317 1069 261 q 1265 445 1204 374 q 1374 596 1326 517 q 1450 753 1422 675 q 1478 901 1478 832 q 1428 1049 1478 999 q 1281 1099 1378 1099 q 1108 1061 1194 1099 q 952 961 1022 1024 q 840 823 882 899 q 797 671 797 747 q 888 553 797 553 q 917 559 904 553 q 929 575 929 565 q 899 601 929 590 q 826 611 869 611 q 671 578 747 611 q 527 489 594 546 q 408 358 460 432 q 328 199 357 283 q 299 26 299 114 q 569 -221 299 -221 m 1590 1267 l 1369 1357 q 1344 1386 1344 1368 q 1371 1408 1344 1408 q 1407 1397 1389 1408 l 1593 1272 l 1590 1267 m 1424 1267 l 1203 1357 q 1178 1386 1178 1368 q 1204 1408 1178 1408 q 1240 1397 1222 1408 l 1426 1272 l 1424 1267 z "},"Ë":{"ha":1307,"x_min":-225,"x_max":1593,"o":"m 569 -221 q 728 -193 643 -221 q 904 -113 814 -165 q 1082 10 994 -61 q 1249 169 1169 82 l 1307 235 l 1321 235 l 1260 167 q 1089 3 1179 76 q 907 -124 999 -71 q 729 -207 815 -178 q 569 -236 643 -236 q 374 -195 458 -236 q 244 -81 290 -154 q 199 92 199 -7 q 249 290 199 194 q 387 462 300 386 q 584 581 474 538 q 813 625 694 625 q 909 613 875 625 q 943 576 943 600 q 926 550 943 561 q 886 539 910 539 q 793 585 829 539 q 757 706 757 632 q 799 858 757 785 q 911 988 840 931 q 1072 1079 982 1046 q 1260 1113 1163 1113 q 1492 901 1492 1113 q 1463 751 1492 832 q 1386 590 1435 671 q 1274 437 1338 510 q 1142 306 1211 364 q 1006 215 1074 249 q 878 182 938 182 q 783 223 818 182 q 747 333 747 264 q 779 467 747 394 q 863 611 811 539 q 978 744 915 683 q 1105 840 1042 804 q 1221 876 1168 876 q 1281 808 1281 876 q 1234 667 1281 742 q 1108 517 1188 592 q 924 376 1028 443 q 706 258 821 310 q 474 177 590 207 q 254 147 358 147 q 8 191 117 147 q -162 310 -100 235 q -225 481 -225 385 q -178 634 -225 564 q -49 757 -132 704 q 148 838 35 810 q 396 867 261 867 q 593 850 490 867 q 796 805 696 833 q 984 738 896 776 q 1140 655 1072 699 q 1243 564 1207 611 l 1233 556 q 1133 645 1199 601 q 979 726 1067 689 q 793 792 892 764 q 593 837 694 821 q 397 853 492 853 q 154 825 265 853 q -38 747 43 797 q -165 628 -119 697 q -210 478 -210 560 q -149 316 -210 388 q 17 203 -89 244 q 254 163 122 163 q 471 192 357 163 q 699 272 585 221 q 914 387 813 322 q 1094 524 1015 451 q 1219 670 1174 597 q 1265 808 1265 743 q 1221 863 1265 863 q 1109 826 1171 863 q 986 732 1047 790 q 874 603 925 674 q 792 461 824 532 q 761 332 761 390 q 793 233 761 271 q 876 196 825 196 q 1002 228 935 196 q 1137 317 1069 261 q 1265 445 1204 374 q 1374 596 1326 517 q 1450 753 1422 675 q 1478 901 1478 832 q 1428 1049 1478 999 q 1281 1099 1378 1099 q 1108 1061 1194 1099 q 952 961 1022 1024 q 840 823 882 899 q 797 671 797 747 q 888 553 797 553 q 917 559 904 553 q 929 575 929 565 q 899 601 929 590 q 826 611 869 611 q 671 578 747 611 q 527 489 594 546 q 408 358 460 432 q 328 199 357 283 q 299 26 299 114 q 569 -221 299 -221 m 1428 1397 q 1443 1386 1443 1397 q 1420 1343 1443 1368 q 1368 1299 1397 1318 q 1317 1281 1339 1281 q 1303 1292 1303 1281 q 1326 1333 1303 1308 q 1378 1378 1349 1358 q 1428 1397 1408 1397 m 1578 1397 q 1593 1386 1593 1397 q 1570 1343 1593 1368 q 1518 1299 1547 1318 q 1467 1281 1489 1281 q 1453 1292 1453 1281 q 1476 1333 1453 1308 q 1528 1378 1499 1358 q 1578 1397 1558 1397 z "},"Ė":{"ha":1307,"x_min":-225,"x_max":1519,"o":"m 569 -221 q 728 -193 643 -221 q 904 -113 814 -165 q 1082 10 994 -61 q 1249 169 1169 82 l 1307 235 l 1321 235 l 1260 167 q 1089 3 1179 76 q 907 -124 999 -71 q 729 -207 815 -178 q 569 -236 643 -236 q 374 -195 458 -236 q 244 -81 290 -154 q 199 92 199 -7 q 249 290 199 194 q 387 462 300 386 q 584 581 474 538 q 813 625 694 625 q 909 613 875 625 q 943 576 943 600 q 926 550 943 561 q 886 539 910 539 q 793 585 829 539 q 757 706 757 632 q 799 858 757 785 q 911 988 840 931 q 1072 1079 982 1046 q 1260 1113 1163 1113 q 1492 901 1492 1113 q 1463 751 1492 832 q 1386 590 1435 671 q 1274 437 1338 510 q 1142 306 1211 364 q 1006 215 1074 249 q 878 182 938 182 q 783 223 818 182 q 747 333 747 264 q 779 467 747 394 q 863 611 811 539 q 978 744 915 683 q 1105 840 1042 804 q 1221 876 1168 876 q 1281 808 1281 876 q 1234 667 1281 742 q 1108 517 1188 592 q 924 376 1028 443 q 706 258 821 310 q 474 177 590 207 q 254 147 358 147 q 8 191 117 147 q -162 310 -100 235 q -225 481 -225 385 q -178 634 -225 564 q -49 757 -132 704 q 148 838 35 810 q 396 867 261 867 q 593 850 490 867 q 796 805 696 833 q 984 738 896 776 q 1140 655 1072 699 q 1243 564 1207 611 l 1233 556 q 1133 645 1199 601 q 979 726 1067 689 q 793 792 892 764 q 593 837 694 821 q 397 853 492 853 q 154 825 265 853 q -38 747 43 797 q -165 628 -119 697 q -210 478 -210 560 q -149 316 -210 388 q 17 203 -89 244 q 254 163 122 163 q 471 192 357 163 q 699 272 585 221 q 914 387 813 322 q 1094 524 1015 451 q 1219 670 1174 597 q 1265 808 1265 743 q 1221 863 1265 863 q 1109 826 1171 863 q 986 732 1047 790 q 874 603 925 674 q 792 461 824 532 q 761 332 761 390 q 793 233 761 271 q 876 196 825 196 q 1002 228 935 196 q 1137 317 1069 261 q 1265 445 1204 374 q 1374 596 1326 517 q 1450 753 1422 675 q 1478 901 1478 832 q 1428 1049 1478 999 q 1281 1099 1378 1099 q 1108 1061 1194 1099 q 952 961 1022 1024 q 840 823 882 899 q 797 671 797 747 q 888 553 797 553 q 917 559 904 553 q 929 575 929 565 q 899 601 929 590 q 826 611 869 611 q 671 578 747 611 q 527 489 594 546 q 408 358 460 432 q 328 199 357 283 q 299 26 299 114 q 569 -221 299 -221 m 1504 1397 q 1519 1386 1519 1397 q 1497 1343 1519 1368 q 1444 1299 1474 1318 q 1393 1281 1415 1281 q 1379 1292 1379 1281 q 1402 1333 1379 1308 q 1455 1378 1425 1358 q 1504 1397 1485 1397 z "},"Ẹ":{"ha":1307,"x_min":-225,"x_max":1492,"o":"m 569 -221 q 728 -193 643 -221 q 904 -113 814 -165 q 1082 10 994 -61 q 1249 169 1169 82 l 1307 235 l 1321 235 l 1260 167 q 1089 3 1179 76 q 907 -124 999 -71 q 729 -207 815 -178 q 569 -236 643 -236 q 374 -195 458 -236 q 244 -81 290 -154 q 199 92 199 -7 q 249 290 199 194 q 387 462 300 386 q 584 581 474 538 q 813 625 694 625 q 909 613 875 625 q 943 576 943 600 q 926 550 943 561 q 886 539 910 539 q 793 585 829 539 q 757 706 757 632 q 799 858 757 785 q 911 988 840 931 q 1072 1079 982 1046 q 1260 1113 1163 1113 q 1492 901 1492 1113 q 1463 751 1492 832 q 1386 590 1435 671 q 1274 437 1338 510 q 1142 306 1211 364 q 1006 215 1074 249 q 878 182 938 182 q 783 223 818 182 q 747 333 747 264 q 779 467 747 394 q 863 611 811 539 q 978 744 915 683 q 1105 840 1042 804 q 1221 876 1168 876 q 1281 808 1281 876 q 1234 667 1281 742 q 1108 517 1188 592 q 924 376 1028 443 q 706 258 821 310 q 474 177 590 207 q 254 147 358 147 q 8 191 117 147 q -162 310 -100 235 q -225 481 -225 385 q -178 634 -225 564 q -49 757 -132 704 q 148 838 35 810 q 396 867 261 867 q 593 850 490 867 q 796 805 696 833 q 984 738 896 776 q 1140 655 1072 699 q 1243 564 1207 611 l 1233 556 q 1133 645 1199 601 q 979 726 1067 689 q 793 792 892 764 q 593 837 694 821 q 397 853 492 853 q 154 825 265 853 q -38 747 43 797 q -165 628 -119 697 q -210 478 -210 560 q -149 316 -210 388 q 17 203 -89 244 q 254 163 122 163 q 471 192 357 163 q 699 272 585 221 q 914 387 813 322 q 1094 524 1015 451 q 1219 670 1174 597 q 1265 808 1265 743 q 1221 863 1265 863 q 1109 826 1171 863 q 986 732 1047 790 q 874 603 925 674 q 792 461 824 532 q 761 332 761 390 q 793 233 761 271 q 876 196 825 196 q 1002 228 935 196 q 1137 317 1069 261 q 1265 445 1204 374 q 1374 596 1326 517 q 1450 753 1422 675 q 1478 901 1478 832 q 1428 1049 1478 999 q 1281 1099 1378 1099 q 1108 1061 1194 1099 q 952 961 1022 1024 q 840 823 882 899 q 797 671 797 747 q 888 553 797 553 q 917 559 904 553 q 929 575 929 565 q 899 601 929 590 q 826 611 869 611 q 671 578 747 611 q 527 489 594 546 q 408 358 460 432 q 328 199 357 283 q 299 26 299 114 q 569 -221 299 -221 m 499 -372 q 514 -383 514 -372 q 491 -426 514 -401 q 439 -470 468 -451 q 388 -489 410 -489 q 374 -478 374 -489 q 397 -436 374 -461 q 449 -392 419 -411 q 499 -372 479 -372 z "},"È":{"ha":1307,"x_min":-225,"x_max":1572,"o":"m 569 -221 q 728 -193 643 -221 q 904 -113 814 -165 q 1082 10 994 -61 q 1249 169 1169 82 l 1307 235 l 1321 235 l 1260 167 q 1089 3 1179 76 q 907 -124 999 -71 q 729 -207 815 -178 q 569 -236 643 -236 q 374 -195 458 -236 q 244 -81 290 -154 q 199 92 199 -7 q 249 290 199 194 q 387 462 300 386 q 584 581 474 538 q 813 625 694 625 q 909 613 875 625 q 943 576 943 600 q 926 550 943 561 q 886 539 910 539 q 793 585 829 539 q 757 706 757 632 q 799 858 757 785 q 911 988 840 931 q 1072 1079 982 1046 q 1260 1113 1163 1113 q 1492 901 1492 1113 q 1463 751 1492 832 q 1386 590 1435 671 q 1274 437 1338 510 q 1142 306 1211 364 q 1006 215 1074 249 q 878 182 938 182 q 783 223 818 182 q 747 333 747 264 q 779 467 747 394 q 863 611 811 539 q 978 744 915 683 q 1105 840 1042 804 q 1221 876 1168 876 q 1281 808 1281 876 q 1234 667 1281 742 q 1108 517 1188 592 q 924 376 1028 443 q 706 258 821 310 q 474 177 590 207 q 254 147 358 147 q 8 191 117 147 q -162 310 -100 235 q -225 481 -225 385 q -178 634 -225 564 q -49 757 -132 704 q 148 838 35 810 q 396 867 261 867 q 593 850 490 867 q 796 805 696 833 q 984 738 896 776 q 1140 655 1072 699 q 1243 564 1207 611 l 1233 556 q 1133 645 1199 601 q 979 726 1067 689 q 793 792 892 764 q 593 837 694 821 q 397 853 492 853 q 154 825 265 853 q -38 747 43 797 q -165 628 -119 697 q -210 478 -210 560 q -149 316 -210 388 q 17 203 -89 244 q 254 163 122 163 q 471 192 357 163 q 699 272 585 221 q 914 387 813 322 q 1094 524 1015 451 q 1219 670 1174 597 q 1265 808 1265 743 q 1221 863 1265 863 q 1109 826 1171 863 q 986 732 1047 790 q 874 603 925 674 q 792 461 824 532 q 761 332 761 390 q 793 233 761 271 q 876 196 825 196 q 1002 228 935 196 q 1137 317 1069 261 q 1265 445 1204 374 q 1374 596 1326 517 q 1450 753 1422 675 q 1478 901 1478 832 q 1428 1049 1478 999 q 1281 1099 1378 1099 q 1108 1061 1194 1099 q 952 961 1022 1024 q 840 823 882 899 q 797 671 797 747 q 888 553 797 553 q 917 559 904 553 q 929 575 929 565 q 899 601 929 590 q 826 611 869 611 q 671 578 747 611 q 527 489 594 546 q 408 358 460 432 q 328 199 357 283 q 299 26 299 114 q 569 -221 299 -221 m 1568 1267 l 1349 1357 q 1324 1386 1324 1368 q 1350 1408 1324 1408 q 1366 1406 1357 1408 q 1385 1397 1375 1404 l 1572 1272 l 1568 1267 z "},"Ẻ":{"ha":1307,"x_min":-225,"x_max":1492,"o":"m 569 -221 q 728 -193 643 -221 q 904 -113 814 -165 q 1082 10 994 -61 q 1249 169 1169 82 l 1307 235 l 1321 235 l 1260 167 q 1089 3 1179 76 q 907 -124 999 -71 q 729 -207 815 -178 q 569 -236 643 -236 q 374 -195 458 -236 q 244 -81 290 -154 q 199 92 199 -7 q 249 290 199 194 q 387 462 300 386 q 584 581 474 538 q 813 625 694 625 q 909 613 875 625 q 943 576 943 600 q 926 550 943 561 q 886 539 910 539 q 793 585 829 539 q 757 706 757 632 q 799 858 757 785 q 911 988 840 931 q 1072 1079 982 1046 q 1260 1113 1163 1113 q 1492 901 1492 1113 q 1463 751 1492 832 q 1386 590 1435 671 q 1274 437 1338 510 q 1142 306 1211 364 q 1006 215 1074 249 q 878 182 938 182 q 783 223 818 182 q 747 333 747 264 q 779 467 747 394 q 863 611 811 539 q 978 744 915 683 q 1105 840 1042 804 q 1221 876 1168 876 q 1281 808 1281 876 q 1234 667 1281 742 q 1108 517 1188 592 q 924 376 1028 443 q 706 258 821 310 q 474 177 590 207 q 254 147 358 147 q 8 191 117 147 q -162 310 -100 235 q -225 481 -225 385 q -178 634 -225 564 q -49 757 -132 704 q 148 838 35 810 q 396 867 261 867 q 593 850 490 867 q 796 805 696 833 q 984 738 896 776 q 1140 655 1072 699 q 1243 564 1207 611 l 1233 556 q 1133 645 1199 601 q 979 726 1067 689 q 793 792 892 764 q 593 837 694 821 q 397 853 492 853 q 154 825 265 853 q -38 747 43 797 q -165 628 -119 697 q -210 478 -210 560 q -149 316 -210 388 q 17 203 -89 244 q 254 163 122 163 q 471 192 357 163 q 699 272 585 221 q 914 387 813 322 q 1094 524 1015 451 q 1219 670 1174 597 q 1265 808 1265 743 q 1221 863 1265 863 q 1109 826 1171 863 q 986 732 1047 790 q 874 603 925 674 q 792 461 824 532 q 761 332 761 390 q 793 233 761 271 q 876 196 825 196 q 1002 228 935 196 q 1137 317 1069 261 q 1265 445 1204 374 q 1374 596 1326 517 q 1450 753 1422 675 q 1478 901 1478 832 q 1428 1049 1478 999 q 1281 1099 1378 1099 q 1108 1061 1194 1099 q 952 961 1022 1024 q 840 823 882 899 q 797 671 797 747 q 888 553 797 553 q 917 559 904 553 q 929 575 929 565 q 899 601 929 590 q 826 611 869 611 q 671 578 747 611 q 527 489 594 546 q 408 358 460 432 q 328 199 357 283 q 299 26 299 114 q 569 -221 299 -221 m 1315 1329 l 1317 1340 q 1357 1358 1335 1351 q 1401 1364 1379 1364 q 1444 1333 1444 1364 q 1401 1256 1444 1299 q 1288 1185 1357 1213 l 1288 1189 q 1339 1226 1314 1201 q 1380 1278 1364 1251 q 1396 1322 1396 1304 q 1368 1346 1396 1346 q 1339 1341 1354 1346 q 1315 1329 1324 1336 z "},"Ȇ":{"ha":1307,"x_min":-225,"x_max":1544,"o":"m 569 -221 q 728 -193 643 -221 q 904 -113 814 -165 q 1082 10 994 -61 q 1249 169 1169 82 l 1307 235 l 1321 235 l 1260 167 q 1089 3 1179 76 q 907 -124 999 -71 q 729 -207 815 -178 q 569 -236 643 -236 q 374 -195 458 -236 q 244 -81 290 -154 q 199 92 199 -7 q 249 290 199 194 q 387 462 300 386 q 584 581 474 538 q 813 625 694 625 q 909 613 875 625 q 943 576 943 600 q 926 550 943 561 q 886 539 910 539 q 793 585 829 539 q 757 706 757 632 q 799 858 757 785 q 911 988 840 931 q 1072 1079 982 1046 q 1260 1113 1163 1113 q 1492 901 1492 1113 q 1463 751 1492 832 q 1386 590 1435 671 q 1274 437 1338 510 q 1142 306 1211 364 q 1006 215 1074 249 q 878 182 938 182 q 783 223 818 182 q 747 333 747 264 q 779 467 747 394 q 863 611 811 539 q 978 744 915 683 q 1105 840 1042 804 q 1221 876 1168 876 q 1281 808 1281 876 q 1234 667 1281 742 q 1108 517 1188 592 q 924 376 1028 443 q 706 258 821 310 q 474 177 590 207 q 254 147 358 147 q 8 191 117 147 q -162 310 -100 235 q -225 481 -225 385 q -178 634 -225 564 q -49 757 -132 704 q 148 838 35 810 q 396 867 261 867 q 593 850 490 867 q 796 805 696 833 q 984 738 896 776 q 1140 655 1072 699 q 1243 564 1207 611 l 1233 556 q 1133 645 1199 601 q 979 726 1067 689 q 793 792 892 764 q 593 837 694 821 q 397 853 492 853 q 154 825 265 853 q -38 747 43 797 q -165 628 -119 697 q -210 478 -210 560 q -149 316 -210 388 q 17 203 -89 244 q 254 163 122 163 q 471 192 357 163 q 699 272 585 221 q 914 387 813 322 q 1094 524 1015 451 q 1219 670 1174 597 q 1265 808 1265 743 q 1221 863 1265 863 q 1109 826 1171 863 q 986 732 1047 790 q 874 603 925 674 q 792 461 824 532 q 761 332 761 390 q 793 233 761 271 q 876 196 825 196 q 1002 228 935 196 q 1137 317 1069 261 q 1265 445 1204 374 q 1374 596 1326 517 q 1450 753 1422 675 q 1478 901 1478 832 q 1428 1049 1478 999 q 1281 1099 1378 1099 q 1108 1061 1194 1099 q 952 961 1022 1024 q 840 823 882 899 q 797 671 797 747 q 888 553 797 553 q 917 559 904 553 q 929 575 929 565 q 899 601 929 590 q 826 611 869 611 q 671 578 747 611 q 527 489 594 546 q 408 358 460 432 q 328 199 357 283 q 299 26 299 114 q 569 -221 299 -221 m 1332 1296 l 1275 1296 q 1327 1349 1294 1326 q 1397 1385 1360 1372 q 1464 1399 1433 1399 q 1524 1385 1504 1399 q 1544 1349 1544 1371 q 1540 1322 1544 1335 q 1528 1296 1535 1308 l 1481 1296 q 1490 1322 1486 1308 q 1493 1349 1493 1335 q 1457 1389 1493 1389 q 1390 1361 1426 1389 q 1332 1296 1353 1333 z "},"Ē":{"ha":1307,"x_min":-225,"x_max":1624,"o":"m 569 -221 q 728 -193 643 -221 q 904 -113 814 -165 q 1082 10 994 -61 q 1249 169 1169 82 l 1307 235 l 1321 235 l 1260 167 q 1089 3 1179 76 q 907 -124 999 -71 q 729 -207 815 -178 q 569 -236 643 -236 q 374 -195 458 -236 q 244 -81 290 -154 q 199 92 199 -7 q 249 290 199 194 q 387 462 300 386 q 584 581 474 538 q 813 625 694 625 q 909 613 875 625 q 943 576 943 600 q 926 550 943 561 q 886 539 910 539 q 793 585 829 539 q 757 706 757 632 q 799 858 757 785 q 911 988 840 931 q 1072 1079 982 1046 q 1260 1113 1163 1113 q 1492 901 1492 1113 q 1463 751 1492 832 q 1386 590 1435 671 q 1274 437 1338 510 q 1142 306 1211 364 q 1006 215 1074 249 q 878 182 938 182 q 783 223 818 182 q 747 333 747 264 q 779 467 747 394 q 863 611 811 539 q 978 744 915 683 q 1105 840 1042 804 q 1221 876 1168 876 q 1281 808 1281 876 q 1234 667 1281 742 q 1108 517 1188 592 q 924 376 1028 443 q 706 258 821 310 q 474 177 590 207 q 254 147 358 147 q 8 191 117 147 q -162 310 -100 235 q -225 481 -225 385 q -178 634 -225 564 q -49 757 -132 704 q 148 838 35 810 q 396 867 261 867 q 593 850 490 867 q 796 805 696 833 q 984 738 896 776 q 1140 655 1072 699 q 1243 564 1207 611 l 1233 556 q 1133 645 1199 601 q 979 726 1067 689 q 793 792 892 764 q 593 837 694 821 q 397 853 492 853 q 154 825 265 853 q -38 747 43 797 q -165 628 -119 697 q -210 478 -210 560 q -149 316 -210 388 q 17 203 -89 244 q 254 163 122 163 q 471 192 357 163 q 699 272 585 221 q 914 387 813 322 q 1094 524 1015 451 q 1219 670 1174 597 q 1265 808 1265 743 q 1221 863 1265 863 q 1109 826 1171 863 q 986 732 1047 790 q 874 603 925 674 q 792 461 824 532 q 761 332 761 390 q 793 233 761 271 q 876 196 825 196 q 1002 228 935 196 q 1137 317 1069 261 q 1265 445 1204 374 q 1374 596 1326 517 q 1450 753 1422 675 q 1478 901 1478 832 q 1428 1049 1478 999 q 1281 1099 1378 1099 q 1108 1061 1194 1099 q 952 961 1022 1024 q 840 823 882 899 q 797 671 797 747 q 888 553 797 553 q 917 559 904 553 q 929 575 929 565 q 899 601 929 590 q 826 611 869 611 q 671 578 747 611 q 527 489 594 546 q 408 358 460 432 q 328 199 357 283 q 299 26 299 114 q 569 -221 299 -221 m 1265 1315 l 1321 1363 l 1624 1363 l 1568 1315 l 1265 1315 z "},"Ḗ":{"ha":1307,"x_min":-225,"x_max":1624,"o":"m 569 -221 q 728 -193 643 -221 q 904 -113 814 -165 q 1082 10 994 -61 q 1249 169 1169 82 l 1307 235 l 1321 235 l 1260 167 q 1089 3 1179 76 q 907 -124 999 -71 q 729 -207 815 -178 q 569 -236 643 -236 q 374 -195 458 -236 q 244 -81 290 -154 q 199 92 199 -7 q 249 290 199 194 q 387 462 300 386 q 584 581 474 538 q 813 625 694 625 q 909 613 875 625 q 943 576 943 600 q 926 550 943 561 q 886 539 910 539 q 793 585 829 539 q 757 706 757 632 q 799 858 757 785 q 911 988 840 931 q 1072 1079 982 1046 q 1260 1113 1163 1113 q 1492 901 1492 1113 q 1463 751 1492 832 q 1386 590 1435 671 q 1274 437 1338 510 q 1142 306 1211 364 q 1006 215 1074 249 q 878 182 938 182 q 783 223 818 182 q 747 333 747 264 q 779 467 747 394 q 863 611 811 539 q 978 744 915 683 q 1105 840 1042 804 q 1221 876 1168 876 q 1281 808 1281 876 q 1234 667 1281 742 q 1108 517 1188 592 q 924 376 1028 443 q 706 258 821 310 q 474 177 590 207 q 254 147 358 147 q 8 191 117 147 q -162 310 -100 235 q -225 481 -225 385 q -178 634 -225 564 q -49 757 -132 704 q 148 838 35 810 q 396 867 261 867 q 593 850 490 867 q 796 805 696 833 q 984 738 896 776 q 1140 655 1072 699 q 1243 564 1207 611 l 1233 556 q 1133 645 1199 601 q 979 726 1067 689 q 793 792 892 764 q 593 837 694 821 q 397 853 492 853 q 154 825 265 853 q -38 747 43 797 q -165 628 -119 697 q -210 478 -210 560 q -149 316 -210 388 q 17 203 -89 244 q 254 163 122 163 q 471 192 357 163 q 699 272 585 221 q 914 387 813 322 q 1094 524 1015 451 q 1219 670 1174 597 q 1265 808 1265 743 q 1221 863 1265 863 q 1109 826 1171 863 q 986 732 1047 790 q 874 603 925 674 q 792 461 824 532 q 761 332 761 390 q 793 233 761 271 q 876 196 825 196 q 1002 228 935 196 q 1137 317 1069 261 q 1265 445 1204 374 q 1374 596 1326 517 q 1450 753 1422 675 q 1478 901 1478 832 q 1428 1049 1478 999 q 1281 1099 1378 1099 q 1108 1061 1194 1099 q 952 961 1022 1024 q 840 823 882 899 q 797 671 797 747 q 888 553 797 553 q 917 559 904 553 q 929 575 929 565 q 899 601 929 590 q 826 611 869 611 q 671 578 747 611 q 527 489 594 546 q 408 358 460 432 q 328 199 357 283 q 299 26 299 114 q 569 -221 299 -221 m 1265 1315 l 1321 1363 l 1624 1363 l 1568 1315 l 1265 1315 m 1324 1458 l 1321 1464 l 1507 1589 q 1543 1600 1525 1600 q 1569 1578 1569 1600 q 1544 1549 1569 1560 l 1324 1458 z "},"Ḕ":{"ha":1307,"x_min":-225,"x_max":1632,"o":"m 569 -221 q 728 -193 643 -221 q 904 -113 814 -165 q 1082 10 994 -61 q 1249 169 1169 82 l 1307 235 l 1321 235 l 1260 167 q 1089 3 1179 76 q 907 -124 999 -71 q 729 -207 815 -178 q 569 -236 643 -236 q 374 -195 458 -236 q 244 -81 290 -154 q 199 92 199 -7 q 249 290 199 194 q 387 462 300 386 q 584 581 474 538 q 813 625 694 625 q 909 613 875 625 q 943 576 943 600 q 926 550 943 561 q 886 539 910 539 q 793 585 829 539 q 757 706 757 632 q 799 858 757 785 q 911 988 840 931 q 1072 1079 982 1046 q 1260 1113 1163 1113 q 1492 901 1492 1113 q 1463 751 1492 832 q 1386 590 1435 671 q 1274 437 1338 510 q 1142 306 1211 364 q 1006 215 1074 249 q 878 182 938 182 q 783 223 818 182 q 747 333 747 264 q 779 467 747 394 q 863 611 811 539 q 978 744 915 683 q 1105 840 1042 804 q 1221 876 1168 876 q 1281 808 1281 876 q 1234 667 1281 742 q 1108 517 1188 592 q 924 376 1028 443 q 706 258 821 310 q 474 177 590 207 q 254 147 358 147 q 8 191 117 147 q -162 310 -100 235 q -225 481 -225 385 q -178 634 -225 564 q -49 757 -132 704 q 148 838 35 810 q 396 867 261 867 q 593 850 490 867 q 796 805 696 833 q 984 738 896 776 q 1140 655 1072 699 q 1243 564 1207 611 l 1233 556 q 1133 645 1199 601 q 979 726 1067 689 q 793 792 892 764 q 593 837 694 821 q 397 853 492 853 q 154 825 265 853 q -38 747 43 797 q -165 628 -119 697 q -210 478 -210 560 q -149 316 -210 388 q 17 203 -89 244 q 254 163 122 163 q 471 192 357 163 q 699 272 585 221 q 914 387 813 322 q 1094 524 1015 451 q 1219 670 1174 597 q 1265 808 1265 743 q 1221 863 1265 863 q 1109 826 1171 863 q 986 732 1047 790 q 874 603 925 674 q 792 461 824 532 q 761 332 761 390 q 793 233 761 271 q 876 196 825 196 q 1002 228 935 196 q 1137 317 1069 261 q 1265 445 1204 374 q 1374 596 1326 517 q 1450 753 1422 675 q 1478 901 1478 832 q 1428 1049 1478 999 q 1281 1099 1378 1099 q 1108 1061 1194 1099 q 952 961 1022 1024 q 840 823 882 899 q 797 671 797 747 q 888 553 797 553 q 917 559 904 553 q 929 575 929 565 q 899 601 929 590 q 826 611 869 611 q 671 578 747 611 q 527 489 594 546 q 408 358 460 432 q 328 199 357 283 q 299 26 299 114 q 569 -221 299 -221 m 1265 1315 l 1321 1363 l 1624 1363 l 1568 1315 l 1265 1315 m 1628 1458 l 1408 1549 q 1383 1578 1383 1560 q 1410 1600 1383 1600 q 1426 1598 1417 1600 q 1444 1589 1435 1596 l 1632 1464 l 1628 1458 z "}}}
